<svg width="126" height="340" viewBox="0 0 126 340" fill="none" xmlns="http://www.w3.org/2000/svg">
<rect width="117" height="55" rx="27.5" fill="black"/>
<path d="M36.52 38.384C35.1333 38.384 33.832 38.256 32.616 38C31.4 37.7653 30.3227 37.3707 29.384 36.816C28.4667 36.2613 27.7413 35.536 27.208 34.64C26.6747 33.7227 26.408 32.6027 26.408 31.28C26.408 31.1947 26.408 31.0987 26.408 30.992C26.408 30.8853 26.4187 30.8 26.44 30.736H31.976C31.976 30.8 31.9653 30.8853 31.944 30.992C31.944 31.0773 31.944 31.152 31.944 31.216C31.944 31.8987 32.1147 32.4533 32.456 32.88C32.8187 33.2853 33.32 33.584 33.96 33.776C34.6 33.9467 35.3467 34.032 36.2 34.032C36.6693 34.032 37.1067 34.0107 37.512 33.968C37.9173 33.9253 38.28 33.8507 38.6 33.744C38.92 33.6373 39.1973 33.5093 39.432 33.36C39.688 33.1893 39.8693 32.9973 39.976 32.784C40.104 32.5493 40.168 32.2827 40.168 31.984C40.168 31.4933 39.976 31.088 39.592 30.768C39.2293 30.448 38.728 30.1813 38.088 29.968C37.4693 29.7547 36.7653 29.552 35.976 29.36C35.1867 29.168 34.3653 28.9653 33.512 28.752C32.6587 28.5387 31.8373 28.272 31.048 27.952C30.2587 27.632 29.544 27.2267 28.904 26.736C28.2853 26.2453 27.784 25.6373 27.4 24.912C27.0373 24.1653 26.856 23.2693 26.856 22.224C26.856 21.072 27.1013 20.08 27.592 19.248C28.0827 18.3947 28.7547 17.7013 29.608 17.168C30.4827 16.6347 31.4853 16.2507 32.616 16.016C33.7467 15.76 34.952 15.632 36.232 15.632C37.4907 15.632 38.664 15.76 39.752 16.016C40.8613 16.272 41.8427 16.6773 42.696 17.232C43.5493 17.7653 44.2107 18.448 44.68 19.28C45.1707 20.0907 45.4267 21.072 45.448 22.224V22.608H39.944V22.384C39.944 21.8933 39.8053 21.4667 39.528 21.104C39.272 20.72 38.8773 20.4213 38.344 20.208C37.8107 19.9733 37.1493 19.856 36.36 19.856C35.5707 19.856 34.8987 19.9307 34.344 20.08C33.8107 20.2293 33.3947 20.4427 33.096 20.72C32.8187 20.9973 32.68 21.328 32.68 21.712C32.68 22.1813 32.8613 22.5653 33.224 22.864C33.608 23.1627 34.12 23.4187 34.76 23.632C35.4 23.8453 36.1147 24.048 36.904 24.24C37.6933 24.4107 38.504 24.6027 39.336 24.816C40.1893 25.008 41.0107 25.264 41.8 25.584C42.5893 25.8827 43.304 26.2773 43.944 26.768C44.584 27.2373 45.0853 27.824 45.448 28.528C45.832 29.232 46.024 30.0853 46.024 31.088C46.024 32.8373 45.608 34.2453 44.776 35.312C43.9653 36.3787 42.8347 37.1573 41.384 37.648C39.9547 38.1387 38.3333 38.384 36.52 38.384ZM59.8245 38.384C57.4565 38.384 55.4405 37.9787 53.7765 37.168C52.1338 36.336 50.8858 35.0773 50.0325 33.392C49.1792 31.7067 48.7525 29.5733 48.7525 26.992C48.7525 23.1947 49.7018 20.3573 51.6005 18.48C53.5205 16.5813 56.2618 15.632 59.8245 15.632C61.8085 15.632 63.5685 15.9733 65.1045 16.656C66.6405 17.3173 67.8352 18.32 68.6885 19.664C69.5632 20.9867 70.0005 22.64 70.0005 24.624H64.4005C64.4005 23.6853 64.2085 22.8853 63.8245 22.224C63.4618 21.5413 62.9392 21.0187 62.2565 20.656C61.5952 20.2933 60.7845 20.112 59.8245 20.112C58.6298 20.112 57.6485 20.3573 56.8805 20.848C56.1125 21.3387 55.5472 22.0427 55.1845 22.96C54.8218 23.8773 54.6405 24.9867 54.6405 26.288V27.728C54.6405 29.0293 54.8218 30.1493 55.1845 31.088C55.5472 32.0053 56.1018 32.7093 56.8485 33.2C57.6165 33.6693 58.5978 33.904 59.7925 33.904C60.8165 33.904 61.6805 33.7333 62.3845 33.392C63.1098 33.0507 63.6538 32.5493 64.0165 31.888C64.4005 31.2053 64.5925 30.3947 64.5925 29.456H70.0005C70.0005 31.44 69.5738 33.0933 68.7205 34.416C67.8885 35.7387 66.7045 36.7307 65.1685 37.392C63.6538 38.0533 61.8725 38.384 59.8245 38.384ZM73.775 38V16.016H79.503V33.296H90.671V38H73.775Z" fill="white"/>
<rect y="95" width="120" height="55" rx="27.5" fill="black"/>
<path d="M36.52 133.384C35.1333 133.384 33.832 133.256 32.616 133C31.4 132.765 30.3227 132.371 29.384 131.816C28.4667 131.261 27.7413 130.536 27.208 129.64C26.6747 128.723 26.408 127.603 26.408 126.28C26.408 126.195 26.408 126.099 26.408 125.992C26.408 125.885 26.4187 125.8 26.44 125.736H31.976C31.976 125.8 31.9653 125.885 31.944 125.992C31.944 126.077 31.944 126.152 31.944 126.216C31.944 126.899 32.1147 127.453 32.456 127.88C32.8187 128.285 33.32 128.584 33.96 128.776C34.6 128.947 35.3467 129.032 36.2 129.032C36.6693 129.032 37.1067 129.011 37.512 128.968C37.9173 128.925 38.28 128.851 38.6 128.744C38.92 128.637 39.1973 128.509 39.432 128.36C39.688 128.189 39.8693 127.997 39.976 127.784C40.104 127.549 40.168 127.283 40.168 126.984C40.168 126.493 39.976 126.088 39.592 125.768C39.2293 125.448 38.728 125.181 38.088 124.968C37.4693 124.755 36.7653 124.552 35.976 124.36C35.1867 124.168 34.3653 123.965 33.512 123.752C32.6587 123.539 31.8373 123.272 31.048 122.952C30.2587 122.632 29.544 122.227 28.904 121.736C28.2853 121.245 27.784 120.637 27.4 119.912C27.0373 119.165 26.856 118.269 26.856 117.224C26.856 116.072 27.1013 115.08 27.592 114.248C28.0827 113.395 28.7547 112.701 29.608 112.168C30.4827 111.635 31.4853 111.251 32.616 111.016C33.7467 110.76 34.952 110.632 36.232 110.632C37.4907 110.632 38.664 110.76 39.752 111.016C40.8613 111.272 41.8427 111.677 42.696 112.232C43.5493 112.765 44.2107 113.448 44.68 114.28C45.1707 115.091 45.4267 116.072 45.448 117.224V117.608H39.944V117.384C39.944 116.893 39.8053 116.467 39.528 116.104C39.272 115.72 38.8773 115.421 38.344 115.208C37.8107 114.973 37.1493 114.856 36.36 114.856C35.5707 114.856 34.8987 114.931 34.344 115.08C33.8107 115.229 33.3947 115.443 33.096 115.72C32.8187 115.997 32.68 116.328 32.68 116.712C32.68 117.181 32.8613 117.565 33.224 117.864C33.608 118.163 34.12 118.419 34.76 118.632C35.4 118.845 36.1147 119.048 36.904 119.24C37.6933 119.411 38.504 119.603 39.336 119.816C40.1893 120.008 41.0107 120.264 41.8 120.584C42.5893 120.883 43.304 121.277 43.944 121.768C44.584 122.237 45.0853 122.824 45.448 123.528C45.832 124.232 46.024 125.085 46.024 126.088C46.024 127.837 45.608 129.245 44.776 130.312C43.9653 131.379 42.8347 132.157 41.384 132.648C39.9547 133.139 38.3333 133.384 36.52 133.384ZM49.7125 133V111.016H58.8965C61.2858 111.016 63.3018 111.411 64.9445 112.2C66.6085 112.989 67.8672 114.195 68.7205 115.816C69.5952 117.416 70.0325 119.475 70.0325 121.992C70.0325 124.488 69.5952 126.557 68.7205 128.2C67.8672 129.821 66.6085 131.027 64.9445 131.816C63.3018 132.605 61.2858 133 58.8965 133H49.7125ZM55.4405 128.52H58.8325C59.7285 128.52 60.5072 128.392 61.1685 128.136C61.8298 127.88 62.3845 127.507 62.8325 127.016C63.2805 126.525 63.6112 125.917 63.8245 125.192C64.0378 124.467 64.1445 123.635 64.1445 122.696V121.352C64.1445 120.392 64.0378 119.549 63.8245 118.824C63.6112 118.099 63.2805 117.491 62.8325 117C62.3845 116.509 61.8298 116.136 61.1685 115.88C60.5072 115.624 59.7285 115.496 58.8325 115.496H55.4405V128.52ZM71.1623 133L79.4183 111.016H86.2983L94.5543 133H88.4423L87.1303 129.192H78.3623L77.0503 133H71.1623ZM79.7383 124.904H85.7223L84.1543 120.264C84.0689 120.029 83.9623 119.741 83.8343 119.4C83.7276 119.037 83.6103 118.664 83.4823 118.28C83.3756 117.875 83.2689 117.469 83.1623 117.064C83.0556 116.659 82.9489 116.307 82.8423 116.008H82.6183C82.5329 116.413 82.4049 116.872 82.2343 117.384C82.0849 117.896 81.9249 118.408 81.7543 118.92C81.6049 119.432 81.4663 119.88 81.3383 120.264L79.7383 124.904Z" fill="white"/>
<rect y="190" width="126" height="55" rx="27.5" fill="black"/>
<path d="M37.416 228.384C33.8747 228.384 31.176 227.445 29.32 225.568C27.4853 223.691 26.568 220.832 26.568 216.992C26.568 214.453 27.016 212.352 27.912 210.688C28.8293 209.003 30.152 207.744 31.88 206.912C33.6293 206.059 35.7307 205.632 38.184 205.632C39.656 205.632 41.0427 205.803 42.344 206.144C43.6453 206.485 44.7973 206.997 45.8 207.68C46.8027 208.341 47.5813 209.184 48.136 210.208C48.6907 211.211 48.968 212.395 48.968 213.76H43.336C43.336 213.184 43.208 212.672 42.952 212.224C42.696 211.755 42.3333 211.371 41.864 211.072C41.416 210.752 40.8933 210.517 40.296 210.368C39.6987 210.197 39.0693 210.112 38.408 210.112C37.4267 210.112 36.552 210.24 35.784 210.496C35.0373 210.752 34.4187 211.147 33.928 211.68C33.4373 212.213 33.064 212.864 32.808 213.632C32.5733 214.4 32.456 215.296 32.456 216.32V217.728C32.456 219.093 32.6693 220.235 33.096 221.152C33.5227 222.069 34.1627 222.763 35.016 223.232C35.8907 223.68 36.9573 223.904 38.216 223.904C39.1973 223.904 40.072 223.755 40.84 223.456C41.6293 223.157 42.248 222.731 42.696 222.176C43.1653 221.6 43.4 220.917 43.4 220.128V219.968H37.48V215.936H48.968V228H45.64L45.096 225.696C44.4347 226.293 43.72 226.795 42.952 227.2C42.2053 227.605 41.3733 227.904 40.456 228.096C39.56 228.288 38.5467 228.384 37.416 228.384ZM53.4938 228V206.016H58.5818L66.5818 216.224C66.7311 216.395 66.9231 216.64 67.1578 216.96C67.4138 217.28 67.6591 217.611 67.8938 217.952C68.1284 218.272 68.2991 218.528 68.4058 218.72L68.5658 218.688C68.5658 218.219 68.5658 217.771 68.5658 217.344C68.5658 216.896 68.5658 216.523 68.5658 216.224V206.016H73.8778V228H68.8218L60.3418 217.248C60.0644 216.907 59.7978 216.555 59.5417 216.192C59.3071 215.829 59.1151 215.531 58.9658 215.296L58.8058 215.328C58.8058 215.669 58.8058 216.021 58.8058 216.384C58.8058 216.725 58.8058 217.013 58.8058 217.248V228H53.4938ZM78.6813 228V206.016H87.8653C90.2546 206.016 92.2706 206.411 93.9132 207.2C95.5773 207.989 96.8359 209.195 97.6893 210.816C98.5639 212.416 99.0013 214.475 99.0013 216.992C99.0013 219.488 98.5639 221.557 97.6893 223.2C96.8359 224.821 95.5773 226.027 93.9132 226.816C92.2706 227.605 90.2546 228 87.8653 228H78.6813ZM84.4093 223.52H87.8013C88.6973 223.52 89.4759 223.392 90.1373 223.136C90.7986 222.88 91.3533 222.507 91.8013 222.016C92.2493 221.525 92.5799 220.917 92.7933 220.192C93.0066 219.467 93.1133 218.635 93.1133 217.696V216.352C93.1133 215.392 93.0066 214.549 92.7933 213.824C92.5799 213.099 92.2493 212.491 91.8013 212C91.3533 211.509 90.7986 211.136 90.1373 210.88C89.4759 210.624 88.6973 210.496 87.8013 210.496H84.4093V223.52Z" fill="white"/>
<rect y="285" width="114" height="55" rx="27.5" fill="black"/>
<path d="M35.048 323.384C33.128 323.384 31.5173 323.107 30.216 322.552C28.936 321.976 27.976 321.208 27.336 320.248C26.696 319.267 26.376 318.157 26.376 316.92V316.344H31.24V316.952C31.24 317.741 31.5387 318.371 32.136 318.84C32.7333 319.309 33.6187 319.544 34.792 319.544C35.9653 319.544 36.84 319.277 37.416 318.744C37.992 318.189 38.28 317.411 38.28 316.408C38.28 315.704 38.1413 315.149 37.864 314.744C37.5867 314.339 37.2133 314.051 36.744 313.88C36.296 313.688 35.7947 313.592 35.24 313.592H33.16V310.008H35.016C35.5493 310.008 36.0187 309.912 36.424 309.72C36.8507 309.507 37.1813 309.197 37.416 308.792C37.672 308.387 37.8 307.875 37.8 307.256C37.8 306.68 37.6827 306.189 37.448 305.784C37.2133 305.357 36.8613 305.037 36.392 304.824C35.944 304.589 35.4107 304.472 34.792 304.472C34.216 304.472 33.6827 304.579 33.192 304.792C32.7227 305.005 32.3493 305.304 32.072 305.688C31.816 306.072 31.688 306.52 31.688 307.032V307.448H26.984V306.648C26.984 305.496 27.304 304.472 27.944 303.576C28.6053 302.659 29.544 301.944 30.76 301.432C31.976 300.899 33.416 300.632 35.08 300.632C36.7227 300.632 38.1413 300.888 39.336 301.4C40.5307 301.891 41.448 302.595 42.088 303.512C42.728 304.408 43.048 305.443 43.048 306.616C43.048 307.405 42.8987 308.131 42.6 308.792C42.3227 309.432 41.928 309.976 41.416 310.424C40.9253 310.872 40.3493 311.235 39.688 311.512V311.64C40.8827 312.003 41.832 312.653 42.536 313.592C43.24 314.509 43.592 315.661 43.592 317.048C43.5707 318.285 43.2293 319.384 42.568 320.344C41.9067 321.283 40.9467 322.029 39.688 322.584C38.4293 323.117 36.8827 323.384 35.048 323.384ZM53.352 323L45.448 301.016H51.592L55.624 313.432C55.7093 313.688 55.816 314.029 55.944 314.456C56.072 314.861 56.2 315.288 56.328 315.736C56.4773 316.163 56.5947 316.547 56.68 316.888H56.904C57.0107 316.568 57.1173 316.205 57.224 315.8C57.352 315.373 57.48 314.957 57.608 314.552C57.736 314.125 57.8427 313.763 57.928 313.464L61.96 301.016H67.88L60.008 323H53.352ZM78.3605 323.384C76.4405 323.384 74.8298 323.107 73.5285 322.552C72.2485 321.976 71.2885 321.208 70.6485 320.248C70.0085 319.267 69.6885 318.157 69.6885 316.92V316.344H74.5525V316.952C74.5525 317.741 74.8512 318.371 75.4485 318.84C76.0458 319.309 76.9312 319.544 78.1045 319.544C79.2778 319.544 80.1525 319.277 80.7285 318.744C81.3045 318.189 81.5925 317.411 81.5925 316.408C81.5925 315.704 81.4538 315.149 81.1765 314.744C80.8992 314.339 80.5258 314.051 80.0565 313.88C79.6085 313.688 79.1072 313.592 78.5525 313.592H76.4725V310.008H78.3285C78.8618 310.008 79.3312 309.912 79.7365 309.72C80.1632 309.507 80.4938 309.197 80.7285 308.792C80.9845 308.387 81.1125 307.875 81.1125 307.256C81.1125 306.68 80.9952 306.189 80.7605 305.784C80.5258 305.357 80.1738 305.037 79.7045 304.824C79.2565 304.589 78.7232 304.472 78.1045 304.472C77.5285 304.472 76.9952 304.579 76.5045 304.792C76.0352 305.005 75.6618 305.304 75.3845 305.688C75.1285 306.072 75.0005 306.52 75.0005 307.032V307.448H70.2965V306.648C70.2965 305.496 70.6165 304.472 71.2565 303.576C71.9178 302.659 72.8565 301.944 74.0725 301.432C75.2885 300.899 76.7285 300.632 78.3925 300.632C80.0352 300.632 81.4538 300.888 82.6485 301.4C83.8432 301.891 84.7605 302.595 85.4005 303.512C86.0405 304.408 86.3605 305.443 86.3605 306.616C86.3605 307.405 86.2112 308.131 85.9125 308.792C85.6352 309.432 85.2405 309.976 84.7285 310.424C84.2378 310.872 83.6618 311.235 83.0005 311.512V311.64C84.1952 312.003 85.1445 312.653 85.8485 313.592C86.5525 314.509 86.9045 315.661 86.9045 317.048C86.8832 318.285 86.5418 319.384 85.8805 320.344C85.2192 321.283 84.2592 322.029 83.0005 322.584C81.7418 323.117 80.1952 323.384 78.3605 323.384Z" fill="white"/>
</svg>
