<svg width="161" height="245" viewBox="0 0 161 245" fill="none" xmlns="http://www.w3.org/2000/svg">
<rect x="47" width="114" height="55" rx="27.5" fill="black"/>
<path d="M82.048 38.384C80.128 38.384 78.5173 38.1067 77.216 37.552C75.936 36.976 74.976 36.208 74.336 35.248C73.696 34.2667 73.376 33.1573 73.376 31.92V31.344H78.24V31.952C78.24 32.7413 78.5387 33.3707 79.136 33.84C79.7333 34.3093 80.6187 34.544 81.792 34.544C82.9653 34.544 83.84 34.2773 84.416 33.744C84.992 33.1893 85.28 32.4107 85.28 31.408C85.28 30.704 85.1413 30.1493 84.864 29.744C84.5867 29.3387 84.2133 29.0507 83.744 28.88C83.296 28.688 82.7947 28.592 82.24 28.592H80.16V25.008H82.016C82.5493 25.008 83.0187 24.912 83.424 24.72C83.8507 24.5067 84.1813 24.1973 84.416 23.792C84.672 23.3867 84.8 22.8747 84.8 22.256C84.8 21.68 84.6827 21.1893 84.448 20.784C84.2133 20.3573 83.8613 20.0373 83.392 19.824C82.944 19.5893 82.4107 19.472 81.792 19.472C81.216 19.472 80.6827 19.5787 80.192 19.792C79.7227 20.0053 79.3493 20.304 79.072 20.688C78.816 21.072 78.688 21.52 78.688 22.032V22.448H73.984V21.648C73.984 20.496 74.304 19.472 74.944 18.576C75.6053 17.6587 76.544 16.944 77.76 16.432C78.976 15.8987 80.416 15.632 82.08 15.632C83.7227 15.632 85.1413 15.888 86.336 16.4C87.5307 16.8907 88.448 17.5947 89.088 18.512C89.728 19.408 90.048 20.4427 90.048 21.616C90.048 22.4053 89.8987 23.1307 89.6 23.792C89.3227 24.432 88.928 24.976 88.416 25.424C87.9253 25.872 87.3493 26.2347 86.688 26.512V26.64C87.8827 27.0027 88.832 27.6533 89.536 28.592C90.24 29.5093 90.592 30.6613 90.592 32.048C90.5707 33.2853 90.2293 34.384 89.568 35.344C88.9067 36.2827 87.9467 37.0293 86.688 37.584C85.4293 38.1173 83.8827 38.384 82.048 38.384ZM100.352 38L92.448 16.016H98.592L102.624 28.432C102.709 28.688 102.816 29.0293 102.944 29.456C103.072 29.8613 103.2 30.288 103.328 30.736C103.477 31.1627 103.595 31.5467 103.68 31.888H103.904C104.011 31.568 104.117 31.2053 104.224 30.8C104.352 30.3733 104.48 29.9573 104.608 29.552C104.736 29.1253 104.843 28.7627 104.928 28.464L108.96 16.016H114.88L107.008 38H100.352ZM125.361 38.384C123.441 38.384 121.83 38.1067 120.529 37.552C119.249 36.976 118.289 36.208 117.649 35.248C117.009 34.2667 116.689 33.1573 116.689 31.92V31.344H121.553V31.952C121.553 32.7413 121.851 33.3707 122.449 33.84C123.046 34.3093 123.931 34.544 125.105 34.544C126.278 34.544 127.153 34.2773 127.729 33.744C128.305 33.1893 128.593 32.4107 128.593 31.408C128.593 30.704 128.454 30.1493 128.177 29.744C127.899 29.3387 127.526 29.0507 127.057 28.88C126.609 28.688 126.107 28.592 125.553 28.592H123.473V25.008H125.329C125.862 25.008 126.331 24.912 126.737 24.72C127.163 24.5067 127.494 24.1973 127.729 23.792C127.985 23.3867 128.113 22.8747 128.113 22.256C128.113 21.68 127.995 21.1893 127.761 20.784C127.526 20.3573 127.174 20.0373 126.705 19.824C126.257 19.5893 125.723 19.472 125.105 19.472C124.529 19.472 123.995 19.5787 123.505 19.792C123.035 20.0053 122.662 20.304 122.385 20.688C122.129 21.072 122.001 21.52 122.001 22.032V22.448H117.297V21.648C117.297 20.496 117.617 19.472 118.257 18.576C118.918 17.6587 119.857 16.944 121.073 16.432C122.289 15.8987 123.729 15.632 125.393 15.632C127.035 15.632 128.454 15.888 129.649 16.4C130.843 16.8907 131.761 17.5947 132.401 18.512C133.041 19.408 133.361 20.4427 133.361 21.616C133.361 22.4053 133.211 23.1307 132.913 23.792C132.635 24.432 132.241 24.976 131.729 25.424C131.238 25.872 130.662 26.2347 130.001 26.512V26.64C131.195 27.0027 132.145 27.6533 132.849 28.592C133.553 29.5093 133.905 30.6613 133.905 32.048C133.883 33.2853 133.542 34.384 132.881 35.344C132.219 36.2827 131.259 37.0293 130.001 37.584C128.742 38.1173 127.195 38.384 125.361 38.384Z" fill="white"/>
<rect y="95" width="161" height="55" rx="27.5" fill="black"/>
<path d="M27.4 133V111.016H33.128V133H27.4ZM37.9313 133V111.016H50.6993C52.3206 111.016 53.6753 111.325 54.7633 111.944C55.8513 112.541 56.6619 113.373 57.1953 114.44C57.7499 115.485 58.0273 116.659 58.0273 117.96C58.0273 119.368 57.6966 120.627 57.0353 121.736C56.3953 122.824 55.4886 123.677 54.3153 124.296L58.7313 133H52.3313L48.6833 125.256H43.6593V133H37.9313ZM43.6593 121H49.5793C50.3686 121 50.9979 120.744 51.4673 120.232C51.9579 119.699 52.2033 118.995 52.2033 118.12C52.2033 117.544 52.0966 117.053 51.8833 116.648C51.6699 116.243 51.3713 115.933 50.9873 115.72C50.6033 115.485 50.1339 115.368 49.5793 115.368H43.6593V121ZM59.5312 138.312V135.016H76.6193V138.312H59.5312ZM88.145 133.384C86.7583 133.384 85.457 133.256 84.241 133C83.025 132.765 81.9477 132.371 81.009 131.816C80.0917 131.261 79.3663 130.536 78.833 129.64C78.2997 128.723 78.033 127.603 78.033 126.28C78.033 126.195 78.033 126.099 78.033 125.992C78.033 125.885 78.0437 125.8 78.065 125.736H83.601C83.601 125.8 83.5903 125.885 83.569 125.992C83.569 126.077 83.569 126.152 83.569 126.216C83.569 126.899 83.7397 127.453 84.081 127.88C84.4437 128.285 84.945 128.584 85.585 128.776C86.225 128.947 86.9717 129.032 87.825 129.032C88.2943 129.032 88.7317 129.011 89.137 128.968C89.5423 128.925 89.905 128.851 90.225 128.744C90.545 128.637 90.8223 128.509 91.057 128.36C91.313 128.189 91.4943 127.997 91.601 127.784C91.729 127.549 91.793 127.283 91.793 126.984C91.793 126.493 91.601 126.088 91.217 125.768C90.8543 125.448 90.353 125.181 89.713 124.968C89.0943 124.755 88.3903 124.552 87.601 124.36C86.8117 124.168 85.9903 123.965 85.137 123.752C84.2837 123.539 83.4623 123.272 82.673 122.952C81.8837 122.632 81.169 122.227 80.529 121.736C79.9103 121.245 79.409 120.637 79.025 119.912C78.6623 119.165 78.481 118.269 78.481 117.224C78.481 116.072 78.7263 115.08 79.217 114.248C79.7077 113.395 80.3797 112.701 81.233 112.168C82.1077 111.635 83.1103 111.251 84.241 111.016C85.3717 110.76 86.577 110.632 87.857 110.632C89.1157 110.632 90.289 110.76 91.377 111.016C92.4863 111.272 93.4677 111.677 94.321 112.232C95.1743 112.765 95.8357 113.448 96.305 114.28C96.7957 115.091 97.0517 116.072 97.073 117.224V117.608H91.569V117.384C91.569 116.893 91.4303 116.467 91.153 116.104C90.897 115.72 90.5023 115.421 89.969 115.208C89.4357 114.973 88.7743 114.856 87.985 114.856C87.1957 114.856 86.5237 114.931 85.969 115.08C85.4357 115.229 85.0197 115.443 84.721 115.72C84.4437 115.997 84.305 116.328 84.305 116.712C84.305 117.181 84.4863 117.565 84.849 117.864C85.233 118.163 85.745 118.419 86.385 118.632C87.025 118.845 87.7397 119.048 88.529 119.24C89.3183 119.411 90.129 119.603 90.961 119.816C91.8143 120.008 92.6357 120.264 93.425 120.584C94.2143 120.883 94.929 121.277 95.569 121.768C96.209 122.237 96.7103 122.824 97.073 123.528C97.457 124.232 97.649 125.085 97.649 126.088C97.649 127.837 97.233 129.245 96.401 130.312C95.5903 131.379 94.4597 132.157 93.009 132.648C91.5797 133.139 89.9583 133.384 88.145 133.384ZM101.338 133V111.016H107.066V133H101.338ZM121.885 133.384C118.343 133.384 115.645 132.445 113.789 130.568C111.954 128.691 111.037 125.832 111.037 121.992C111.037 119.453 111.485 117.352 112.381 115.688C113.298 114.003 114.621 112.744 116.349 111.912C118.098 111.059 120.199 110.632 122.653 110.632C124.125 110.632 125.511 110.803 126.813 111.144C128.114 111.485 129.266 111.997 130.269 112.68C131.271 113.341 132.05 114.184 132.605 115.208C133.159 116.211 133.437 117.395 133.437 118.76H127.805C127.805 118.184 127.677 117.672 127.421 117.224C127.165 116.755 126.802 116.371 126.333 116.072C125.885 115.752 125.362 115.517 124.765 115.368C124.167 115.197 123.538 115.112 122.877 115.112C121.895 115.112 121.021 115.24 120.253 115.496C119.506 115.752 118.887 116.147 118.397 116.68C117.906 117.213 117.533 117.864 117.277 118.632C117.042 119.4 116.925 120.296 116.925 121.32V122.728C116.925 124.093 117.138 125.235 117.565 126.152C117.991 127.069 118.631 127.763 119.485 128.232C120.359 128.68 121.426 128.904 122.685 128.904C123.666 128.904 124.541 128.755 125.309 128.456C126.098 128.157 126.717 127.731 127.165 127.176C127.634 126.6 127.869 125.917 127.869 125.128V124.968H121.949V120.936H133.437V133H130.109L129.565 130.696C128.903 131.293 128.189 131.795 127.421 132.2C126.674 132.605 125.842 132.904 124.925 133.096C124.029 133.288 123.015 133.384 121.885 133.384Z" fill="white"/>
<rect x="35" y="190" width="126" height="55" rx="27.5" fill="black"/>
<path d="M72.416 228.384C68.8747 228.384 66.176 227.445 64.32 225.568C62.4853 223.691 61.568 220.832 61.568 216.992C61.568 214.453 62.016 212.352 62.912 210.688C63.8293 209.003 65.152 207.744 66.88 206.912C68.6293 206.059 70.7307 205.632 73.184 205.632C74.656 205.632 76.0427 205.803 77.344 206.144C78.6453 206.485 79.7973 206.997 80.8 207.68C81.8027 208.341 82.5813 209.184 83.136 210.208C83.6907 211.211 83.968 212.395 83.968 213.76H78.336C78.336 213.184 78.208 212.672 77.952 212.224C77.696 211.755 77.3333 211.371 76.864 211.072C76.416 210.752 75.8933 210.517 75.296 210.368C74.6987 210.197 74.0693 210.112 73.408 210.112C72.4267 210.112 71.552 210.24 70.784 210.496C70.0373 210.752 69.4187 211.147 68.928 211.68C68.4373 212.213 68.064 212.864 67.808 213.632C67.5733 214.4 67.456 215.296 67.456 216.32V217.728C67.456 219.093 67.6693 220.235 68.096 221.152C68.5227 222.069 69.1627 222.763 70.016 223.232C70.8907 223.68 71.9573 223.904 73.216 223.904C74.1973 223.904 75.072 223.755 75.84 223.456C76.6293 223.157 77.248 222.731 77.696 222.176C78.1653 221.6 78.4 220.917 78.4 220.128V219.968H72.48V215.936H83.968V228H80.64L80.096 225.696C79.4347 226.293 78.72 226.795 77.952 227.2C77.2053 227.605 76.3733 227.904 75.456 228.096C74.56 228.288 73.5467 228.384 72.416 228.384ZM88.4938 228V206.016H93.5818L101.582 216.224C101.731 216.395 101.923 216.64 102.158 216.96C102.414 217.28 102.659 217.611 102.894 217.952C103.128 218.272 103.299 218.528 103.406 218.72L103.566 218.688C103.566 218.219 103.566 217.771 103.566 217.344C103.566 216.896 103.566 216.523 103.566 216.224V206.016H108.878V228H103.822L95.3418 217.248C95.0644 216.907 94.7978 216.555 94.5417 216.192C94.3071 215.829 94.1151 215.531 93.9658 215.296L93.8058 215.328C93.8058 215.669 93.8058 216.021 93.8058 216.384C93.8058 216.725 93.8058 217.013 93.8058 217.248V228H88.4938ZM113.681 228V206.016H122.865C125.255 206.016 127.271 206.411 128.913 207.2C130.577 207.989 131.836 209.195 132.689 210.816C133.564 212.416 134.001 214.475 134.001 216.992C134.001 219.488 133.564 221.557 132.689 223.2C131.836 224.821 130.577 226.027 128.913 226.816C127.271 227.605 125.255 228 122.865 228H113.681ZM119.409 223.52H122.801C123.697 223.52 124.476 223.392 125.137 223.136C125.799 222.88 126.353 222.507 126.801 222.016C127.249 221.525 127.58 220.917 127.793 220.192C128.007 219.467 128.113 218.635 128.113 217.696V216.352C128.113 215.392 128.007 214.549 127.793 213.824C127.58 213.099 127.249 212.491 126.801 212C126.353 211.509 125.799 211.136 125.137 210.88C124.476 210.624 123.697 210.496 122.801 210.496H119.409V223.52Z" fill="white"/>
</svg>
