<svg width="160" height="245" viewBox="0 0 160 245" fill="none" xmlns="http://www.w3.org/2000/svg">
<rect width="160" height="55" rx="27.5" fill="black"/>
<path d="M33.512 38V31.536H27.336V27.824H33.512V21.36H37.224V27.824H43.432V31.536H37.224V38H33.512ZM48.1813 38V16.016H61.6213C62.7519 16.016 63.7759 16.24 64.6933 16.688C65.6106 17.136 66.3359 17.7653 66.8693 18.576C67.4239 19.3867 67.7013 20.336 67.7013 21.424C67.7013 22.384 67.5306 23.2053 67.1893 23.888C66.8693 24.5707 66.4319 25.1253 65.8773 25.552C65.3439 25.9787 64.7359 26.2987 64.0533 26.512V26.64C64.8426 26.8107 65.5573 27.12 66.1973 27.568C66.8373 27.9947 67.3386 28.5813 67.7013 29.328C68.0853 30.0747 68.2773 30.9813 68.2773 32.048C68.2773 33.3067 67.9786 34.384 67.3813 35.28C66.7839 36.1547 65.9946 36.8267 65.0133 37.296C64.0319 37.7653 62.9333 38 61.7173 38H48.1813ZM53.9093 33.584H60.1493C60.8319 33.584 61.3759 33.3813 61.7812 32.976C62.2079 32.5707 62.4213 31.952 62.4213 31.12C62.4213 30.672 62.3253 30.2773 62.1333 29.936C61.9626 29.5733 61.6959 29.296 61.3333 29.104C60.9919 28.912 60.5653 28.816 60.0533 28.816H53.9093V33.584ZM53.9093 24.752H59.6373C60.1066 24.752 60.5013 24.656 60.8213 24.464C61.1626 24.272 61.4186 24.0053 61.5893 23.664C61.7813 23.3227 61.8773 22.9173 61.8773 22.448C61.8773 21.7653 61.6746 21.232 61.2693 20.848C60.8639 20.464 60.3519 20.272 59.7333 20.272H53.9093V24.752ZM69.881 38L78.137 16.016H85.017L93.273 38H87.161L85.849 34.192H77.081L75.769 38H69.881ZM78.457 29.904H84.441L82.873 25.264C82.7877 25.0293 82.681 24.7413 82.553 24.4C82.4463 24.0373 82.329 23.664 82.201 23.28C82.0943 22.8747 81.9877 22.4693 81.881 22.064C81.7743 21.6587 81.6677 21.3067 81.561 21.008H81.337C81.2517 21.4133 81.1237 21.872 80.953 22.384C80.8037 22.896 80.6437 23.408 80.473 23.92C80.3237 24.432 80.185 24.88 80.057 25.264L78.457 29.904ZM98.779 38V20.72H91.643V16.016H111.643V20.72H104.507V38H98.779ZM120.373 38V20.72H113.237V16.016H133.237V20.72H126.101V38H120.373Z" fill="white"/>
<rect x="4" y="95" width="156" height="55" rx="27.5" fill="black"/>
<path d="M31.4 133V111.016H37.128V128.296H48.296V133H31.4ZM51.4015 133V111.016H69.5455V115.496H57.1295V119.624H67.9775V124.008H57.1295V128.52H69.7695V133H51.4015ZM73.7125 133V111.016H82.8965C85.2858 111.016 87.3018 111.411 88.9445 112.2C90.6085 112.989 91.8672 114.195 92.7205 115.816C93.5952 117.416 94.0325 119.475 94.0325 121.992C94.0325 124.488 93.5952 126.557 92.7205 128.2C91.8672 129.821 90.6085 131.027 88.9445 131.816C87.3018 132.605 85.2858 133 82.8965 133H73.7125ZM79.4405 128.52H82.8325C83.7285 128.52 84.5072 128.392 85.1685 128.136C85.8298 127.88 86.3845 127.507 86.8325 127.016C87.2805 126.525 87.6112 125.917 87.8245 125.192C88.0378 124.467 88.1445 123.635 88.1445 122.696V121.352C88.1445 120.392 88.0378 119.549 87.8245 118.824C87.6112 118.099 87.2805 117.491 86.8325 117C86.3845 116.509 85.8298 116.136 85.1685 115.88C84.5072 115.624 83.7285 115.496 82.8325 115.496H79.4405V128.52ZM95.4688 138.312V135.016H112.557V138.312H95.4688ZM124.083 133.384C122.696 133.384 121.395 133.256 120.179 133C118.963 132.765 117.885 132.371 116.947 131.816C116.029 131.261 115.304 130.536 114.771 129.64C114.237 128.723 113.971 127.603 113.971 126.28C113.971 126.195 113.971 126.099 113.971 125.992C113.971 125.885 113.981 125.8 114.003 125.736H119.539C119.539 125.8 119.528 125.885 119.507 125.992C119.507 126.077 119.507 126.152 119.507 126.216C119.507 126.899 119.677 127.453 120.019 127.88C120.381 128.285 120.883 128.584 121.523 128.776C122.163 128.947 122.909 129.032 123.763 129.032C124.232 129.032 124.669 129.011 125.075 128.968C125.48 128.925 125.843 128.851 126.163 128.744C126.483 128.637 126.76 128.509 126.995 128.36C127.251 128.189 127.432 127.997 127.539 127.784C127.667 127.549 127.731 127.283 127.731 126.984C127.731 126.493 127.539 126.088 127.155 125.768C126.792 125.448 126.291 125.181 125.651 124.968C125.032 124.755 124.328 124.552 123.539 124.36C122.749 124.168 121.928 123.965 121.075 123.752C120.221 123.539 119.4 123.272 118.611 122.952C117.821 122.632 117.107 122.227 116.467 121.736C115.848 121.245 115.347 120.637 114.963 119.912C114.6 119.165 114.419 118.269 114.419 117.224C114.419 116.072 114.664 115.08 115.155 114.248C115.645 113.395 116.317 112.701 117.171 112.168C118.045 111.635 119.048 111.251 120.179 111.016C121.309 110.76 122.515 110.632 123.795 110.632C125.053 110.632 126.227 110.76 127.315 111.016C128.424 111.272 129.405 111.677 130.259 112.232C131.112 112.765 131.773 113.448 132.243 114.28C132.733 115.091 132.989 116.072 133.011 117.224V117.608H127.507V117.384C127.507 116.893 127.368 116.467 127.091 116.104C126.835 115.72 126.44 115.421 125.907 115.208C125.373 114.973 124.712 114.856 123.923 114.856C123.133 114.856 122.461 114.931 121.907 115.08C121.373 115.229 120.957 115.443 120.659 115.72C120.381 115.997 120.243 116.328 120.243 116.712C120.243 117.181 120.424 117.565 120.786 117.864C121.171 118.163 121.683 118.419 122.323 118.632C122.963 118.845 123.677 119.048 124.467 119.24C125.256 119.411 126.067 119.603 126.899 119.816C127.752 120.008 128.573 120.264 129.363 120.584C130.152 120.883 130.867 121.277 131.507 121.768C132.147 122.237 132.648 122.824 133.011 123.528C133.395 124.232 133.587 125.085 133.587 126.088C133.587 127.837 133.171 129.245 132.339 130.312C131.528 131.379 130.397 132.157 128.947 132.648C127.517 133.139 125.896 133.384 124.083 133.384Z" fill="white"/>
<rect x="34" y="190" width="126" height="55" rx="27.5" fill="black"/>
<path d="M71.416 228.384C67.8747 228.384 65.176 227.445 63.32 225.568C61.4853 223.691 60.568 220.832 60.568 216.992C60.568 214.453 61.016 212.352 61.912 210.688C62.8293 209.003 64.152 207.744 65.88 206.912C67.6293 206.059 69.7307 205.632 72.184 205.632C73.656 205.632 75.0427 205.803 76.344 206.144C77.6453 206.485 78.7973 206.997 79.8 207.68C80.8027 208.341 81.5813 209.184 82.136 210.208C82.6907 211.211 82.968 212.395 82.968 213.76H77.336C77.336 213.184 77.208 212.672 76.952 212.224C76.696 211.755 76.3333 211.371 75.864 211.072C75.416 210.752 74.8933 210.517 74.296 210.368C73.6987 210.197 73.0693 210.112 72.408 210.112C71.4267 210.112 70.552 210.24 69.784 210.496C69.0373 210.752 68.4187 211.147 67.928 211.68C67.4373 212.213 67.064 212.864 66.808 213.632C66.5733 214.4 66.456 215.296 66.456 216.32V217.728C66.456 219.093 66.6693 220.235 67.096 221.152C67.5227 222.069 68.1627 222.763 69.016 223.232C69.8907 223.68 70.9573 223.904 72.216 223.904C73.1973 223.904 74.072 223.755 74.84 223.456C75.6293 223.157 76.248 222.731 76.696 222.176C77.1653 221.6 77.4 220.917 77.4 220.128V219.968H71.48V215.936H82.968V228H79.64L79.096 225.696C78.4347 226.293 77.72 226.795 76.952 227.2C76.2053 227.605 75.3733 227.904 74.456 228.096C73.56 228.288 72.5467 228.384 71.416 228.384ZM87.4938 228V206.016H92.5818L100.582 216.224C100.731 216.395 100.923 216.64 101.158 216.96C101.414 217.28 101.659 217.611 101.894 217.952C102.128 218.272 102.299 218.528 102.406 218.72L102.566 218.688C102.566 218.219 102.566 217.771 102.566 217.344C102.566 216.896 102.566 216.523 102.566 216.224V206.016H107.878V228H102.822L94.3418 217.248C94.0644 216.907 93.7978 216.555 93.5417 216.192C93.3071 215.829 93.1151 215.531 92.9658 215.296L92.8058 215.328C92.8058 215.669 92.8058 216.021 92.8058 216.384C92.8058 216.725 92.8058 217.013 92.8058 217.248V228H87.4938ZM112.681 228V206.016H121.865C124.255 206.016 126.271 206.411 127.913 207.2C129.577 207.989 130.836 209.195 131.689 210.816C132.564 212.416 133.001 214.475 133.001 216.992C133.001 219.488 132.564 221.557 131.689 223.2C130.836 224.821 129.577 226.027 127.913 226.816C126.271 227.605 124.255 228 121.865 228H112.681ZM118.409 223.52H121.801C122.697 223.52 123.476 223.392 124.137 223.136C124.799 222.88 125.353 222.507 125.801 222.016C126.249 221.525 126.58 220.917 126.793 220.192C127.007 219.467 127.113 218.635 127.113 217.696V216.352C127.113 215.392 127.007 214.549 126.793 213.824C126.58 213.099 126.249 212.491 125.801 212C125.353 211.509 124.799 211.136 124.137 210.88C123.476 210.624 122.697 210.496 121.801 210.496H118.409V223.52Z" fill="white"/>
</svg>
