<svg width="159" height="720" viewBox="0 0 159 720" fill="none" xmlns="http://www.w3.org/2000/svg">
<rect width="159" height="55" rx="27.5" fill="black"/>
<path d="M37.512 38.384C35.144 38.384 33.128 37.9787 31.464 37.168C29.8213 36.336 28.5733 35.0773 27.72 33.392C26.8667 31.7067 26.44 29.5733 26.44 26.992C26.44 23.1947 27.3893 20.3573 29.288 18.48C31.208 16.5813 33.9493 15.632 37.512 15.632C39.496 15.632 41.256 15.9733 42.792 16.656C44.328 17.3173 45.5227 18.32 46.376 19.664C47.2507 20.9867 47.688 22.64 47.688 24.624H42.088C42.088 23.6853 41.896 22.8853 41.512 22.224C41.1493 21.5413 40.6267 21.0187 39.944 20.656C39.2827 20.2933 38.472 20.112 37.512 20.112C36.3173 20.112 35.336 20.3573 34.568 20.848C33.8 21.3387 33.2347 22.0427 32.872 22.96C32.5093 23.8773 32.328 24.9867 32.328 26.288V27.728C32.328 29.0293 32.5093 30.1493 32.872 31.088C33.2347 32.0053 33.7893 32.7093 34.536 33.2C35.304 33.6693 36.2853 33.904 37.48 33.904C38.504 33.904 39.368 33.7333 40.072 33.392C40.7973 33.0507 41.3413 32.5493 41.704 31.888C42.088 31.2053 42.28 30.3947 42.28 29.456H47.688C47.688 31.44 47.2613 33.0933 46.408 34.416C45.576 35.7387 44.392 36.7307 42.856 37.392C41.3413 38.0533 39.56 38.384 37.512 38.384ZM62.0225 38.384C59.6118 38.384 57.5425 37.968 55.8145 37.136C54.1078 36.2827 52.7958 35.0133 51.8785 33.328C50.9612 31.6427 50.5025 29.5307 50.5025 26.992C50.5025 24.4533 50.9612 22.352 51.8785 20.688C52.7958 19.0027 54.1078 17.744 55.8145 16.912C57.5425 16.0587 59.6118 15.632 62.0225 15.632C64.4332 15.632 66.4918 16.0587 68.1985 16.912C69.9265 17.744 71.2492 19.0027 72.1665 20.688C73.0838 22.352 73.5425 24.4533 73.5425 26.992C73.5425 29.5307 73.0838 31.6427 72.1665 33.328C71.2492 35.0133 69.9265 36.2827 68.1985 37.136C66.4918 37.968 64.4332 38.384 62.0225 38.384ZM62.0225 33.904C62.9398 33.904 63.7505 33.7653 64.4545 33.488C65.1585 33.2107 65.7452 32.8053 66.2145 32.272C66.7052 31.7387 67.0678 31.088 67.3025 30.32C67.5372 29.552 67.6545 28.688 67.6545 27.728V26.32C67.6545 25.3387 67.5372 24.464 67.3025 23.696C67.0678 22.928 66.7052 22.2773 66.2145 21.744C65.7452 21.2107 65.1585 20.8053 64.4545 20.528C63.7505 20.2507 62.9398 20.112 62.0225 20.112C61.0838 20.112 60.2625 20.2507 59.5585 20.528C58.8545 20.8053 58.2678 21.2107 57.7985 21.744C57.3292 22.2773 56.9772 22.928 56.7425 23.696C56.5078 24.464 56.3905 25.3387 56.3905 26.32V27.728C56.3905 28.688 56.5078 29.552 56.7425 30.32C56.9772 31.088 57.3292 31.7387 57.7985 32.272C58.2678 32.8053 58.8545 33.2107 59.5585 33.488C60.2625 33.7653 61.0838 33.904 62.0225 33.904ZM77.3688 38V16.016H85.7208L88.3768 25.808C88.4834 26.1493 88.6114 26.6187 88.7608 27.216C88.9101 27.792 89.0594 28.4 89.2088 29.04C89.3581 29.68 89.4861 30.256 89.5928 30.768H89.8488C89.9341 30.3627 90.0408 29.8827 90.1688 29.328C90.2968 28.752 90.4354 28.1547 90.5848 27.536C90.7341 26.896 90.8728 26.3093 91.0008 25.776L93.6888 16.016H101.817V38H96.2488V28.624C96.2488 27.7067 96.2488 26.7787 96.2488 25.84C96.2701 24.9013 96.2914 24.048 96.3128 23.28C96.3341 22.512 96.3448 21.9573 96.3448 21.616H96.0888C96.0248 21.936 95.9181 22.4053 95.7688 23.024C95.6408 23.6213 95.4914 24.2507 95.3208 24.912C95.1714 25.552 95.0328 26.1067 94.9048 26.576L91.7048 38H87.0968L83.8648 26.576C83.7581 26.1493 83.6301 25.6373 83.4808 25.04C83.3314 24.4427 83.1821 23.8347 83.0328 23.216C82.9048 22.5973 82.7874 22.0747 82.6808 21.648H82.4248C82.4461 22.2027 82.4674 22.8853 82.4888 23.696C82.5101 24.4853 82.5314 25.3173 82.5528 26.192C82.5741 27.0453 82.5848 27.856 82.5848 28.624V38H77.3688ZM106.619 38V16.016H114.971L117.627 25.808C117.733 26.1493 117.861 26.6187 118.011 27.216C118.16 27.792 118.309 28.4 118.459 29.04C118.608 29.68 118.736 30.256 118.843 30.768H119.099C119.184 30.3627 119.291 29.8827 119.419 29.328C119.547 28.752 119.685 28.1547 119.835 27.536C119.984 26.896 120.123 26.3093 120.251 25.776L122.939 16.016H131.067V38H125.499V28.624C125.499 27.7067 125.499 26.7787 125.499 25.84C125.52 24.9013 125.541 24.048 125.563 23.28C125.584 22.512 125.595 21.9573 125.595 21.616H125.339C125.275 21.936 125.168 22.4053 125.019 23.024C124.891 23.6213 124.741 24.2507 124.571 24.912C124.421 25.552 124.283 26.1067 124.155 26.576L120.955 38H116.347L113.115 26.576C113.008 26.1493 112.88 25.6373 112.731 25.04C112.581 24.4427 112.432 23.8347 112.283 23.216C112.155 22.5973 112.037 22.0747 111.931 21.648H111.675C111.696 22.2027 111.717 22.8853 111.739 23.696C111.76 24.4853 111.781 25.3173 111.803 26.192C111.824 27.0453 111.835 27.856 111.835 28.624V38H106.619Z" fill="white"/>
<rect x="66" y="95" width="93" height="55" rx="27.5" fill="black"/>
<path d="M102.52 133.384C101.133 133.384 99.832 133.256 98.616 133C97.4 132.765 96.3227 132.371 95.384 131.816C94.4667 131.261 93.7413 130.536 93.208 129.64C92.6747 128.723 92.408 127.603 92.408 126.28C92.408 126.195 92.408 126.099 92.408 125.992C92.408 125.885 92.4187 125.8 92.44 125.736H97.976C97.976 125.8 97.9653 125.885 97.944 125.992C97.944 126.077 97.944 126.152 97.944 126.216C97.944 126.899 98.1147 127.453 98.456 127.88C98.8187 128.285 99.32 128.584 99.96 128.776C100.6 128.947 101.347 129.032 102.2 129.032C102.669 129.032 103.107 129.011 103.512 128.968C103.917 128.925 104.28 128.851 104.6 128.744C104.92 128.637 105.197 128.509 105.432 128.36C105.688 128.189 105.869 127.997 105.976 127.784C106.104 127.549 106.168 127.283 106.168 126.984C106.168 126.493 105.976 126.088 105.592 125.768C105.229 125.448 104.728 125.181 104.088 124.968C103.469 124.755 102.765 124.552 101.976 124.36C101.187 124.168 100.365 123.965 99.512 123.752C98.6587 123.539 97.8373 123.272 97.048 122.952C96.2587 122.632 95.544 122.227 94.904 121.736C94.2853 121.245 93.784 120.637 93.4 119.912C93.0373 119.165 92.856 118.269 92.856 117.224C92.856 116.072 93.1013 115.08 93.592 114.248C94.0827 113.395 94.7547 112.701 95.608 112.168C96.4827 111.635 97.4853 111.251 98.616 111.016C99.7467 110.76 100.952 110.632 102.232 110.632C103.491 110.632 104.664 110.76 105.752 111.016C106.861 111.272 107.843 111.677 108.696 112.232C109.549 112.765 110.211 113.448 110.68 114.28C111.171 115.091 111.427 116.072 111.448 117.224V117.608H105.944V117.384C105.944 116.893 105.805 116.467 105.528 116.104C105.272 115.72 104.877 115.421 104.344 115.208C103.811 114.973 103.149 114.856 102.36 114.856C101.571 114.856 100.899 114.931 100.344 115.08C99.8107 115.229 99.3947 115.443 99.096 115.72C98.8187 115.997 98.68 116.328 98.68 116.712C98.68 117.181 98.8613 117.565 99.224 117.864C99.608 118.163 100.12 118.419 100.76 118.632C101.4 118.845 102.115 119.048 102.904 119.24C103.693 119.411 104.504 119.603 105.336 119.816C106.189 120.008 107.011 120.264 107.8 120.584C108.589 120.883 109.304 121.277 109.944 121.768C110.584 122.237 111.085 122.824 111.448 123.528C111.832 124.232 112.024 125.085 112.024 126.088C112.024 127.837 111.608 129.245 110.776 130.312C109.965 131.379 108.835 132.157 107.384 132.648C105.955 133.139 104.333 133.384 102.52 133.384ZM123.361 133.384C121.441 133.384 119.83 133.107 118.529 132.552C117.249 131.976 116.289 131.208 115.649 130.248C115.009 129.267 114.689 128.157 114.689 126.92V126.344H119.553V126.952C119.553 127.741 119.851 128.371 120.449 128.84C121.046 129.309 121.931 129.544 123.105 129.544C124.278 129.544 125.153 129.277 125.729 128.744C126.305 128.189 126.593 127.411 126.593 126.408C126.593 125.704 126.454 125.149 126.177 124.744C125.899 124.339 125.526 124.051 125.057 123.88C124.609 123.688 124.107 123.592 123.553 123.592H121.473V120.008H123.329C123.862 120.008 124.331 119.912 124.737 119.72C125.163 119.507 125.494 119.197 125.729 118.792C125.985 118.387 126.113 117.875 126.113 117.256C126.113 116.68 125.995 116.189 125.761 115.784C125.526 115.357 125.174 115.037 124.705 114.824C124.257 114.589 123.723 114.472 123.105 114.472C122.529 114.472 121.995 114.579 121.505 114.792C121.035 115.005 120.662 115.304 120.385 115.688C120.129 116.072 120.001 116.52 120.001 117.032V117.448H115.297V116.648C115.297 115.496 115.617 114.472 116.257 113.576C116.918 112.659 117.857 111.944 119.073 111.432C120.289 110.899 121.729 110.632 123.393 110.632C125.035 110.632 126.454 110.888 127.649 111.4C128.843 111.891 129.761 112.595 130.401 113.512C131.041 114.408 131.361 115.443 131.361 116.616C131.361 117.405 131.211 118.131 130.913 118.792C130.635 119.432 130.241 119.976 129.729 120.424C129.238 120.872 128.662 121.235 128.001 121.512V121.64C129.195 122.003 130.145 122.653 130.849 123.592C131.553 124.509 131.905 125.661 131.905 127.048C131.883 128.285 131.542 129.384 130.881 130.344C130.219 131.283 129.259 132.029 128.001 132.584C126.742 133.117 125.195 133.384 123.361 133.384Z" fill="white"/>
<rect x="66" y="190" width="93" height="55" rx="27.5" fill="black"/>
<path d="M102.52 228.384C101.133 228.384 99.832 228.256 98.616 228C97.4 227.765 96.3227 227.371 95.384 226.816C94.4667 226.261 93.7413 225.536 93.208 224.64C92.6747 223.723 92.408 222.603 92.408 221.28C92.408 221.195 92.408 221.099 92.408 220.992C92.408 220.885 92.4187 220.8 92.44 220.736H97.976C97.976 220.8 97.9653 220.885 97.944 220.992C97.944 221.077 97.944 221.152 97.944 221.216C97.944 221.899 98.1147 222.453 98.456 222.88C98.8187 223.285 99.32 223.584 99.96 223.776C100.6 223.947 101.347 224.032 102.2 224.032C102.669 224.032 103.107 224.011 103.512 223.968C103.917 223.925 104.28 223.851 104.6 223.744C104.92 223.637 105.197 223.509 105.432 223.36C105.688 223.189 105.869 222.997 105.976 222.784C106.104 222.549 106.168 222.283 106.168 221.984C106.168 221.493 105.976 221.088 105.592 220.768C105.229 220.448 104.728 220.181 104.088 219.968C103.469 219.755 102.765 219.552 101.976 219.36C101.187 219.168 100.365 218.965 99.512 218.752C98.6587 218.539 97.8373 218.272 97.048 217.952C96.2587 217.632 95.544 217.227 94.904 216.736C94.2853 216.245 93.784 215.637 93.4 214.912C93.0373 214.165 92.856 213.269 92.856 212.224C92.856 211.072 93.1013 210.08 93.592 209.248C94.0827 208.395 94.7547 207.701 95.608 207.168C96.4827 206.635 97.4853 206.251 98.616 206.016C99.7467 205.76 100.952 205.632 102.232 205.632C103.491 205.632 104.664 205.76 105.752 206.016C106.861 206.272 107.843 206.677 108.696 207.232C109.549 207.765 110.211 208.448 110.68 209.28C111.171 210.091 111.427 211.072 111.448 212.224V212.608H105.944V212.384C105.944 211.893 105.805 211.467 105.528 211.104C105.272 210.72 104.877 210.421 104.344 210.208C103.811 209.973 103.149 209.856 102.36 209.856C101.571 209.856 100.899 209.931 100.344 210.08C99.8107 210.229 99.3947 210.443 99.096 210.72C98.8187 210.997 98.68 211.328 98.68 211.712C98.68 212.181 98.8613 212.565 99.224 212.864C99.608 213.163 100.12 213.419 100.76 213.632C101.4 213.845 102.115 214.048 102.904 214.24C103.693 214.411 104.504 214.603 105.336 214.816C106.189 215.008 107.011 215.264 107.8 215.584C108.589 215.883 109.304 216.277 109.944 216.768C110.584 217.237 111.085 217.824 111.448 218.528C111.832 219.232 112.024 220.085 112.024 221.088C112.024 222.837 111.608 224.245 110.776 225.312C109.965 226.379 108.835 227.157 107.384 227.648C105.955 228.139 104.333 228.384 102.52 228.384ZM114.913 228V226.688C114.913 225.749 115.094 224.885 115.457 224.096C115.819 223.307 116.31 222.571 116.929 221.888C117.547 221.205 118.23 220.555 118.977 219.936C119.745 219.296 120.513 218.688 121.281 218.112C122.155 217.472 122.977 216.853 123.745 216.256C124.513 215.659 125.131 215.029 125.601 214.368C126.091 213.707 126.337 212.971 126.337 212.16C126.337 211.733 126.23 211.328 126.017 210.944C125.825 210.539 125.505 210.208 125.057 209.952C124.63 209.696 124.054 209.568 123.329 209.568C122.603 209.568 121.995 209.707 121.505 209.984C121.014 210.24 120.641 210.603 120.385 211.072C120.129 211.541 120.001 212.096 120.001 212.736V213.696H115.137C115.115 213.568 115.094 213.429 115.073 213.28C115.073 213.109 115.073 212.917 115.073 212.704C115.073 211.168 115.425 209.877 116.129 208.832C116.833 207.787 117.825 206.997 119.105 206.464C120.406 205.909 121.953 205.632 123.745 205.632C125.11 205.632 126.283 205.813 127.265 206.176C128.267 206.539 129.089 207.029 129.729 207.648C130.369 208.267 130.838 208.971 131.137 209.76C131.457 210.528 131.617 211.328 131.617 212.16C131.617 213.163 131.435 214.069 131.073 214.88C130.71 215.691 130.209 216.459 129.569 217.184C128.929 217.888 128.182 218.571 127.329 219.232C126.475 219.872 125.558 220.523 124.577 221.184C124.086 221.525 123.638 221.845 123.233 222.144C122.849 222.421 122.539 222.667 122.305 222.88C122.07 223.093 121.899 223.285 121.793 223.456H131.809V228H114.913Z" fill="white"/>
<rect x="66" y="285" width="93" height="55" rx="27.5" fill="black"/>
<path d="M102.52 323.384C101.133 323.384 99.832 323.256 98.616 323C97.4 322.765 96.3227 322.371 95.384 321.816C94.4667 321.261 93.7413 320.536 93.208 319.64C92.6747 318.723 92.408 317.603 92.408 316.28C92.408 316.195 92.408 316.099 92.408 315.992C92.408 315.885 92.4187 315.8 92.44 315.736H97.976C97.976 315.8 97.9653 315.885 97.944 315.992C97.944 316.077 97.944 316.152 97.944 316.216C97.944 316.899 98.1147 317.453 98.456 317.88C98.8187 318.285 99.32 318.584 99.96 318.776C100.6 318.947 101.347 319.032 102.2 319.032C102.669 319.032 103.107 319.011 103.512 318.968C103.917 318.925 104.28 318.851 104.6 318.744C104.92 318.637 105.197 318.509 105.432 318.36C105.688 318.189 105.869 317.997 105.976 317.784C106.104 317.549 106.168 317.283 106.168 316.984C106.168 316.493 105.976 316.088 105.592 315.768C105.229 315.448 104.728 315.181 104.088 314.968C103.469 314.755 102.765 314.552 101.976 314.36C101.187 314.168 100.365 313.965 99.512 313.752C98.6587 313.539 97.8373 313.272 97.048 312.952C96.2587 312.632 95.544 312.227 94.904 311.736C94.2853 311.245 93.784 310.637 93.4 309.912C93.0373 309.165 92.856 308.269 92.856 307.224C92.856 306.072 93.1013 305.08 93.592 304.248C94.0827 303.395 94.7547 302.701 95.608 302.168C96.4827 301.635 97.4853 301.251 98.616 301.016C99.7467 300.76 100.952 300.632 102.232 300.632C103.491 300.632 104.664 300.76 105.752 301.016C106.861 301.272 107.843 301.677 108.696 302.232C109.549 302.765 110.211 303.448 110.68 304.28C111.171 305.091 111.427 306.072 111.448 307.224V307.608H105.944V307.384C105.944 306.893 105.805 306.467 105.528 306.104C105.272 305.72 104.877 305.421 104.344 305.208C103.811 304.973 103.149 304.856 102.36 304.856C101.571 304.856 100.899 304.931 100.344 305.08C99.8107 305.229 99.3947 305.443 99.096 305.72C98.8187 305.997 98.68 306.328 98.68 306.712C98.68 307.181 98.8613 307.565 99.224 307.864C99.608 308.163 100.12 308.419 100.76 308.632C101.4 308.845 102.115 309.048 102.904 309.24C103.693 309.411 104.504 309.603 105.336 309.816C106.189 310.008 107.011 310.264 107.8 310.584C108.589 310.883 109.304 311.277 109.944 311.768C110.584 312.237 111.085 312.824 111.448 313.528C111.832 314.232 112.024 315.085 112.024 316.088C112.024 317.837 111.608 319.245 110.776 320.312C109.965 321.379 108.835 322.157 107.384 322.648C105.955 323.139 104.333 323.384 102.52 323.384ZM116.577 323V318.872H121.825V307.128H116.545V304.024C117.398 303.96 118.326 303.779 119.329 303.48C120.353 303.181 121.355 302.819 122.337 302.392C123.339 301.944 124.235 301.475 125.025 300.984H127.073V318.872H132.033V323H116.577Z" fill="white"/>
<rect x="66" y="380" width="93" height="55" rx="27.5" fill="black"/>
<path d="M102.52 418.384C101.133 418.384 99.832 418.256 98.616 418C97.4 417.765 96.3227 417.371 95.384 416.816C94.4667 416.261 93.7413 415.536 93.208 414.64C92.6747 413.723 92.408 412.603 92.408 411.28C92.408 411.195 92.408 411.099 92.408 410.992C92.408 410.885 92.4187 410.8 92.44 410.736H97.976C97.976 410.8 97.9653 410.885 97.944 410.992C97.944 411.077 97.944 411.152 97.944 411.216C97.944 411.899 98.1147 412.453 98.456 412.88C98.8187 413.285 99.32 413.584 99.96 413.776C100.6 413.947 101.347 414.032 102.2 414.032C102.669 414.032 103.107 414.011 103.512 413.968C103.917 413.925 104.28 413.851 104.6 413.744C104.92 413.637 105.197 413.509 105.432 413.36C105.688 413.189 105.869 412.997 105.976 412.784C106.104 412.549 106.168 412.283 106.168 411.984C106.168 411.493 105.976 411.088 105.592 410.768C105.229 410.448 104.728 410.181 104.088 409.968C103.469 409.755 102.765 409.552 101.976 409.36C101.187 409.168 100.365 408.965 99.512 408.752C98.6587 408.539 97.8373 408.272 97.048 407.952C96.2587 407.632 95.544 407.227 94.904 406.736C94.2853 406.245 93.784 405.637 93.4 404.912C93.0373 404.165 92.856 403.269 92.856 402.224C92.856 401.072 93.1013 400.08 93.592 399.248C94.0827 398.395 94.7547 397.701 95.608 397.168C96.4827 396.635 97.4853 396.251 98.616 396.016C99.7467 395.76 100.952 395.632 102.232 395.632C103.491 395.632 104.664 395.76 105.752 396.016C106.861 396.272 107.843 396.677 108.696 397.232C109.549 397.765 110.211 398.448 110.68 399.28C111.171 400.091 111.427 401.072 111.448 402.224V402.608H105.944V402.384C105.944 401.893 105.805 401.467 105.528 401.104C105.272 400.72 104.877 400.421 104.344 400.208C103.811 399.973 103.149 399.856 102.36 399.856C101.571 399.856 100.899 399.931 100.344 400.08C99.8107 400.229 99.3947 400.443 99.096 400.72C98.8187 400.997 98.68 401.328 98.68 401.712C98.68 402.181 98.8613 402.565 99.224 402.864C99.608 403.163 100.12 403.419 100.76 403.632C101.4 403.845 102.115 404.048 102.904 404.24C103.693 404.411 104.504 404.603 105.336 404.816C106.189 405.008 107.011 405.264 107.8 405.584C108.589 405.883 109.304 406.277 109.944 406.768C110.584 407.237 111.085 407.824 111.448 408.528C111.832 409.232 112.024 410.085 112.024 411.088C112.024 412.837 111.608 414.245 110.776 415.312C109.965 416.379 108.835 417.157 107.384 417.648C105.955 418.139 104.333 418.384 102.52 418.384ZM123.329 418.384C121.793 418.384 120.481 418.16 119.393 417.712C118.305 417.243 117.419 416.549 116.737 415.632C116.054 414.693 115.553 413.509 115.233 412.08C114.913 410.651 114.753 408.955 114.753 406.992C114.753 405.051 114.913 403.365 115.233 401.936C115.553 400.507 116.054 399.333 116.737 398.416C117.419 397.477 118.305 396.784 119.393 396.336C120.481 395.867 121.793 395.632 123.329 395.632C124.865 395.632 126.166 395.867 127.233 396.336C128.321 396.784 129.206 397.477 129.889 398.416C130.571 399.333 131.073 400.507 131.392 401.936C131.713 403.365 131.873 405.051 131.873 406.992C131.873 408.955 131.713 410.651 131.392 412.08C131.073 413.509 130.571 414.693 129.889 415.632C129.206 416.549 128.321 417.243 127.233 417.712C126.166 418.16 124.865 418.384 123.329 418.384ZM123.329 414.576C124.182 414.576 124.843 414.352 125.313 413.904C125.803 413.435 126.134 412.741 126.305 411.824C126.497 410.885 126.593 409.701 126.593 408.272V405.776C126.593 404.325 126.497 403.131 126.305 402.192C126.134 401.253 125.803 400.56 125.313 400.112C124.843 399.664 124.182 399.44 123.329 399.44C122.475 399.44 121.803 399.664 121.312 400.112C120.843 400.56 120.513 401.253 120.321 402.192C120.129 403.109 120.033 404.293 120.033 405.744V408.208C120.033 409.659 120.129 410.853 120.321 411.792C120.513 412.731 120.843 413.435 121.312 413.904C121.803 414.352 122.475 414.576 123.329 414.576Z" fill="white"/>
<rect x="61" y="475" width="98" height="55" rx="27.5" fill="black"/>
<path d="M88.464 513V491.016H106.608V495.496H94.192V499.624H105.04V504.008H94.192V508.52H106.832V513H88.464ZM110.775 513V491.016H115.863L123.863 501.224C124.012 501.395 124.204 501.64 124.439 501.96C124.695 502.28 124.94 502.611 125.175 502.952C125.41 503.272 125.58 503.528 125.687 503.72L125.847 503.688C125.847 503.219 125.847 502.771 125.847 502.344C125.847 501.896 125.847 501.523 125.847 501.224V491.016H131.159V513H126.103L117.623 502.248C117.346 501.907 117.079 501.555 116.823 501.192C116.588 500.829 116.396 500.531 116.247 500.296L116.087 500.328C116.087 500.669 116.087 501.021 116.087 501.384C116.087 501.725 116.087 502.013 116.087 502.248V513H110.775Z" fill="white"/>
<rect x="45" y="570" width="114" height="55" rx="27.5" fill="black"/>
<path d="M80.048 608.384C78.128 608.384 76.5173 608.107 75.216 607.552C73.936 606.976 72.976 606.208 72.336 605.248C71.696 604.267 71.376 603.157 71.376 601.92V601.344H76.24V601.952C76.24 602.741 76.5387 603.371 77.136 603.84C77.7333 604.309 78.6187 604.544 79.792 604.544C80.9653 604.544 81.84 604.277 82.416 603.744C82.992 603.189 83.28 602.411 83.28 601.408C83.28 600.704 83.1413 600.149 82.864 599.744C82.5867 599.339 82.2133 599.051 81.744 598.88C81.296 598.688 80.7947 598.592 80.24 598.592H78.16V595.008H80.016C80.5493 595.008 81.0187 594.912 81.424 594.72C81.8507 594.507 82.1813 594.197 82.416 593.792C82.672 593.387 82.8 592.875 82.8 592.256C82.8 591.68 82.6827 591.189 82.448 590.784C82.2133 590.357 81.8613 590.037 81.392 589.824C80.944 589.589 80.4107 589.472 79.792 589.472C79.216 589.472 78.6827 589.579 78.192 589.792C77.7227 590.005 77.3493 590.304 77.072 590.688C76.816 591.072 76.688 591.52 76.688 592.032V592.448H71.984V591.648C71.984 590.496 72.304 589.472 72.944 588.576C73.6053 587.659 74.544 586.944 75.76 586.432C76.976 585.899 78.416 585.632 80.08 585.632C81.7227 585.632 83.1413 585.888 84.336 586.4C85.5307 586.891 86.448 587.595 87.088 588.512C87.728 589.408 88.048 590.443 88.048 591.616C88.048 592.405 87.8987 593.131 87.6 593.792C87.3227 594.432 86.928 594.976 86.416 595.424C85.9253 595.872 85.3493 596.235 84.688 596.512V596.64C85.8827 597.003 86.832 597.653 87.536 598.592C88.24 599.509 88.592 600.661 88.592 602.048C88.5707 603.285 88.2293 604.384 87.568 605.344C86.9067 606.283 85.9467 607.029 84.688 607.584C83.4293 608.117 81.8827 608.384 80.048 608.384ZM98.352 608L90.448 586.016H96.592L100.624 598.432C100.709 598.688 100.816 599.029 100.944 599.456C101.072 599.861 101.2 600.288 101.328 600.736C101.477 601.163 101.595 601.547 101.68 601.888H101.904C102.011 601.568 102.117 601.205 102.224 600.8C102.352 600.373 102.48 599.957 102.608 599.552C102.736 599.125 102.843 598.763 102.928 598.464L106.96 586.016H112.88L105.008 608H98.352ZM123.361 608.384C121.441 608.384 119.83 608.107 118.529 607.552C117.249 606.976 116.289 606.208 115.649 605.248C115.009 604.267 114.689 603.157 114.689 601.92V601.344H119.553V601.952C119.553 602.741 119.851 603.371 120.449 603.84C121.046 604.309 121.931 604.544 123.105 604.544C124.278 604.544 125.153 604.277 125.729 603.744C126.305 603.189 126.593 602.411 126.593 601.408C126.593 600.704 126.454 600.149 126.177 599.744C125.899 599.339 125.526 599.051 125.057 598.88C124.609 598.688 124.107 598.592 123.553 598.592H121.473V595.008H123.329C123.862 595.008 124.331 594.912 124.737 594.72C125.163 594.507 125.494 594.197 125.729 593.792C125.985 593.387 126.113 592.875 126.113 592.256C126.113 591.68 125.995 591.189 125.761 590.784C125.526 590.357 125.174 590.037 124.705 589.824C124.257 589.589 123.723 589.472 123.105 589.472C122.529 589.472 121.995 589.579 121.505 589.792C121.035 590.005 120.662 590.304 120.385 590.688C120.129 591.072 120.001 591.52 120.001 592.032V592.448H115.297V591.648C115.297 590.496 115.617 589.472 116.257 588.576C116.918 587.659 117.857 586.944 119.073 586.432C120.289 585.899 121.729 585.632 123.393 585.632C125.035 585.632 126.454 585.888 127.649 586.4C128.843 586.891 129.761 587.595 130.401 588.512C131.041 589.408 131.361 590.443 131.361 591.616C131.361 592.405 131.211 593.131 130.913 593.792C130.635 594.432 130.241 594.976 129.729 595.424C129.238 595.872 128.662 596.235 128.001 596.512V596.64C129.195 597.003 130.145 597.653 130.849 598.592C131.553 599.509 131.905 600.661 131.905 602.048C131.883 603.285 131.542 604.384 130.881 605.344C130.219 606.283 129.259 607.029 128.001 607.584C126.742 608.117 125.195 608.384 123.361 608.384Z" fill="white"/>
<rect x="33" y="665" width="126" height="55" rx="27.5" fill="black"/>
<path d="M70.416 703.384C66.8747 703.384 64.176 702.445 62.32 700.568C60.4853 698.691 59.568 695.832 59.568 691.992C59.568 689.453 60.016 687.352 60.912 685.688C61.8293 684.003 63.152 682.744 64.88 681.912C66.6293 681.059 68.7307 680.632 71.184 680.632C72.656 680.632 74.0427 680.803 75.344 681.144C76.6453 681.485 77.7973 681.997 78.8 682.68C79.8027 683.341 80.5813 684.184 81.136 685.208C81.6907 686.211 81.968 687.395 81.968 688.76H76.336C76.336 688.184 76.208 687.672 75.952 687.224C75.696 686.755 75.3333 686.371 74.864 686.072C74.416 685.752 73.8933 685.517 73.296 685.368C72.6987 685.197 72.0693 685.112 71.408 685.112C70.4267 685.112 69.552 685.24 68.784 685.496C68.0373 685.752 67.4187 686.147 66.928 686.68C66.4373 687.213 66.064 687.864 65.808 688.632C65.5733 689.4 65.456 690.296 65.456 691.32V692.728C65.456 694.093 65.6693 695.235 66.096 696.152C66.5227 697.069 67.1627 697.763 68.016 698.232C68.8907 698.68 69.9573 698.904 71.216 698.904C72.1973 698.904 73.072 698.755 73.84 698.456C74.6293 698.157 75.248 697.731 75.696 697.176C76.1653 696.6 76.4 695.917 76.4 695.128V694.968H70.48V690.936H81.968V703H78.64L78.096 700.696C77.4347 701.293 76.72 701.795 75.952 702.2C75.2053 702.605 74.3733 702.904 73.456 703.096C72.56 703.288 71.5467 703.384 70.416 703.384ZM86.4938 703V681.016H91.5818L99.5818 691.224C99.7311 691.395 99.9231 691.64 100.158 691.96C100.414 692.28 100.659 692.611 100.894 692.952C101.128 693.272 101.299 693.528 101.406 693.72L101.566 693.688C101.566 693.219 101.566 692.771 101.566 692.344C101.566 691.896 101.566 691.523 101.566 691.224V681.016H106.878V703H101.822L93.3418 692.248C93.0644 691.907 92.7978 691.555 92.5417 691.192C92.3071 690.829 92.1151 690.531 91.9658 690.296L91.8058 690.328C91.8058 690.669 91.8058 691.021 91.8058 691.384C91.8058 691.725 91.8058 692.013 91.8058 692.248V703H86.4938ZM111.681 703V681.016H120.865C123.255 681.016 125.271 681.411 126.913 682.2C128.577 682.989 129.836 684.195 130.689 685.816C131.564 687.416 132.001 689.475 132.001 691.992C132.001 694.488 131.564 696.557 130.689 698.2C129.836 699.821 128.577 701.027 126.913 701.816C125.271 702.605 123.255 703 120.865 703H111.681ZM117.409 698.52H120.801C121.697 698.52 122.476 698.392 123.137 698.136C123.799 697.88 124.353 697.507 124.801 697.016C125.249 696.525 125.58 695.917 125.793 695.192C126.007 694.467 126.113 693.635 126.113 692.696V691.352C126.113 690.392 126.007 689.549 125.793 688.824C125.58 688.099 125.249 687.491 124.801 687C124.353 686.509 123.799 686.136 123.137 685.88C122.476 685.624 121.697 685.496 120.801 685.496H117.409V698.52Z" fill="white"/>
</svg>
