<svg width="154" height="150" viewBox="0 0 154 150" fill="none" xmlns="http://www.w3.org/2000/svg">
<rect width="154" height="55" rx="27.5" fill="black"/>
<path d="M27.4 38V16.016H35.752L38.408 25.808C38.5147 26.1493 38.6427 26.6187 38.792 27.216C38.9413 27.792 39.0907 28.4 39.24 29.04C39.3893 29.68 39.5173 30.256 39.624 30.768H39.88C39.9653 30.3627 40.072 29.8827 40.2 29.328C40.328 28.752 40.4667 28.1547 40.616 27.536C40.7653 26.896 40.904 26.3093 41.032 25.776L43.72 16.016H51.848V38H46.28V28.624C46.28 27.7067 46.28 26.7787 46.28 25.84C46.3013 24.9013 46.3227 24.048 46.344 23.28C46.3653 22.512 46.376 21.9573 46.376 21.616H46.12C46.056 21.936 45.9493 22.4053 45.8 23.024C45.672 23.6213 45.5227 24.2507 45.352 24.912C45.2027 25.552 45.064 26.1067 44.936 26.576L41.736 38H37.128L33.896 26.576C33.7893 26.1493 33.6613 25.6373 33.512 25.04C33.3627 24.4427 33.2133 23.8347 33.064 23.216C32.936 22.5973 32.8187 22.0747 32.712 21.648H32.456C32.4773 22.2027 32.4987 22.8853 32.52 23.696C32.5413 24.4853 32.5627 25.3173 32.584 26.192C32.6053 27.0453 32.616 27.856 32.616 28.624V38H27.4ZM54.506 38L62.762 16.016H69.642L77.898 38H71.786L70.474 34.192H61.706L60.394 38H54.506ZM63.082 29.904H69.066L67.498 25.264C67.4127 25.0293 67.306 24.7413 67.178 24.4C67.0713 24.0373 66.954 23.664 66.826 23.28C66.7193 22.8747 66.6127 22.4693 66.506 22.064C66.3993 21.6587 66.2927 21.3067 66.186 21.008H65.962C65.8767 21.4133 65.7487 21.872 65.578 22.384C65.4287 22.896 65.2687 23.408 65.098 23.92C64.9487 24.432 64.81 24.88 64.682 25.264L63.082 29.904ZM79.725 38V36.688C79.725 35.7493 79.9063 34.8853 80.269 34.096C80.6317 33.3067 81.1223 32.5707 81.741 31.888C82.3597 31.2053 83.0423 30.5547 83.789 29.936C84.557 29.296 85.325 28.688 86.093 28.112C86.9677 27.472 87.789 26.8533 88.557 26.256C89.325 25.6587 89.9437 25.0293 90.413 24.368C90.9037 23.7067 91.149 22.9707 91.149 22.16C91.149 21.7333 91.0423 21.328 90.829 20.944C90.637 20.5387 90.317 20.208 89.869 19.952C89.4423 19.696 88.8663 19.568 88.141 19.568C87.4157 19.568 86.8077 19.7067 86.317 19.984C85.8263 20.24 85.453 20.6027 85.197 21.072C84.941 21.5413 84.813 22.096 84.813 22.736V23.696H79.949C79.9277 23.568 79.9063 23.4293 79.885 23.28C79.885 23.1093 79.885 22.9173 79.885 22.704C79.885 21.168 80.237 19.8773 80.941 18.832C81.645 17.7867 82.637 16.9973 83.917 16.464C85.2183 15.9093 86.765 15.632 88.557 15.632C89.9223 15.632 91.0957 15.8133 92.077 16.176C93.0797 16.5387 93.901 17.0293 94.541 17.648C95.181 18.2667 95.6503 18.9707 95.949 19.76C96.269 20.528 96.429 21.328 96.429 22.16C96.429 23.1627 96.2477 24.0693 95.885 24.88C95.5223 25.6907 95.021 26.4587 94.381 27.184C93.741 27.888 92.9943 28.5707 92.141 29.232C91.2877 29.872 90.3703 30.5227 89.389 31.184C88.8983 31.5253 88.4503 31.8453 88.045 32.144C87.661 32.4213 87.3517 32.6667 87.117 32.88C86.8823 33.0933 86.7117 33.2853 86.605 33.456H96.621V38H79.725ZM100.429 38V32.656H105.997V38H100.429ZM109.913 38V36.688C109.913 35.7493 110.094 34.8853 110.457 34.096C110.819 33.3067 111.31 32.5707 111.929 31.888C112.547 31.2053 113.23 30.5547 113.977 29.936C114.745 29.296 115.513 28.688 116.281 28.112C117.155 27.472 117.977 26.8533 118.745 26.256C119.513 25.6587 120.131 25.0293 120.601 24.368C121.091 23.7067 121.337 22.9707 121.337 22.16C121.337 21.7333 121.23 21.328 121.017 20.944C120.825 20.5387 120.505 20.208 120.057 19.952C119.63 19.696 119.054 19.568 118.329 19.568C117.603 19.568 116.995 19.7067 116.505 19.984C116.014 20.24 115.641 20.6027 115.385 21.072C115.129 21.5413 115.001 22.096 115.001 22.736V23.696H110.137C110.115 23.568 110.094 23.4293 110.073 23.28C110.073 23.1093 110.073 22.9173 110.073 22.704C110.073 21.168 110.425 19.8773 111.129 18.832C111.833 17.7867 112.825 16.9973 114.105 16.464C115.406 15.9093 116.953 15.632 118.745 15.632C120.11 15.632 121.283 15.8133 122.265 16.176C123.267 16.5387 124.089 17.0293 124.729 17.648C125.369 18.2667 125.838 18.9707 126.137 19.76C126.457 20.528 126.617 21.328 126.617 22.16C126.617 23.1627 126.435 24.0693 126.073 24.88C125.71 25.6907 125.209 26.4587 124.569 27.184C123.929 27.888 123.182 28.5707 122.329 29.232C121.475 29.872 120.558 30.5227 119.577 31.184C119.086 31.5253 118.638 31.8453 118.233 32.144C117.849 32.4213 117.539 32.6667 117.305 32.88C117.07 33.0933 116.899 33.2853 116.793 33.456H126.809V38H109.913Z" fill="white"/>
<rect y="95" width="154" height="55" rx="27.5" fill="black"/>
<path d="M27.4 133V111.016H35.752L38.408 120.808C38.5147 121.149 38.6427 121.619 38.792 122.216C38.9413 122.792 39.0907 123.4 39.24 124.04C39.3893 124.68 39.5173 125.256 39.624 125.768H39.88C39.9653 125.363 40.072 124.883 40.2 124.328C40.328 123.752 40.4667 123.155 40.616 122.536C40.7653 121.896 40.904 121.309 41.032 120.776L43.72 111.016H51.848V133H46.28V123.624C46.28 122.707 46.28 121.779 46.28 120.84C46.3013 119.901 46.3227 119.048 46.344 118.28C46.3653 117.512 46.376 116.957 46.376 116.616H46.12C46.056 116.936 45.9493 117.405 45.8 118.024C45.672 118.621 45.5227 119.251 45.352 119.912C45.2027 120.552 45.064 121.107 44.936 121.576L41.736 133H37.128L33.896 121.576C33.7893 121.149 33.6613 120.637 33.512 120.04C33.3627 119.443 33.2133 118.835 33.064 118.216C32.936 117.597 32.8187 117.075 32.712 116.648H32.456C32.4773 117.203 32.4987 117.885 32.52 118.696C32.5413 119.485 32.5627 120.317 32.584 121.192C32.6053 122.045 32.616 122.856 32.616 123.624V133H27.4ZM54.506 133L62.762 111.016H69.642L77.898 133H71.786L70.474 129.192H61.706L60.394 133H54.506ZM63.082 124.904H69.066L67.498 120.264C67.4127 120.029 67.306 119.741 67.178 119.4C67.0713 119.037 66.954 118.664 66.826 118.28C66.7193 117.875 66.6127 117.469 66.506 117.064C66.3993 116.659 66.2927 116.307 66.186 116.008H65.962C65.8767 116.413 65.7487 116.872 65.578 117.384C65.4287 117.896 65.2687 118.408 65.098 118.92C64.9487 119.432 64.81 119.88 64.682 120.264L63.082 124.904ZM79.725 133V131.688C79.725 130.749 79.9063 129.885 80.269 129.096C80.6317 128.307 81.1223 127.571 81.741 126.888C82.3597 126.205 83.0423 125.555 83.789 124.936C84.557 124.296 85.325 123.688 86.093 123.112C86.9677 122.472 87.789 121.853 88.557 121.256C89.325 120.659 89.9437 120.029 90.413 119.368C90.9037 118.707 91.149 117.971 91.149 117.16C91.149 116.733 91.0423 116.328 90.829 115.944C90.637 115.539 90.317 115.208 89.869 114.952C89.4423 114.696 88.8663 114.568 88.141 114.568C87.4157 114.568 86.8077 114.707 86.317 114.984C85.8263 115.24 85.453 115.603 85.197 116.072C84.941 116.541 84.813 117.096 84.813 117.736V118.696H79.949C79.9277 118.568 79.9063 118.429 79.885 118.28C79.885 118.109 79.885 117.917 79.885 117.704C79.885 116.168 80.237 114.877 80.941 113.832C81.645 112.787 82.637 111.997 83.917 111.464C85.2183 110.909 86.765 110.632 88.557 110.632C89.9223 110.632 91.0957 110.813 92.077 111.176C93.0797 111.539 93.901 112.029 94.541 112.648C95.181 113.267 95.6503 113.971 95.949 114.76C96.269 115.528 96.429 116.328 96.429 117.16C96.429 118.163 96.2477 119.069 95.885 119.88C95.5223 120.691 95.021 121.459 94.381 122.184C93.741 122.888 92.9943 123.571 92.141 124.232C91.2877 124.872 90.3703 125.523 89.389 126.184C88.8983 126.525 88.4503 126.845 88.045 127.144C87.661 127.421 87.3517 127.667 87.117 127.88C86.8823 128.093 86.7117 128.285 86.605 128.456H96.621V133H79.725ZM100.429 133V127.656H105.997V133H100.429ZM111.577 133V128.872H116.825V117.128H111.545V114.024C112.398 113.96 113.326 113.779 114.329 113.48C115.353 113.181 116.355 112.819 117.337 112.392C118.339 111.944 119.235 111.475 120.025 110.984H122.073V128.872H127.033V133H111.577Z" fill="white"/>
</svg>
