<svg width="152" height="530" viewBox="0 0 152 530" fill="none" xmlns="http://www.w3.org/2000/svg">
<rect x="29" width="123" height="55" rx="27.5" fill="black"/>
<path d="M56.464 38V16.016H74.608V20.496H62.192V24.624H73.04V29.008H62.192V33.52H74.832V38H56.464ZM79.639 38V33.872H84.887V22.128H79.607V19.024C80.4603 18.96 81.3883 18.7787 82.391 18.48C83.415 18.1813 84.4177 17.8187 85.399 17.392C86.4017 16.944 87.2977 16.4747 88.087 15.984H90.135V33.872H95.095V38H79.639ZM98.679 38V32.656H104.247V38H98.679ZM108.163 38V36.688C108.163 35.7493 108.344 34.8853 108.707 34.096C109.069 33.3067 109.56 32.5707 110.179 31.888C110.797 31.2053 111.48 30.5547 112.227 29.936C112.995 29.296 113.763 28.688 114.531 28.112C115.405 27.472 116.227 26.8533 116.995 26.256C117.763 25.6587 118.381 25.0293 118.851 24.368C119.341 23.7067 119.587 22.9707 119.587 22.16C119.587 21.7333 119.48 21.328 119.267 20.944C119.075 20.5387 118.755 20.208 118.307 19.952C117.88 19.696 117.304 19.568 116.579 19.568C115.853 19.568 115.245 19.7067 114.755 19.984C114.264 20.24 113.891 20.6027 113.635 21.072C113.379 21.5413 113.251 22.096 113.251 22.736V23.696H108.387C108.365 23.568 108.344 23.4293 108.323 23.28C108.323 23.1093 108.323 22.9173 108.323 22.704C108.323 21.168 108.675 19.8773 109.379 18.832C110.083 17.7867 111.075 16.9973 112.355 16.464C113.656 15.9093 115.203 15.632 116.995 15.632C118.36 15.632 119.533 15.8133 120.515 16.176C121.517 16.5387 122.339 17.0293 122.979 17.648C123.619 18.2667 124.088 18.9707 124.387 19.76C124.707 20.528 124.867 21.328 124.867 22.16C124.867 23.1627 124.685 24.0693 124.323 24.88C123.96 25.6907 123.459 26.4587 122.819 27.184C122.179 27.888 121.432 28.5707 120.579 29.232C119.725 29.872 118.808 30.5227 117.827 31.184C117.336 31.5253 116.888 31.8453 116.483 32.144C116.099 32.4213 115.789 32.6667 115.555 32.88C115.32 33.0933 115.149 33.2853 115.043 33.456H125.059V38H108.163Z" fill="white"/>
<rect x="29" y="95" width="123" height="55" rx="27.5" fill="black"/>
<path d="M56.464 133V111.016H74.608V115.496H62.192V119.624H73.04V124.008H62.192V128.52H74.832V133H56.464ZM79.639 133V128.872H84.887V117.128H79.607V114.024C80.4603 113.96 81.3883 113.779 82.391 113.48C83.415 113.181 84.4177 112.819 85.399 112.392C86.4017 111.944 87.2977 111.475 88.087 110.984H90.135V128.872H95.095V133H79.639ZM98.679 133V127.656H104.247V133H98.679ZM109.827 133V128.872H115.075V117.128H109.795V114.024C110.648 113.96 111.576 113.779 112.579 113.48C113.603 113.181 114.605 112.819 115.587 112.392C116.589 111.944 117.485 111.475 118.275 110.984H120.323V128.872H125.283V133H109.827Z" fill="white"/>
<rect x="26" y="190" width="126" height="55" rx="27.5" fill="black"/>
<path d="M63.416 228.384C59.8747 228.384 57.176 227.445 55.32 225.568C53.4853 223.691 52.568 220.832 52.568 216.992C52.568 214.453 53.016 212.352 53.912 210.688C54.8293 209.003 56.152 207.744 57.88 206.912C59.6293 206.059 61.7307 205.632 64.184 205.632C65.656 205.632 67.0427 205.803 68.344 206.144C69.6453 206.485 70.7973 206.997 71.8 207.68C72.8027 208.341 73.5813 209.184 74.136 210.208C74.6907 211.211 74.968 212.395 74.968 213.76H69.336C69.336 213.184 69.208 212.672 68.952 212.224C68.696 211.755 68.3333 211.371 67.864 211.072C67.416 210.752 66.8933 210.517 66.296 210.368C65.6987 210.197 65.0693 210.112 64.408 210.112C63.4267 210.112 62.552 210.24 61.784 210.496C61.0373 210.752 60.4187 211.147 59.928 211.68C59.4373 212.213 59.064 212.864 58.808 213.632C58.5733 214.4 58.456 215.296 58.456 216.32V217.728C58.456 219.093 58.6693 220.235 59.096 221.152C59.5227 222.069 60.1627 222.763 61.016 223.232C61.8907 223.68 62.9573 223.904 64.216 223.904C65.1973 223.904 66.072 223.755 66.84 223.456C67.6293 223.157 68.248 222.731 68.696 222.176C69.1653 221.6 69.4 220.917 69.4 220.128V219.968H63.48V215.936H74.968V228H71.64L71.096 225.696C70.4347 226.293 69.72 226.795 68.952 227.2C68.2053 227.605 67.3733 227.904 66.456 228.096C65.56 228.288 64.5467 228.384 63.416 228.384ZM79.4938 228V206.016H84.5818L92.5818 216.224C92.7311 216.395 92.9231 216.64 93.1578 216.96C93.4138 217.28 93.6591 217.611 93.8938 217.952C94.1284 218.272 94.2991 218.528 94.4058 218.72L94.5658 218.688C94.5658 218.219 94.5658 217.771 94.5658 217.344C94.5658 216.896 94.5658 216.523 94.5658 216.224V206.016H99.8778V228H94.8218L86.3418 217.248C86.0644 216.907 85.7978 216.555 85.5417 216.192C85.3071 215.829 85.1151 215.531 84.9658 215.296L84.8058 215.328C84.8058 215.669 84.8058 216.021 84.8058 216.384C84.8058 216.725 84.8058 217.013 84.8058 217.248V228H79.4938ZM104.681 228V206.016H113.865C116.255 206.016 118.271 206.411 119.913 207.2C121.577 207.989 122.836 209.195 123.689 210.816C124.564 212.416 125.001 214.475 125.001 216.992C125.001 219.488 124.564 221.557 123.689 223.2C122.836 224.821 121.577 226.027 119.913 226.816C118.271 227.605 116.255 228 113.865 228H104.681ZM110.409 223.52H113.801C114.697 223.52 115.476 223.392 116.137 223.136C116.799 222.88 117.353 222.507 117.801 222.016C118.249 221.525 118.58 220.917 118.793 220.192C119.007 219.467 119.113 218.635 119.113 217.696V216.352C119.113 215.392 119.007 214.549 118.793 213.824C118.58 213.099 118.249 212.491 117.801 212C117.353 211.509 116.799 211.136 116.137 210.88C115.476 210.624 114.697 210.496 113.801 210.496H110.409V223.52Z" fill="white"/>
<rect x="38" y="285" width="114" height="55" rx="27.5" fill="black"/>
<path d="M73.048 323.384C71.128 323.384 69.5173 323.107 68.216 322.552C66.936 321.976 65.976 321.208 65.336 320.248C64.696 319.267 64.376 318.157 64.376 316.92V316.344H69.24V316.952C69.24 317.741 69.5387 318.371 70.136 318.84C70.7333 319.309 71.6187 319.544 72.792 319.544C73.9653 319.544 74.84 319.277 75.416 318.744C75.992 318.189 76.28 317.411 76.28 316.408C76.28 315.704 76.1413 315.149 75.864 314.744C75.5867 314.339 75.2133 314.051 74.744 313.88C74.296 313.688 73.7947 313.592 73.24 313.592H71.16V310.008H73.016C73.5493 310.008 74.0187 309.912 74.424 309.72C74.8507 309.507 75.1813 309.197 75.416 308.792C75.672 308.387 75.8 307.875 75.8 307.256C75.8 306.68 75.6827 306.189 75.448 305.784C75.2133 305.357 74.8613 305.037 74.392 304.824C73.944 304.589 73.4107 304.472 72.792 304.472C72.216 304.472 71.6827 304.579 71.192 304.792C70.7227 305.005 70.3493 305.304 70.072 305.688C69.816 306.072 69.688 306.52 69.688 307.032V307.448H64.984V306.648C64.984 305.496 65.304 304.472 65.944 303.576C66.6053 302.659 67.544 301.944 68.76 301.432C69.976 300.899 71.416 300.632 73.08 300.632C74.7227 300.632 76.1413 300.888 77.336 301.4C78.5307 301.891 79.448 302.595 80.088 303.512C80.728 304.408 81.048 305.443 81.048 306.616C81.048 307.405 80.8987 308.131 80.6 308.792C80.3227 309.432 79.928 309.976 79.416 310.424C78.9253 310.872 78.3493 311.235 77.688 311.512V311.64C78.8827 312.003 79.832 312.653 80.536 313.592C81.24 314.509 81.592 315.661 81.592 317.048C81.5707 318.285 81.2293 319.384 80.568 320.344C79.9067 321.283 78.9467 322.029 77.688 322.584C76.4293 323.117 74.8827 323.384 73.048 323.384ZM91.352 323L83.448 301.016H89.592L93.624 313.432C93.7093 313.688 93.816 314.029 93.944 314.456C94.072 314.861 94.2 315.288 94.328 315.736C94.4773 316.163 94.5947 316.547 94.68 316.888H94.904C95.0107 316.568 95.1173 316.205 95.224 315.8C95.352 315.373 95.48 314.957 95.608 314.552C95.736 314.125 95.8427 313.763 95.928 313.464L99.96 301.016H105.88L98.008 323H91.352ZM116.361 323.384C114.441 323.384 112.83 323.107 111.529 322.552C110.249 321.976 109.289 321.208 108.649 320.248C108.009 319.267 107.689 318.157 107.689 316.92V316.344H112.553V316.952C112.553 317.741 112.851 318.371 113.449 318.84C114.046 319.309 114.931 319.544 116.105 319.544C117.278 319.544 118.153 319.277 118.729 318.744C119.305 318.189 119.593 317.411 119.593 316.408C119.593 315.704 119.454 315.149 119.177 314.744C118.899 314.339 118.526 314.051 118.057 313.88C117.609 313.688 117.107 313.592 116.553 313.592H114.473V310.008H116.329C116.862 310.008 117.331 309.912 117.737 309.72C118.163 309.507 118.494 309.197 118.729 308.792C118.985 308.387 119.113 307.875 119.113 307.256C119.113 306.68 118.995 306.189 118.761 305.784C118.526 305.357 118.174 305.037 117.705 304.824C117.257 304.589 116.723 304.472 116.105 304.472C115.529 304.472 114.995 304.579 114.505 304.792C114.035 305.005 113.662 305.304 113.385 305.688C113.129 306.072 113.001 306.52 113.001 307.032V307.448H108.297V306.648C108.297 305.496 108.617 304.472 109.257 303.576C109.918 302.659 110.857 301.944 112.073 301.432C113.289 300.899 114.729 300.632 116.393 300.632C118.035 300.632 119.454 300.888 120.649 301.4C121.843 301.891 122.761 302.595 123.401 303.512C124.041 304.408 124.361 305.443 124.361 306.616C124.361 307.405 124.211 308.131 123.913 308.792C123.635 309.432 123.241 309.976 122.729 310.424C122.238 310.872 121.662 311.235 121.001 311.512V311.64C122.195 312.003 123.145 312.653 123.849 313.592C124.553 314.509 124.905 315.661 124.905 317.048C124.883 318.285 124.542 319.384 123.881 320.344C123.219 321.283 122.259 322.029 121.001 322.584C119.742 323.117 118.195 323.384 116.361 323.384Z" fill="white"/>
<rect y="380" width="152" height="55" rx="27.5" fill="black"/>
<path d="M27.4 418V396.016H35.752L38.408 405.808C38.5147 406.149 38.6427 406.619 38.792 407.216C38.9413 407.792 39.0907 408.4 39.24 409.04C39.3893 409.68 39.5173 410.256 39.624 410.768H39.88C39.9653 410.363 40.072 409.883 40.2 409.328C40.328 408.752 40.4667 408.155 40.616 407.536C40.7653 406.896 40.904 406.309 41.032 405.776L43.72 396.016H51.848V418H46.28V408.624C46.28 407.707 46.28 406.779 46.28 405.84C46.3013 404.901 46.3227 404.048 46.344 403.28C46.3653 402.512 46.376 401.957 46.376 401.616H46.12C46.056 401.936 45.9493 402.405 45.8 403.024C45.672 403.621 45.5227 404.251 45.352 404.912C45.2027 405.552 45.064 406.107 44.936 406.576L41.736 418H37.128L33.896 406.576C33.7893 406.149 33.6613 405.637 33.512 405.04C33.3627 404.443 33.2133 403.835 33.064 403.216C32.936 402.597 32.8187 402.075 32.712 401.648H32.456C32.4773 402.203 32.4987 402.885 32.52 403.696C32.5413 404.485 32.5627 405.317 32.584 406.192C32.6053 407.045 32.616 407.856 32.616 408.624V418H27.4ZM56.714 418V396.016H74.858V400.496H62.442V404.624H73.29V409.008H62.442V413.52H75.082V418H56.714ZM79.889 418V413.872H85.137V402.128H79.857V399.024C80.7103 398.96 81.6383 398.779 82.641 398.48C83.665 398.181 84.6677 397.819 85.649 397.392C86.6517 396.944 87.5477 396.475 88.337 395.984H90.385V413.872H95.345V418H79.889ZM98.929 418V412.656H104.497V418H98.929ZM108.413 418V416.688C108.413 415.749 108.594 414.885 108.957 414.096C109.319 413.307 109.81 412.571 110.429 411.888C111.047 411.205 111.73 410.555 112.477 409.936C113.245 409.296 114.013 408.688 114.781 408.112C115.655 407.472 116.477 406.853 117.245 406.256C118.013 405.659 118.631 405.029 119.101 404.368C119.591 403.707 119.837 402.971 119.837 402.16C119.837 401.733 119.73 401.328 119.517 400.944C119.325 400.539 119.005 400.208 118.557 399.952C118.13 399.696 117.554 399.568 116.829 399.568C116.103 399.568 115.495 399.707 115.005 399.984C114.514 400.24 114.141 400.603 113.885 401.072C113.629 401.541 113.501 402.096 113.501 402.736V403.696H108.637C108.615 403.568 108.594 403.429 108.573 403.28C108.573 403.109 108.573 402.917 108.573 402.704C108.573 401.168 108.925 399.877 109.629 398.832C110.333 397.787 111.325 396.997 112.605 396.464C113.906 395.909 115.453 395.632 117.245 395.632C118.61 395.632 119.783 395.813 120.765 396.176C121.767 396.539 122.589 397.029 123.229 397.648C123.869 398.267 124.338 398.971 124.637 399.76C124.957 400.528 125.117 401.328 125.117 402.16C125.117 403.163 124.935 404.069 124.573 404.88C124.21 405.691 123.709 406.459 123.069 407.184C122.429 407.888 121.682 408.571 120.829 409.232C119.975 409.872 119.058 410.523 118.077 411.184C117.586 411.525 117.138 411.845 116.733 412.144C116.349 412.421 116.039 412.667 115.805 412.88C115.57 413.093 115.399 413.285 115.293 413.456H125.309V418H108.413Z" fill="white"/>
<rect y="475" width="152" height="55" rx="27.5" fill="black"/>
<path d="M27.4 513V491.016H35.752L38.408 500.808C38.5147 501.149 38.6427 501.619 38.792 502.216C38.9413 502.792 39.0907 503.4 39.24 504.04C39.3893 504.68 39.5173 505.256 39.624 505.768H39.88C39.9653 505.363 40.072 504.883 40.2 504.328C40.328 503.752 40.4667 503.155 40.616 502.536C40.7653 501.896 40.904 501.309 41.032 500.776L43.72 491.016H51.848V513H46.28V503.624C46.28 502.707 46.28 501.779 46.28 500.84C46.3013 499.901 46.3227 499.048 46.344 498.28C46.3653 497.512 46.376 496.957 46.376 496.616H46.12C46.056 496.936 45.9493 497.405 45.8 498.024C45.672 498.621 45.5227 499.251 45.352 499.912C45.2027 500.552 45.064 501.107 44.936 501.576L41.736 513H37.128L33.896 501.576C33.7893 501.149 33.6613 500.637 33.512 500.04C33.3627 499.443 33.2133 498.835 33.064 498.216C32.936 497.597 32.8187 497.075 32.712 496.648H32.456C32.4773 497.203 32.4987 497.885 32.52 498.696C32.5413 499.485 32.5627 500.317 32.584 501.192C32.6053 502.045 32.616 502.856 32.616 503.624V513H27.4ZM56.714 513V491.016H74.858V495.496H62.442V499.624H73.29V504.008H62.442V508.52H75.082V513H56.714ZM79.889 513V508.872H85.137V497.128H79.857V494.024C80.7103 493.96 81.6383 493.779 82.641 493.48C83.665 493.181 84.6677 492.819 85.649 492.392C86.6517 491.944 87.5477 491.475 88.337 490.984H90.385V508.872H95.345V513H79.889ZM98.929 513V507.656H104.497V513H98.929ZM110.077 513V508.872H115.325V497.128H110.045V494.024C110.898 493.96 111.826 493.779 112.829 493.48C113.853 493.181 114.855 492.819 115.837 492.392C116.839 491.944 117.735 491.475 118.525 490.984H120.573V508.872H125.533V513H110.077Z" fill="white"/>
</svg>
