<svg width="152" height="530" viewBox="0 0 152 530" fill="none" xmlns="http://www.w3.org/2000/svg">
<rect width="152" height="55" rx="27.5" fill="black"/>
<path d="M27.4 38V16.016H35.752L38.408 25.808C38.5147 26.1493 38.6427 26.6187 38.792 27.216C38.9413 27.792 39.0907 28.4 39.24 29.04C39.3893 29.68 39.5173 30.256 39.624 30.768H39.88C39.9653 30.3627 40.072 29.8827 40.2 29.328C40.328 28.752 40.4667 28.1547 40.616 27.536C40.7653 26.896 40.904 26.3093 41.032 25.776L43.72 16.016H51.848V38H46.28V28.624C46.28 27.7067 46.28 26.7787 46.28 25.84C46.3013 24.9013 46.3227 24.048 46.344 23.28C46.3653 22.512 46.376 21.9573 46.376 21.616H46.12C46.056 21.936 45.9493 22.4053 45.8 23.024C45.672 23.6213 45.5227 24.2507 45.352 24.912C45.2027 25.552 45.064 26.1067 44.936 26.576L41.736 38H37.128L33.896 26.576C33.7893 26.1493 33.6613 25.6373 33.512 25.04C33.3627 24.4427 33.2133 23.8347 33.064 23.216C32.936 22.5973 32.8187 22.0747 32.712 21.648H32.456C32.4773 22.2027 32.4987 22.8853 32.52 23.696C32.5413 24.4853 32.5627 25.3173 32.584 26.192C32.6053 27.0453 32.616 27.856 32.616 28.624V38H27.4ZM56.714 38V16.016H74.858V20.496H62.442V24.624H73.29V29.008H62.442V33.52H75.082V38H56.714ZM78.225 38V36.688C78.225 35.7493 78.4063 34.8853 78.769 34.096C79.1317 33.3067 79.6223 32.5707 80.241 31.888C80.8597 31.2053 81.5423 30.5547 82.289 29.936C83.057 29.296 83.825 28.688 84.593 28.112C85.4677 27.472 86.289 26.8533 87.057 26.256C87.825 25.6587 88.4437 25.0293 88.913 24.368C89.4037 23.7067 89.649 22.9707 89.649 22.16C89.649 21.7333 89.5423 21.328 89.329 20.944C89.137 20.5387 88.817 20.208 88.369 19.952C87.9423 19.696 87.3663 19.568 86.641 19.568C85.9157 19.568 85.3077 19.7067 84.817 19.984C84.3263 20.24 83.953 20.6027 83.697 21.072C83.441 21.5413 83.313 22.096 83.313 22.736V23.696H78.449C78.4277 23.568 78.4063 23.4293 78.385 23.28C78.385 23.1093 78.385 22.9173 78.385 22.704C78.385 21.168 78.737 19.8773 79.441 18.832C80.145 17.7867 81.137 16.9973 82.417 16.464C83.7183 15.9093 85.265 15.632 87.057 15.632C88.4223 15.632 89.5957 15.8133 90.577 16.176C91.5797 16.5387 92.401 17.0293 93.041 17.648C93.681 18.2667 94.1503 18.9707 94.449 19.76C94.769 20.528 94.929 21.328 94.929 22.16C94.929 23.1627 94.7477 24.0693 94.385 24.88C94.0223 25.6907 93.521 26.4587 92.881 27.184C92.241 27.888 91.4943 28.5707 90.641 29.232C89.7877 29.872 88.8703 30.5227 87.889 31.184C87.3983 31.5253 86.9503 31.8453 86.545 32.144C86.161 32.4213 85.8517 32.6667 85.617 32.88C85.3823 33.0933 85.2117 33.2853 85.105 33.456H95.121V38H78.225ZM98.929 38V32.656H104.497V38H98.929ZM110.077 38V33.872H115.325V22.128H110.045V19.024C110.898 18.96 111.826 18.7787 112.829 18.48C113.853 18.1813 114.855 17.8187 115.837 17.392C116.839 16.944 117.735 16.4747 118.525 15.984H120.573V33.872H125.533V38H110.077Z" fill="white"/>
<rect y="95" width="152" height="55" rx="27.5" fill="black"/>
<path d="M27.4 133V111.016H35.752L38.408 120.808C38.5147 121.149 38.6427 121.619 38.792 122.216C38.9413 122.792 39.0907 123.4 39.24 124.04C39.3893 124.68 39.5173 125.256 39.624 125.768H39.88C39.9653 125.363 40.072 124.883 40.2 124.328C40.328 123.752 40.4667 123.155 40.616 122.536C40.7653 121.896 40.904 121.309 41.032 120.776L43.72 111.016H51.848V133H46.28V123.624C46.28 122.707 46.28 121.779 46.28 120.84C46.3013 119.901 46.3227 119.048 46.344 118.28C46.3653 117.512 46.376 116.957 46.376 116.616H46.12C46.056 116.936 45.9493 117.405 45.8 118.024C45.672 118.621 45.5227 119.251 45.352 119.912C45.2027 120.552 45.064 121.107 44.936 121.576L41.736 133H37.128L33.896 121.576C33.7893 121.149 33.6613 120.637 33.512 120.04C33.3627 119.443 33.2133 118.835 33.064 118.216C32.936 117.597 32.8187 117.075 32.712 116.648H32.456C32.4773 117.203 32.4987 117.885 32.52 118.696C32.5413 119.485 32.5627 120.317 32.584 121.192C32.6053 122.045 32.616 122.856 32.616 123.624V133H27.4ZM56.714 133V111.016H74.858V115.496H62.442V119.624H73.29V124.008H62.442V128.52H75.082V133H56.714ZM78.225 133V131.688C78.225 130.749 78.4063 129.885 78.769 129.096C79.1317 128.307 79.6223 127.571 80.241 126.888C80.8597 126.205 81.5423 125.555 82.289 124.936C83.057 124.296 83.825 123.688 84.593 123.112C85.4677 122.472 86.289 121.853 87.057 121.256C87.825 120.659 88.4437 120.029 88.913 119.368C89.4037 118.707 89.649 117.971 89.649 117.16C89.649 116.733 89.5423 116.328 89.329 115.944C89.137 115.539 88.817 115.208 88.369 114.952C87.9423 114.696 87.3663 114.568 86.641 114.568C85.9157 114.568 85.3077 114.707 84.817 114.984C84.3263 115.24 83.953 115.603 83.697 116.072C83.441 116.541 83.313 117.096 83.313 117.736V118.696H78.449C78.4277 118.568 78.4063 118.429 78.385 118.28C78.385 118.109 78.385 117.917 78.385 117.704C78.385 116.168 78.737 114.877 79.441 113.832C80.145 112.787 81.137 111.997 82.417 111.464C83.7183 110.909 85.265 110.632 87.057 110.632C88.4223 110.632 89.5957 110.813 90.577 111.176C91.5797 111.539 92.401 112.029 93.041 112.648C93.681 113.267 94.1503 113.971 94.449 114.76C94.769 115.528 94.929 116.328 94.929 117.16C94.929 118.163 94.7477 119.069 94.385 119.88C94.0223 120.691 93.521 121.459 92.881 122.184C92.241 122.888 91.4943 123.571 90.641 124.232C89.7877 124.872 88.8703 125.523 87.889 126.184C87.3983 126.525 86.9503 126.845 86.545 127.144C86.161 127.421 85.8517 127.667 85.617 127.88C85.3823 128.093 85.2117 128.285 85.105 128.456H95.121V133H78.225ZM98.929 133V127.656H104.497V133H98.929ZM108.413 133V131.688C108.413 130.749 108.594 129.885 108.957 129.096C109.319 128.307 109.81 127.571 110.429 126.888C111.047 126.205 111.73 125.555 112.477 124.936C113.245 124.296 114.013 123.688 114.781 123.112C115.655 122.472 116.477 121.853 117.245 121.256C118.013 120.659 118.631 120.029 119.101 119.368C119.591 118.707 119.837 117.971 119.837 117.16C119.837 116.733 119.73 116.328 119.517 115.944C119.325 115.539 119.005 115.208 118.557 114.952C118.13 114.696 117.554 114.568 116.829 114.568C116.103 114.568 115.495 114.707 115.005 114.984C114.514 115.24 114.141 115.603 113.885 116.072C113.629 116.541 113.501 117.096 113.501 117.736V118.696H108.637C108.615 118.568 108.594 118.429 108.573 118.28C108.573 118.109 108.573 117.917 108.573 117.704C108.573 116.168 108.925 114.877 109.629 113.832C110.333 112.787 111.325 111.997 112.605 111.464C113.906 110.909 115.453 110.632 117.245 110.632C118.61 110.632 119.783 110.813 120.765 111.176C121.767 111.539 122.589 112.029 123.229 112.648C123.869 113.267 124.338 113.971 124.637 114.76C124.957 115.528 125.117 116.328 125.117 117.16C125.117 118.163 124.935 119.069 124.573 119.88C124.21 120.691 123.709 121.459 123.069 122.184C122.429 122.888 121.682 123.571 120.829 124.232C119.975 124.872 119.058 125.523 118.077 126.184C117.586 126.525 117.138 126.845 116.733 127.144C116.349 127.421 116.039 127.667 115.805 127.88C115.57 128.093 115.399 128.285 115.293 128.456H125.309V133H108.413Z" fill="white"/>
<rect y="190" width="114" height="55" rx="27.5" fill="black"/>
<path d="M35.048 228.384C33.128 228.384 31.5173 228.107 30.216 227.552C28.936 226.976 27.976 226.208 27.336 225.248C26.696 224.267 26.376 223.157 26.376 221.92V221.344H31.24V221.952C31.24 222.741 31.5387 223.371 32.136 223.84C32.7333 224.309 33.6187 224.544 34.792 224.544C35.9653 224.544 36.84 224.277 37.416 223.744C37.992 223.189 38.28 222.411 38.28 221.408C38.28 220.704 38.1413 220.149 37.864 219.744C37.5867 219.339 37.2133 219.051 36.744 218.88C36.296 218.688 35.7947 218.592 35.24 218.592H33.16V215.008H35.016C35.5493 215.008 36.0187 214.912 36.424 214.72C36.8507 214.507 37.1813 214.197 37.416 213.792C37.672 213.387 37.8 212.875 37.8 212.256C37.8 211.68 37.6827 211.189 37.448 210.784C37.2133 210.357 36.8613 210.037 36.392 209.824C35.944 209.589 35.4107 209.472 34.792 209.472C34.216 209.472 33.6827 209.579 33.192 209.792C32.7227 210.005 32.3493 210.304 32.072 210.688C31.816 211.072 31.688 211.52 31.688 212.032V212.448H26.984V211.648C26.984 210.496 27.304 209.472 27.944 208.576C28.6053 207.659 29.544 206.944 30.76 206.432C31.976 205.899 33.416 205.632 35.08 205.632C36.7227 205.632 38.1413 205.888 39.336 206.4C40.5307 206.891 41.448 207.595 42.088 208.512C42.728 209.408 43.048 210.443 43.048 211.616C43.048 212.405 42.8987 213.131 42.6 213.792C42.3227 214.432 41.928 214.976 41.416 215.424C40.9253 215.872 40.3493 216.235 39.688 216.512V216.64C40.8827 217.003 41.832 217.653 42.536 218.592C43.24 219.509 43.592 220.661 43.592 222.048C43.5707 223.285 43.2293 224.384 42.568 225.344C41.9067 226.283 40.9467 227.029 39.688 227.584C38.4293 228.117 36.8827 228.384 35.048 228.384ZM53.352 228L45.448 206.016H51.592L55.624 218.432C55.7093 218.688 55.816 219.029 55.944 219.456C56.072 219.861 56.2 220.288 56.328 220.736C56.4773 221.163 56.5947 221.547 56.68 221.888H56.904C57.0107 221.568 57.1173 221.205 57.224 220.8C57.352 220.373 57.48 219.957 57.608 219.552C57.736 219.125 57.8427 218.763 57.928 218.464L61.96 206.016H67.88L60.008 228H53.352ZM78.3605 228.384C76.4405 228.384 74.8298 228.107 73.5285 227.552C72.2485 226.976 71.2885 226.208 70.6485 225.248C70.0085 224.267 69.6885 223.157 69.6885 221.92V221.344H74.5525V221.952C74.5525 222.741 74.8512 223.371 75.4485 223.84C76.0458 224.309 76.9312 224.544 78.1045 224.544C79.2778 224.544 80.1525 224.277 80.7285 223.744C81.3045 223.189 81.5925 222.411 81.5925 221.408C81.5925 220.704 81.4538 220.149 81.1765 219.744C80.8992 219.339 80.5258 219.051 80.0565 218.88C79.6085 218.688 79.1072 218.592 78.5525 218.592H76.4725V215.008H78.3285C78.8618 215.008 79.3312 214.912 79.7365 214.72C80.1632 214.507 80.4938 214.197 80.7285 213.792C80.9845 213.387 81.1125 212.875 81.1125 212.256C81.1125 211.68 80.9952 211.189 80.7605 210.784C80.5258 210.357 80.1738 210.037 79.7045 209.824C79.2565 209.589 78.7232 209.472 78.1045 209.472C77.5285 209.472 76.9952 209.579 76.5045 209.792C76.0352 210.005 75.6618 210.304 75.3845 210.688C75.1285 211.072 75.0005 211.52 75.0005 212.032V212.448H70.2965V211.648C70.2965 210.496 70.6165 209.472 71.2565 208.576C71.9178 207.659 72.8565 206.944 74.0725 206.432C75.2885 205.899 76.7285 205.632 78.3925 205.632C80.0352 205.632 81.4538 205.888 82.6485 206.4C83.8432 206.891 84.7605 207.595 85.4005 208.512C86.0405 209.408 86.3605 210.443 86.3605 211.616C86.3605 212.405 86.2112 213.131 85.9125 213.792C85.6352 214.432 85.2405 214.976 84.7285 215.424C84.2378 215.872 83.6618 216.235 83.0005 216.512V216.64C84.1952 217.003 85.1445 217.653 85.8485 218.592C86.5525 219.509 86.9045 220.661 86.9045 222.048C86.8832 223.285 86.5418 224.384 85.8805 225.344C85.2192 226.283 84.2592 227.029 83.0005 227.584C81.7418 228.117 80.1952 228.384 78.3605 228.384Z" fill="white"/>
<rect y="285" width="126" height="55" rx="27.5" fill="black"/>
<path d="M37.416 323.384C33.8747 323.384 31.176 322.445 29.32 320.568C27.4853 318.691 26.568 315.832 26.568 311.992C26.568 309.453 27.016 307.352 27.912 305.688C28.8293 304.003 30.152 302.744 31.88 301.912C33.6293 301.059 35.7307 300.632 38.184 300.632C39.656 300.632 41.0427 300.803 42.344 301.144C43.6453 301.485 44.7973 301.997 45.8 302.68C46.8027 303.341 47.5813 304.184 48.136 305.208C48.6907 306.211 48.968 307.395 48.968 308.76H43.336C43.336 308.184 43.208 307.672 42.952 307.224C42.696 306.755 42.3333 306.371 41.864 306.072C41.416 305.752 40.8933 305.517 40.296 305.368C39.6987 305.197 39.0693 305.112 38.408 305.112C37.4267 305.112 36.552 305.24 35.784 305.496C35.0373 305.752 34.4187 306.147 33.928 306.68C33.4373 307.213 33.064 307.864 32.808 308.632C32.5733 309.4 32.456 310.296 32.456 311.32V312.728C32.456 314.093 32.6693 315.235 33.096 316.152C33.5227 317.069 34.1627 317.763 35.016 318.232C35.8907 318.68 36.9573 318.904 38.216 318.904C39.1973 318.904 40.072 318.755 40.84 318.456C41.6293 318.157 42.248 317.731 42.696 317.176C43.1653 316.6 43.4 315.917 43.4 315.128V314.968H37.48V310.936H48.968V323H45.64L45.096 320.696C44.4347 321.293 43.72 321.795 42.952 322.2C42.2053 322.605 41.3733 322.904 40.456 323.096C39.56 323.288 38.5467 323.384 37.416 323.384ZM53.4938 323V301.016H58.5818L66.5818 311.224C66.7311 311.395 66.9231 311.64 67.1578 311.96C67.4138 312.28 67.6591 312.611 67.8938 312.952C68.1284 313.272 68.2991 313.528 68.4058 313.72L68.5658 313.688C68.5658 313.219 68.5658 312.771 68.5658 312.344C68.5658 311.896 68.5658 311.523 68.5658 311.224V301.016H73.8778V323H68.8218L60.3418 312.248C60.0644 311.907 59.7978 311.555 59.5417 311.192C59.3071 310.829 59.1151 310.531 58.9658 310.296L58.8058 310.328C58.8058 310.669 58.8058 311.021 58.8058 311.384C58.8058 311.725 58.8058 312.013 58.8058 312.248V323H53.4938ZM78.6813 323V301.016H87.8653C90.2546 301.016 92.2706 301.411 93.9132 302.2C95.5773 302.989 96.8359 304.195 97.6893 305.816C98.5639 307.416 99.0013 309.475 99.0013 311.992C99.0013 314.488 98.5639 316.557 97.6893 318.2C96.8359 319.821 95.5773 321.027 93.9132 321.816C92.2706 322.605 90.2546 323 87.8653 323H78.6813ZM84.4093 318.52H87.8013C88.6973 318.52 89.4759 318.392 90.1373 318.136C90.7986 317.88 91.3533 317.507 91.8013 317.016C92.2493 316.525 92.5799 315.917 92.7933 315.192C93.0066 314.467 93.1133 313.635 93.1133 312.696V311.352C93.1133 310.392 93.0066 309.549 92.7933 308.824C92.5799 308.099 92.2493 307.491 91.8013 307C91.3533 306.509 90.7986 306.136 90.1373 305.88C89.4759 305.624 88.6973 305.496 87.8013 305.496H84.4093V318.52Z" fill="white"/>
<rect y="380" width="123" height="55" rx="27.5" fill="black"/>
<path d="M27.464 418V396.016H45.608V400.496H33.192V404.624H44.04V409.008H33.192V413.52H45.832V418H27.464ZM48.975 418V416.688C48.975 415.749 49.1563 414.885 49.519 414.096C49.8817 413.307 50.3723 412.571 50.991 411.888C51.6097 411.205 52.2923 410.555 53.039 409.936C53.807 409.296 54.575 408.688 55.343 408.112C56.2177 407.472 57.039 406.853 57.807 406.256C58.575 405.659 59.1937 405.029 59.663 404.368C60.1537 403.707 60.399 402.971 60.399 402.16C60.399 401.733 60.2923 401.328 60.079 400.944C59.887 400.539 59.567 400.208 59.119 399.952C58.6923 399.696 58.1163 399.568 57.391 399.568C56.6657 399.568 56.0577 399.707 55.567 399.984C55.0763 400.24 54.703 400.603 54.447 401.072C54.191 401.541 54.063 402.096 54.063 402.736V403.696H49.199C49.1777 403.568 49.1563 403.429 49.135 403.28C49.135 403.109 49.135 402.917 49.135 402.704C49.135 401.168 49.487 399.877 50.191 398.832C50.895 397.787 51.887 396.997 53.167 396.464C54.4683 395.909 56.015 395.632 57.807 395.632C59.1723 395.632 60.3457 395.813 61.327 396.176C62.3297 396.539 63.151 397.029 63.791 397.648C64.431 398.267 64.9003 398.971 65.199 399.76C65.519 400.528 65.679 401.328 65.679 402.16C65.679 403.163 65.4977 404.069 65.135 404.88C64.7723 405.691 64.271 406.459 63.631 407.184C62.991 407.888 62.2443 408.571 61.391 409.232C60.5377 409.872 59.6203 410.523 58.639 411.184C58.1483 411.525 57.7003 411.845 57.295 412.144C56.911 412.421 56.6017 412.667 56.367 412.88C56.1323 413.093 55.9617 413.285 55.855 413.456H65.871V418H48.975ZM69.679 418V412.656H75.247V418H69.679ZM80.8265 418V413.872H86.0745V402.128H80.7945V399.024C81.6478 398.96 82.5758 398.779 83.5785 398.48C84.6025 398.181 85.6052 397.819 86.5865 397.392C87.5892 396.944 88.4852 396.475 89.2745 395.984H91.3225V413.872H96.2825V418H80.8265Z" fill="white"/>
<rect y="475" width="123" height="55" rx="27.5" fill="black"/>
<path d="M27.464 513V491.016H45.608V495.496H33.192V499.624H44.04V504.008H33.192V508.52H45.832V513H27.464ZM48.975 513V511.688C48.975 510.749 49.1563 509.885 49.519 509.096C49.8817 508.307 50.3723 507.571 50.991 506.888C51.6097 506.205 52.2923 505.555 53.039 504.936C53.807 504.296 54.575 503.688 55.343 503.112C56.2177 502.472 57.039 501.853 57.807 501.256C58.575 500.659 59.1937 500.029 59.663 499.368C60.1537 498.707 60.399 497.971 60.399 497.16C60.399 496.733 60.2923 496.328 60.079 495.944C59.887 495.539 59.567 495.208 59.119 494.952C58.6923 494.696 58.1163 494.568 57.391 494.568C56.6657 494.568 56.0577 494.707 55.567 494.984C55.0763 495.24 54.703 495.603 54.447 496.072C54.191 496.541 54.063 497.096 54.063 497.736V498.696H49.199C49.1777 498.568 49.1563 498.429 49.135 498.28C49.135 498.109 49.135 497.917 49.135 497.704C49.135 496.168 49.487 494.877 50.191 493.832C50.895 492.787 51.887 491.997 53.167 491.464C54.4683 490.909 56.015 490.632 57.807 490.632C59.1723 490.632 60.3457 490.813 61.327 491.176C62.3297 491.539 63.151 492.029 63.791 492.648C64.431 493.267 64.9003 493.971 65.199 494.76C65.519 495.528 65.679 496.328 65.679 497.16C65.679 498.163 65.4977 499.069 65.135 499.88C64.7723 500.691 64.271 501.459 63.631 502.184C62.991 502.888 62.2443 503.571 61.391 504.232C60.5377 504.872 59.6203 505.523 58.639 506.184C58.1483 506.525 57.7003 506.845 57.295 507.144C56.911 507.421 56.6017 507.667 56.367 507.88C56.1323 508.093 55.9617 508.285 55.855 508.456H65.871V513H48.975ZM69.679 513V507.656H75.247V513H69.679ZM79.1625 513V511.688C79.1625 510.749 79.3438 509.885 79.7065 509.096C80.0692 508.307 80.5598 507.571 81.1785 506.888C81.7972 506.205 82.4798 505.555 83.2265 504.936C83.9945 504.296 84.7625 503.688 85.5305 503.112C86.4052 502.472 87.2265 501.853 87.9945 501.256C88.7625 500.659 89.3812 500.029 89.8505 499.368C90.3412 498.707 90.5865 497.971 90.5865 497.16C90.5865 496.733 90.4798 496.328 90.2665 495.944C90.0745 495.539 89.7545 495.208 89.3065 494.952C88.8798 494.696 88.3038 494.568 87.5785 494.568C86.8532 494.568 86.2452 494.707 85.7545 494.984C85.2638 495.24 84.8905 495.603 84.6345 496.072C84.3785 496.541 84.2505 497.096 84.2505 497.736V498.696H79.3865C79.3652 498.568 79.3438 498.429 79.3225 498.28C79.3225 498.109 79.3225 497.917 79.3225 497.704C79.3225 496.168 79.6745 494.877 80.3785 493.832C81.0825 492.787 82.0745 491.997 83.3545 491.464C84.6558 490.909 86.2025 490.632 87.9945 490.632C89.3598 490.632 90.5332 490.813 91.5145 491.176C92.5172 491.539 93.3385 492.029 93.9785 492.648C94.6185 493.267 95.0878 493.971 95.3865 494.76C95.7065 495.528 95.8665 496.328 95.8665 497.16C95.8665 498.163 95.6852 499.069 95.3225 499.88C94.9598 500.691 94.4585 501.459 93.8185 502.184C93.1785 502.888 92.4318 503.571 91.5785 504.232C90.7252 504.872 89.8078 505.523 88.8265 506.184C88.3358 506.525 87.8878 506.845 87.4825 507.144C87.0985 507.421 86.7892 507.667 86.5545 507.88C86.3198 508.093 86.1492 508.285 86.0425 508.456H96.0585V513H79.1625Z" fill="white"/>
</svg>
