<?xml version="1.0" encoding="UTF-8" standalone="no"?>
<!-- Created with Inkscape (http://www.inkscape.org/) -->

<svg
   width="111.29139mm"
   height="176.02682mm"
   viewBox="0 0 111.29139 176.02682"
   version="1.1"
   id="svg1"
   xml:space="preserve"
   inkscape:export-filename="bitmap.svg"
   inkscape:export-xdpi="96"
   inkscape:export-ydpi="96"
   xmlns:inkscape="http://www.inkscape.org/namespaces/inkscape"
   xmlns:sodipodi="http://sodipodi.sourceforge.net/DTD/sodipodi-0.dtd"
   xmlns="http://www.w3.org/2000/svg"
   xmlns:svg="http://www.w3.org/2000/svg"><sodipodi:namedview
     id="namedview1"
     pagecolor="#ffffff"
     bordercolor="#000000"
     borderopacity="0.25"
     inkscape:showpageshadow="2"
     inkscape:pageopacity="0.0"
     inkscape:pagecheckerboard="0"
     inkscape:deskcolor="#d1d1d1"
     inkscape:document-units="mm" /><defs
     id="defs1" /><g
     inkscape:label="Layer 1"
     inkscape:groupmode="layer"
     id="layer1"
     transform="translate(-50.741295,-61.507113)"><path
       style="fill:#000000"
       d="m 76.254726,237.43744 c -0.05682,-0.0919 -0.297772,-1.28425 -0.535445,-2.64957 -0.366946,-2.10792 -0.385205,-2.8742 -0.121043,-5.07962 0.1711,-1.42847 0.534975,-3.44997 0.808611,-4.49223 0.416631,-1.58691 0.471845,-2.46304 0.3396,-5.38875 -0.121008,-2.67712 -0.04798,-4.19505 0.312457,-6.49413 l 0.470377,-3.0004 -1.117817,-3.43343 c -2.489277,-7.64593 -3.092555,-13.38336 -1.911518,-18.17932 0.668311,-2.71388 2.148618,-6.77368 3.354152,-9.1989 0.470184,-0.94588 0.926409,-2.34873 1.013834,-3.11742 0.103601,-0.91093 0.542977,-2.10872 1.261722,-3.43959 4.120361,-7.6295 4.671719,-8.86238 4.820457,-10.77895 0.163592,-2.10799 1.130616,-4.91456 2.280303,-6.61808 0.684959,-1.01491 1.287154,-3.14379 1.128487,-3.98942 -0.03039,-0.16198 0.175957,-0.81095 0.458552,-1.44215 l 0.513811,-1.14763 -0.604823,-0.56053 c -0.332653,-0.30829 -0.655768,-0.71336 -0.718035,-0.90016 -0.09004,-0.27013 -0.405451,-0.25285 -1.541228,0.0844 -2.664789,0.79136 -3.268329,0.64634 -5.260304,-1.26397 -0.968116,-0.92842 -2.236462,-1.9251 -2.818545,-2.21484 -1.544391,-0.76876 -7.214637,-3.13546 -10.657157,-4.44819 -3.36276,-1.28232 -4.68912,-2.03778 -8.19604,-4.66823 -2.85279,-2.13981 -3.4201,-2.81838 -4.72595,-5.65279 -0.63886,-1.38669 -1.49237,-2.66148 -2.51812,-3.76102 -1.31727,-1.41204 -1.5514,-1.81176 -1.54976,-2.64584 0.003,-1.3717 1.6382,-5.58321 2.53928,-6.53875 0.41168,-0.43657 1.44957,-1.62719 2.30642,-2.64584 2.22712,-2.64766 5.16483,-5.61286 6.39716,-6.45703 0.58208,-0.39874 2.27199,-1.17528 3.75535,-1.72563 2.51407,-0.93276 2.70893,-1.05709 2.87264,-1.83294 0.47369,-2.24489 3.04246,-5.309307 5.511642,-6.575121 1.488673,-0.76316 4.152877,-0.892546 7.645982,-0.371324 1.910333,-0.01886 7.35274,0.51845 8.985578,0.539417 0.574032,0.0074 3.35992,-0.06548 4.248783,-0.419225 2.360257,-0.939325 3.875689,-2.439239 3.958011,-2.534714 1.22567,-1.094805 0.976014,-2.253227 0.879993,-3.756437 -0.393619,-6.162143 -0.413088,-6.280191 -1.086354,-6.586952 -0.421883,-0.192223 -0.669366,-0.571599 -0.755382,-1.157958 -0.07036,-0.479639 -0.264533,-1.725996 -0.431493,-2.769682 -0.324714,-2.029836 -0.101898,-2.997181 0.690365,-2.997181 0.425897,0 0.415338,-1.602809 -0.04625,-7.021566 -0.159845,-1.876463 -0.113541,-2.259333 0.393425,-3.253068 1.281429,-2.511807 3.598306,-4.332027 6.333486,-4.975817 4.90172,-1.153733 9.20931,0.430563 11.47645,4.220934 1.20432,2.013478 1.19604,1.940241 0.8615,7.61628 -0.19559,3.318512 -0.19375,3.334351 0.40423,3.490727 0.58887,0.153994 0.59704,0.207047 0.41451,2.693628 -0.22904,3.120221 -0.53051,4.059881 -1.37016,4.270618 -0.58382,0.146532 -0.63515,0.290372 -0.63664,1.784342 -9e-4,0.89373 -0.14973,1.92262 -0.33073,2.286422 -0.20723,0.416501 -0.29732,1.4643 -0.24328,2.829377 0.0833,2.105121 0.11667,2.202961 1.15065,3.377619 0.58565,0.665335 1.55906,1.498628 2.16313,1.851762 1.09027,0.637362 3.80926,1.285175 5.33165,1.270292 1.50429,-0.01471 7.67635,-0.583504 9.26041,-0.85341 3.7391,-0.6371 5.74502,-0.134474 8.07602,2.023627 1.85106,1.71376 2.84135,3.25846 3.11442,4.85806 l 0.19196,1.12446 3.02631,1.20099 c 2.89523,1.14898 3.12533,1.29914 5.31256,3.46692 1.25743,1.24625 2.80272,2.92076 3.43397,3.72113 0.63126,0.80036 1.71544,2.05052 2.40931,2.77812 1.03469,1.08499 1.43447,1.81091 2.22289,4.03625 0.65973,1.86212 0.90997,2.94707 0.79767,3.45838 -0.0911,0.41496 -0.86137,1.43549 -1.73849,2.30346 -1.19552,1.18305 -1.89254,2.20884 -2.8938,4.25879 -1.20205,2.46104 -1.48948,2.83872 -3.24317,4.26147 -3.54188,2.87349 -6.15808,4.47421 -8.97096,5.48887 -2.6691,0.9628 -9.31356,3.75136 -11.07723,4.64892 -0.80036,0.40732 -1.7952,1.17564 -2.21075,1.70737 -1.52362,1.94961 -3.10921,2.39237 -5.56765,1.55469 l -1.25809,-0.42867 -0.72544,0.86895 c -0.54408,0.65173 -0.86972,0.83123 -1.30258,0.71803 -0.68083,-0.17804 -0.70493,-0.0121 -0.19099,1.31553 0.21239,0.54865 0.50187,2.06911 0.64329,3.37879 0.19394,1.79615 0.45773,2.77132 1.07357,3.96875 0.85573,1.66389 1.58486,4.55375 1.60213,6.35 0.008,0.79219 0.47369,1.9233 1.85333,4.49792 2.89241,5.39765 3.35814,7.11914 3.83066,8.42008 2.16292,5.9548 1.43498,3.70873 2.63255,6.84352 2.07718,5.43723 2.13415,6.58521 2.11224,10.7979 -0.0227,4.36012 -0.57025,7.215 -2.46315,12.87747 l -1.07234,3.20784 0.39635,2.07151 c 0.41338,2.16054 0.57821,5.53839 0.42447,8.69839 -0.0629,1.29269 0.0751,2.45143 0.45691,3.83645 0.90434,3.28068 1.20818,6.90946 0.78643,9.39271 l -0.35948,2.11667 -0.94946,0.0796 -0.94947,0.0796 0.12121,-3.38686 c 0.11028,-3.08182 0.0742,-3.44471 -0.40071,-4.02916 l -0.52191,-0.64229 -1.3231,1.2376 c -1.59641,1.49325 -1.96476,1.59153 -0.91986,0.24542 1.12424,-1.44831 1.60412,-2.92722 1.93411,-5.9606 0.47235,-4.3419 -0.10176,-7.19722 -1.80468,-8.9755 -1.04801,-1.09439 -1.97906,-1.1787 -3.65464,-0.33093 -2.00084,1.01233 -2.35408,1.83447 -2.18413,5.08345 0.14592,2.78985 -0.14804,2.75868 -0.59601,-0.0632 -0.56594,-3.56505 -0.63589,-3.70483 -2.24884,-4.49398 -0.85248,-0.41708 -1.75046,-1.11499 -2.16667,-1.68394 -0.39095,-0.53441 -0.81417,-1.09071 -0.94049,-1.23623 -0.42431,-0.48879 0.35794,1.2998 1.90933,4.36562 0.84683,1.67349 1.74457,3.84579 1.99497,4.82733 0.2504,0.98154 0.9378,2.58466 1.52756,3.5625 1.5244,2.52749 1.78451,3.61518 1.75257,7.32878 l -0.0275,3.1991 -0.46387,-2.66224 c -0.6498,-3.72938 -1.14976,-5.04693 -2.58671,-6.81682 l -1.25157,-1.54157 -0.6011,2.5999 c -0.33061,1.42994 -0.97093,4.17747 -1.42294,6.10563 l -0.82183,3.50572 h -1.00522 -1.00521 l 0.35434,-1.52135 c 1.40408,-6.02839 1.82549,-8.02825 2.37121,-11.25285 l 0.61844,-3.65427 -1.68846,-3.30689 c -1.97073,-3.85971 -2.71295,-6.07712 -2.94228,-8.79008 -0.14868,-1.75887 -0.29363,-2.15436 -1.41071,-3.84919 -0.68475,-1.0389 -1.87778,-2.60328 -2.65116,-3.47641 -2.27374,-2.56697 -4.13772,-7.1896 -5.12103,-12.7 -0.20775,-1.16416 -0.3884,-2.04052 -0.40146,-1.94745 -0.54445,3.88019 -2.06763,9.14761 -3.35574,11.60474 -0.49586,0.94589 -1.66476,2.60198 -2.597544,3.68021 -2.608271,3.01495 -3.595452,4.84652 -3.595452,6.6708 0,2.08978 -0.803052,4.5414 -2.838157,8.66455 l -1.746004,3.53743 0.558657,3.34174 c 0.307261,1.83795 1.103824,5.24429 1.77014,7.56963 1.48548,5.18411 1.557967,5.79354 0.703494,5.91466 -1.056518,0.14975 -1.041198,0.18426 -3.093396,-6.96756 -0.375812,-1.30968 -0.856332,-2.64914 -1.067823,-2.97656 -0.801661,-1.24111 -2.564319,-0.49629 -3.287291,1.38906 -0.440381,1.14842 -1.053119,4.49522 -1.057839,5.77797 -0.003,0.80846 -0.07223,0.9957 -0.260532,0.70432 -0.345469,-0.53457 -0.332327,-4.19784 0.02237,-6.23464 0.199607,-1.14623 0.680697,-2.31679 1.580548,-3.84571 0.761656,-1.29411 1.415817,-2.80144 1.590811,-3.66556 0.163465,-0.80719 1.119094,-3.08887 2.123618,-5.07039 1.004524,-1.98152 1.826408,-3.69348 1.826408,-3.80434 0,-0.11087 -0.453167,0.30908 -1.007037,0.93321 -0.55387,0.62413 -1.586637,1.44312 -2.295037,1.81997 -1.425852,0.75851 -1.444297,0.79676 -2.10655,4.36948 -0.240745,1.29876 -0.559232,2.54892 -0.707751,2.77812 -0.209411,0.32318 -0.234641,0.26824 -0.112385,-0.24472 0.367764,-1.54304 0.450992,-4.16706 0.165522,-5.21853 -0.234792,-0.86481 -0.572422,-1.30259 -1.493167,-1.93607 -2.387674,-1.64277 -4.098825,-1.15139 -5.359851,1.53915 -0.669244,1.42791 -0.709355,1.73354 -0.702224,5.35087 0.0083,4.23122 0.295437,5.52855 1.720866,7.77621 0.845275,1.33286 0.440313,1.36045 -0.782362,0.0533 -1.196269,-1.27892 -2.136692,-0.6644 -2.136692,1.39622 0,0.89318 0.37461,3.1232 0.923625,5.49829 0.11764,0.50892 0.0039,0.57894 -1.080488,0.66519 -0.666584,0.053 -1.258461,0.0212 -1.315283,-0.0708 z m 12.868016,-24.12082 c 1.547641,-1.04295 2.392962,-2.75912 2.664231,-5.40892 0.369587,-3.61018 -0.374253,-10.44471 -1.629912,-14.9759 -0.554272,-2.00016 -0.750954,-7.15376 -0.284029,-7.44233 0.131949,-0.0815 0.181071,0.0767 0.109159,0.35171 -0.243009,0.92927 0.454068,5.33444 1.126643,7.11982 0.814916,2.16323 1.600642,5.61221 2.118421,9.29891 0.21341,1.51953 0.425458,2.80022 0.471218,2.84598 0.04576,0.0458 0.234942,-0.42359 0.420403,-1.04299 0.523907,-1.74974 1.922375,-4.32953 3.83632,-7.07695 1.206692,-1.73218 1.967494,-3.16854 2.452504,-4.63021 0.64087,-1.93142 0.70452,-2.49804 0.71896,-6.4002 0.009,-2.35464 0.0898,-4.08105 0.1802,-3.83646 0.19738,0.53409 0.66738,3.49331 0.93208,5.86868 l 0.19165,1.71979 0.33541,-1.71979 c 0.18447,-0.94589 0.41728,-2.80737 0.51734,-4.13663 0.18051,-2.39808 0.1751,-2.42876 -0.69774,-3.95433 -0.48382,-0.84563 -1.43929,-2.1181 -2.12327,-2.82771 -1.074298,-1.11457 -1.364789,-1.27862 -2.133799,-1.20504 l -0.890199,0.0852 -0.290443,3.70416 c -0.32204,4.10716 -0.865432,5.80221 -3.0258,9.43865 -1.055044,1.7759 -1.762234,2.38894 -0.967327,0.83855 0.212112,-0.41371 0.778136,-1.94282 1.257831,-3.39803 0.851031,-2.5817 0.873867,-2.7709 0.942057,-7.80521 0.03955,-2.91961 -0.045,-5.52509 -0.194746,-6.00182 -0.274391,-0.87351 -2.104644,-2.73248 -2.683272,-2.72538 -0.181482,0.002 -0.462679,0.0915 -0.624882,0.19844 -0.287408,0.18944 -1.642363,5.41273 -1.736794,6.69527 -0.02603,0.35358 -0.118607,-1.14307 -0.20572,-3.32588 -0.182733,-4.57884 -0.646298,-6.07058 -2.176343,-7.00342 -1.476928,-0.90045 -0.973209,-1.57422 -5.975257,7.99246 -0.36051,0.68949 -0.716406,1.82058 -0.790882,2.51354 -0.07448,0.69295 -0.642422,2.33148 -1.262104,3.64117 -4.095753,8.65629 -4.550471,14.11677 -1.933402,23.21718 0.449871,1.56435 0.905397,2.84427 1.012281,2.84427 0.592858,0 0.681015,-4.85426 0.12493,-6.87916 -1.069829,-3.89563 -0.766047,-6.93541 1.056075,-10.56753 1.001071,-1.99549 1.463741,-3.89524 1.472973,-6.0481 0.0079,-1.83279 0.310919,-3.28034 1.218571,-5.82045 0.787721,-2.20448 1.149416,-2.40986 0.48967,-0.27804 -0.28417,0.91823 -0.507909,2.99459 -0.637168,5.91308 -0.197752,4.46501 -0.207262,4.51779 -1.299833,7.21534 -0.965334,2.3834 -1.099997,2.96882 -1.095521,4.7625 0.0028,1.12479 0.165979,2.64039 0.362603,3.36799 l 0.357499,1.32292 0.298856,-0.74483 c 0.16437,-0.40966 0.298855,-0.88674 0.298855,-1.06019 0,-0.6024 2.613564,-5.60866 3.40871,-6.52936 0.789005,-0.91359 0.785757,-0.89758 -0.241584,1.19063 -1.67287,3.40033 -2.169768,5.70488 -2.196367,10.18645 -0.01769,2.981 0.08323,4.18793 0.452612,5.41266 1.445282,4.79204 3.837144,6.73792 6.268332,5.09954 z m 35.703688,0.005 c 1.178,-0.80079 2.53489,-3.33586 3.07161,-5.7387 0.34159,-1.52924 0.40497,-2.70983 0.28407,-5.29167 -0.18695,-3.99263 -0.84776,-6.79295 -2.26637,-9.60427 -1.22547,-2.42857 -0.95402,-2.41582 0.61033,0.0286 1.07993,1.68752 2.50679,4.85947 2.93155,6.51693 l 0.20342,0.79375 0.39163,-1.19063 c 0.22722,-0.69081 0.39902,-2.24577 0.40923,-3.70416 0.0166,-2.36591 -0.042,-2.64564 -0.99762,-4.7625 -0.99953,-2.21417 -1.01846,-2.31649 -1.22352,-6.61459 -0.18128,-3.79968 -0.51028,-6.05689 -1.17623,-8.06979 -0.14255,-0.43085 -0.12117,-0.45543 0.11506,-0.13229 0.78983,1.08041 1.88623,5.41373 2.09352,8.27422 0.20176,2.78434 0.29605,3.14474 1.50402,5.7487 1.21945,2.62872 1.2946,2.92042 1.39736,5.42396 0.077,1.87571 -0.0145,3.11902 -0.3143,4.27152 -0.43083,1.65617 -0.52769,5.59593 -0.17469,7.10556 0.17252,0.73781 0.22501,0.66323 0.74487,-1.05833 1.09628,-3.63045 1.38075,-4.79479 1.77769,-7.27605 0.50873,-3.18004 0.50834,-4.94899 -0.002,-7.63761 -0.54221,-2.85833 -1.44366,-5.5521 -3.05162,-9.11906 -0.7326,-1.62513 -1.38664,-3.49056 -1.45343,-4.14541 -0.0668,-0.65484 -0.45864,-1.84547 -0.87079,-2.64583 -2.89052,-5.6132 -4.34928,-8.20149 -4.62024,-8.19773 -0.17249,0.002 -0.78736,0.27266 -1.36638,0.6006 -1.71536,0.97153 -2.01328,2.10045 -1.8652,7.06796 0.13241,4.44197 0.0918,4.42465 -1.0648,-0.45388 -0.38692,-1.63208 -0.86937,-3.10508 -1.07211,-3.27334 -0.78741,-0.6535 -2.90768,0.9414 -3.37218,2.5366 -0.0848,0.29104 -0.1719,2.79135 -0.19368,5.55625 -0.0423,5.37508 0.13714,6.42076 1.83911,10.71562 0.55267,1.39465 0.55449,1.42768 0.0438,0.79375 -0.93287,-1.15797 -2.89326,-5.16521 -3.31045,-6.76694 -0.22152,-0.85048 -0.41686,-2.44404 -0.43407,-3.54125 -0.0469,-2.98986 -0.2224,-3.56573 -1.11783,-3.66841 -1.03838,-0.11908 -1.5445,0.41748 -3.4999,3.71039 l -1.6809,2.83066 0.23567,2.06635 c 0.12962,1.13649 0.38844,2.89878 0.57515,3.91621 l 0.33948,1.84987 0.20842,-2.58215 c 0.11462,-1.42018 0.36452,-3.26565 0.55532,-4.10104 0.34651,-1.51714 0.34692,-1.51491 0.34949,1.92069 0.004,5.19018 0.98279,8.47737 3.54065,11.88958 1.30792,1.74477 2.86238,4.60424 3.57933,6.58428 l 0.57086,1.57656 0.18836,-2.08771 c 0.29031,-3.21766 1.11717,-7.12213 2.15337,-10.1683 0.69976,-2.05713 0.9908,-3.44635 1.13402,-5.41316 l 0.19267,-2.64584 0.20625,2.16028 c 0.2254,2.36095 0.15035,3.00699 -0.76791,6.61046 -0.77541,3.04287 -1.43879,8.66053 -1.43921,12.18757 -3.9e-4,3.27646 0.56114,5.05025 2.0485,6.47094 1.53261,1.46392 2.62069,1.64779 4.04032,0.68273 z m -7.94122,-52.54022 c 1.84702,-1.05564 5.02708,-4.33466 5.02708,-5.18352 0,-0.99977 -0.64834,-1.11416 -1.84109,-0.32484 -1.33717,0.8849 -2.37489,2.1912 -3.12559,3.93453 l -0.60106,1.39582 0.15946,-1.19062 c 0.2531,-1.88973 1.54289,-4.36818 3.15008,-6.05314 1.04394,-1.09447 1.46445,-1.74282 1.46445,-2.25791 0,-0.65335 -0.0394,-0.6832 -0.41102,-0.31156 -0.22606,0.22606 -1.06096,0.84242 -1.85534,1.3697 -1.75752,1.16658 -3.0928,2.6842 -3.94308,4.48153 -0.79218,1.67454 -1.10832,3.80395 -0.68278,4.59908 0.36064,0.67386 0.81342,0.59569 2.65889,-0.45907 z m -19.454263,-0.99676 c -0.0089,-1.88191 -0.903097,-4.00073 -2.376882,-5.63204 -1.232718,-1.36447 -4.362609,-3.58785 -4.362609,-3.09907 0,0.19486 0.611252,1.11361 1.358338,2.04166 1.629119,2.02374 2.813627,4.40587 3.040341,6.11434 0.135659,1.0223 0.317745,1.34905 0.992583,1.7812 0.454546,0.29108 0.945509,0.49035 1.09103,0.44282 0.145521,-0.0475 0.261261,-0.78953 0.257199,-1.64891 z m -3.29404,-1.68317 c -0.903134,-1.78909 -3.097915,-4.24495 -3.793685,-4.24495 -0.322988,0 -0.445516,0.22835 -0.445516,0.83031 0,0.60262 0.302324,1.16491 1.102488,2.05052 1.373484,1.52014 3.764863,3.49801 3.873244,3.20348 0.04452,-0.12097 -0.286922,-0.94868 -0.736531,-1.83936 z m 16.223623,-0.27412 c 0.76168,-0.46163 1.66413,-1.24688 2.00545,-1.74501 0.55695,-0.81281 1.46404,-3.7817 1.22766,-4.01808 -0.052,-0.052 -0.79113,0.2541 -1.6426,0.68014 -0.85147,0.42604 -2.17509,0.92241 -2.94137,1.10305 -1.59121,0.3751 -2.16571,0.99593 -2.20521,2.38304 l -0.0266,0.93332 -0.24486,-1.04507 c -0.33534,-1.43129 -0.8376,-1.90091 -2.43583,-2.27754 -0.75196,-0.1772 -2.04841,-0.66297 -2.881,-1.07948 -0.8326,-0.4165 -1.561365,-0.75729 -1.619488,-0.75729 -0.159759,0 0.274884,2.14045 0.617858,3.04271 1.28762,3.38734 6.69801,4.86989 10.14597,2.78021 z m -4.72878,-5.75677 c 0.33859,-0.8698 0.47182,-5.99288 0.17546,-6.74687 -0.24918,-0.63397 -0.43155,-0.72842 -1.41702,-0.73389 -0.62206,-0.003 -1.8454,-0.31021 -2.71852,-0.68169 -0.87313,-0.37148 -1.765405,-0.69607 -1.982838,-0.72133 -0.740781,-0.086 -1.323878,1.64628 -1.320435,3.92284 0.0043,2.86378 0.139519,3.23479 1.415933,3.88597 2.87378,1.46609 5.50674,1.95013 5.84742,1.07497 z m 6.72104,-0.61635 c 2.28078,-1.01982 2.41591,-1.26015 2.41534,-4.29567 -4.4e-4,-2.32537 -0.57817,-4.05838 -1.32405,-3.97176 -0.21743,0.0253 -1.10971,0.34985 -1.98283,0.72133 -0.92191,0.39223 -2.10256,0.67804 -2.81597,0.68169 -0.87197,0.004 -1.27506,0.12773 -1.38906,0.4248 -0.26738,0.69678 -0.17981,6.11109 0.11123,6.87657 0.25872,0.68051 0.33875,0.70804 1.66118,0.57155 0.76414,-0.0789 2.26002,-0.5327 3.32416,-1.00851 z m -16.489833,-4.00901 c -0.103697,-1.05236 -0.35113,-2.30252 -0.549853,-2.77812 -0.681686,-1.63151 0.104158,-0.86493 1.048592,1.02288 1.006763,2.0124 1.189466,1.94425 0.551042,-0.20556 -0.461795,-1.55503 -1.885826,-3.82657 -3.791309,-6.04769 -1.410699,-1.64438 -2.967857,-4.45716 -2.947446,-5.32414 0.0078,-0.33262 0.181914,-0.17441 0.526998,0.47894 0.283418,0.53661 1.131794,1.48911 1.88528,2.11667 0.753485,0.62756 2.004617,1.72384 2.780293,2.43618 l 1.410319,1.29515 v -1.24103 c 0,-1.3358 -0.04133,-1.39261 -2.489887,-3.4226 -0.673355,-0.55825 -1.391342,-1.33806 -1.595527,-1.73291 -0.527764,-1.02058 -1.552418,-4.27017 -1.395836,-4.42675 0.07217,-0.0722 0.878092,0.79823 1.790938,1.93422 2.555899,3.18068 2.369675,3.1305 2.194123,0.59122 -0.315506,-4.56366 0.484974,-5.57287 6.904096,-8.70442 l 4.37513,-2.13438 4.14657,2.00055 c 4.78096,2.30662 5.91175,3.11161 6.72191,4.78516 0.5143,1.06241 0.56912,1.50842 0.45456,3.69843 -0.0716,1.36968 -0.0979,2.49033 -0.0583,2.49033 0.0396,0 0.93064,-1.07673 1.98011,-2.39274 1.04946,-1.31601 1.96399,-2.33687 2.03229,-2.26858 0.21175,0.21175 -0.73135,3.14386 -1.41419,4.39674 -0.39026,0.71605 -1.27737,1.66269 -2.22559,2.37496 -0.86717,0.65139 -1.59142,1.2467 -1.60944,1.32292 -0.018,0.0762 -0.0723,0.71551 -0.12064,1.42065 l -0.0879,1.28207 1.25973,-1.14978 c 0.69285,-0.63238 1.9397,-1.72386 2.77076,-2.4255 0.83106,-0.70165 1.74964,-1.74345 2.04127,-2.31511 0.6442,-1.26272 0.83077,-1.33096 0.50168,-0.18349 -0.48772,1.7006 -1.59093,3.55207 -3.43135,5.75869 -1.98263,2.37715 -3.27408,4.72932 -3.55906,6.4823 -0.15622,0.96097 -0.0841,0.88186 0.78394,-0.8599 0.52579,-1.05503 1.07398,-1.91823 1.2182,-1.91823 0.16368,0 0.1526,0.20482 -0.0295,0.54506 -0.28875,0.53954 -0.7878,4.21744 -0.57226,4.21744 0.0615,0 0.56465,-0.25449 1.11808,-0.56553 0.82546,-0.46394 0.97027,-0.66275 0.80606,-1.10665 -0.40395,-1.09197 1.11408,-6.34152 2.12659,-7.35403 0.27433,-0.27433 0.64762,-0.499 0.82952,-0.49926 0.1819,-2.6e-4 0.65641,-0.51602 1.05448,-1.14613 0.39806,-0.63011 0.96361,-1.36273 1.25677,-1.62803 0.63514,-0.5748 0.67099,-1.51451 0.14144,-3.70766 -0.21083,-0.87312 -0.38756,-2.02838 -0.39275,-2.56724 -0.0121,-1.25845 -0.43785,-2.24428 -1.43367,-3.31974 -0.63938,-0.69051 -0.70523,-0.85989 -0.33431,-0.85989 0.25406,0 0.82426,0.18737 1.26712,0.41638 0.44286,0.22901 0.87598,0.34561 0.96248,0.2591 0.23332,-0.23331 -1.50493,-1.68404 -2.72,-2.27008 l -1.05833,-0.51045 0.98683,-0.006 c 0.54276,-0.003 1.47043,0.18769 2.0615,0.42418 1.28423,0.51385 1.54574,0.35494 0.93921,-0.57074 -0.4195,-0.64024 -2.4114,-1.71133 -3.18255,-1.71133 -0.31735,0 -1.05125,1.98896 -1.7329,4.69635 -0.15571,0.61846 -0.33475,1.12448 -0.39785,1.12448 -0.0631,0 -0.37202,-0.59806 -0.68647,-1.32902 -0.67911,-1.57864 -1.61292,-2.428 -3.33514,-3.03355 -4.35464,-1.53112 -5.19131,-1.92295 -8.17636,-3.82915 -0.49451,-0.31579 -0.6627,-0.27949 -1.45521,0.31405 -1.39399,1.04402 -4.41392,2.50837 -6.452312,3.12869 -2.57864,0.78472 -4.08113,1.80637 -5.01953,3.41313 -0.429098,0.73472 -0.874228,1.33585 -0.989178,1.33585 -0.11495,0 -0.209,-0.75766 -0.209,-1.68368 0,-3.11779 -0.383029,-4.40935 -1.646547,-5.55209 -0.619114,-0.55994 -1.650276,-1.32551 -2.291471,-1.70128 l -1.165808,-0.68321 -0.490796,0.60611 c -0.342314,0.42274 -0.490795,1.03748 -0.490795,2.032 0,0.78424 0.02977,1.42461 0.06615,1.42303 0.03638,-0.002 0.650615,-0.18016 1.364967,-0.39687 1.496247,-0.4539 2.961911,-0.5132 3.199095,-0.12943 0.09056,0.14653 -0.109065,0.26837 -0.447406,0.27308 -0.33601,0.005 -1.259587,0.33209 -2.052394,0.7276 -2.360185,1.17744 -2.620745,2.37966 -0.338462,1.56166 0.687919,-0.24656 1.661093,-0.4477 2.162608,-0.44698 l 0.911845,0.001 -1.30872,0.65768 c -1.635738,0.82203 -2.960327,1.87608 -2.694461,2.14415 0.110968,0.11188 0.621023,0.003 1.133456,-0.24087 1.682223,-0.8022 1.863131,-0.53327 0.57073,0.84841 -0.783298,0.83741 -1.255423,1.6062 -1.340487,2.18281 -0.07222,0.48956 -0.266932,1.73852 -0.432687,2.77547 -0.165755,1.03695 -0.214976,2.34664 -0.109378,2.91042 0.235965,1.25981 1.732664,3.5249 2.700193,4.08645 0.979047,0.56823 1.763116,2.07881 2.443118,4.70689 0.539517,2.08514 0.567007,2.77513 0.14971,3.75764 -0.128424,0.30237 0.164501,0.60271 1.090455,1.11804 0.696326,0.38754 1.370728,0.70752 1.498672,0.71106 0.129814,0.004 0.149298,-0.8392 0.04408,-1.90695 z m -3.996409,-0.19738 c 0.896827,-0.34097 0.896504,-1.40038 -0.0013,-4.24241 -0.844505,-2.67333 -1.399369,-3.2963 -2.724938,-3.05941 -1.851302,0.33084 -4.740632,0.48656 -5.697431,0.30707 -0.66658,-0.12505 -1.597342,-0.73909 -3.009779,-1.98561 -1.124627,-0.99251 -3.190882,-2.74281 -4.591677,-3.88954 -2.619364,-2.14428 -12.121729,-11.00649 -11.982459,-11.17522 0.0797,-0.0966 3.56262,2.25047 5.25451,3.54094 0.71753,0.54729 0.94048,0.62009 0.94048,0.3071 0,-0.56805 -1.39596,-4.29977 -2.51225,-6.71584 -0.51004,-1.1039 -0.92734,-2.06443 -0.92734,-2.13452 0,-0.32565 0.95199,0.72575 2.04863,2.26256 l 1.20706,1.69154 1.21643,-0.17777 c 1.53199,-0.22388 3.839596,-1.14192 5.756061,-2.28993 1.719338,-1.02993 5.017592,-4.01809 6.494428,-5.88384 0.994064,-1.25584 1.017887,-1.33516 0.8491,-2.82704 -0.147674,-1.30526 -0.08713,-1.67495 0.404581,-2.47056 0.841557,-1.36167 2.782768,-2.9723 4.665096,-3.87064 2.195158,-1.04765 2.749305,-0.99538 0.833338,0.0786 -2.522127,1.41376 -4.68593,3.77533 -4.688317,5.1168 -0.0017,0.95781 1.300944,3.0865 2.863091,4.67864 1.305676,1.33075 1.772458,1.61601 3.57835,2.1868 4.110024,1.29907 11.539438,1.38696 13.809328,0.29873 1.27228,-0.60996 1.55764,-0.17394 1.21149,-8.02822 -0.10961,-2.48719 0.39012,-7.20498 -1.72995,-7.15427 -1.02755,-0.247 -1.49437,-0.24382 -2.15945,-0.34382 -2.16028,-0.32485 -4.519172,-0.82806 -6.429682,-1.17976 -3.074389,-0.565962 -3.888905,-1.03565 -6.079794,-1.255299 -4.207937,-0.421869 -5.616297,-0.441715 -8.650224,-0.433521 -6.213769,0.01678 -6.511355,-0.03227 -8.734526,2.19091 -1.66906,1.66906 -2.24295,2.8246 -2.20533,4.44051 0.0516,2.2168 0.16032,2.34273 2.13182,2.46934 1.079116,0.0693 4.323877,0.576 6.78887,2.42475 1.169249,0.87694 0.939845,0.99943 -0.59785,0.31924 -1.802298,-0.79724 -4.916611,-1.06389 -6.84446,-0.58601 -1.3834,0.34291 -1.60398,0.33796 -2.19486,-0.0492 -0.3613,-0.23673 -0.78368,-0.70865 -0.93862,-1.04871 -0.29747,-0.65286 -1.24212,-1.20581 -2.06002,-1.20581 -1.37169,0 -3.919,1.10208 -5.25352,2.27291 -0.7709,0.67635 -1.36157,1.26979 -1.31259,1.31877 0.049,0.049 0.59031,-0.0836 1.20295,-0.29471 1.29136,-0.44491 3.33034,-0.92679 3.14739,-0.74384 -0.0687,0.0687 -1.7004,1.07328 -3.62601,2.23242 -1.92562,1.15914 -3.75393,2.43148 -4.06291,2.82742 -0.30897,0.39595 -1.11287,1.33062 -1.78643,2.07706 -0.76351,0.84612 -1.3997,1.89252 -1.6895,2.77888 -0.25565,0.78195 -0.6272,1.74306 -0.82567,2.13582 -0.34435,0.68147 -0.29982,0.78741 0.97468,2.31888 1.6979,2.04023 4.39645,4.78686 6.6016,6.71922 1.67233,1.46545 1.69059,1.49505 0.66146,1.07231 -0.58208,-0.23911 -1.87185,-0.96071 -2.86616,-1.60355 l -1.80782,-1.16881 0.6172,1.10248 c 1.18199,2.11135 6.88819,6.22173 10.60153,7.63667 3.96677,1.51151 11.431314,4.84114 12.313769,5.49268 0.476766,0.35201 1.427419,1.23931 2.112561,1.97178 1.228523,1.31339 1.264023,1.33006 2.572734,1.2082 1.879059,-0.17497 4.353417,-1.17615 4.635601,-1.87566 0.126365,-0.31325 0.237302,-0.40614 0.246526,-0.20642 0.01422,0.30778 0.08425,0.30778 0.459529,0 0.394434,-0.3235 0.425997,-0.29809 0.28919,0.23281 -0.102315,0.39704 -0.0073,0.68134 0.284847,0.85185 0.349987,0.20429 0.271509,0.25753 -0.389086,0.26396 -0.956752,0.009 -1.507923,0.53319 -1.254835,1.19273 0.140502,0.36614 0.377108,0.42581 1.179656,0.29747 0.552147,-0.0883 1.308549,-0.27635 1.680895,-0.41792 z m -8.363815,-4.50604 c 0.962056,-0.80177 2.34203,-1.08494 3.664463,-0.75195 1.532733,0.38594 1.446437,0.64287 -0.178114,0.53029 -0.758289,-0.0525 -1.849644,0.0884 -2.560839,0.33073 -1.571108,0.53533 -1.682931,0.52216 -0.92551,-0.10907 z M 62.545584,127.23674 c -3.38651,-2.71307 -6.29796,-5.53144 -6.88318,-6.66312 -0.31963,-0.61809 -0.35865,-0.98873 -0.15931,-1.51303 0.36542,-0.96113 1.48578,-2.38362 2.2949,-2.91378 0.65882,-0.43167 0.65506,-0.41261 -0.14867,0.75558 -0.45349,0.65913 -0.82454,1.39043 -0.82454,1.6251 0,0.55115 2.11384,2.80849 3.76488,4.02046 0.70789,0.51964 1.23087,1.00101 1.16216,1.06971 -0.0687,0.0687 -0.87797,-0.31598 -1.79837,-0.85486 -2.03967,-1.19419 -1.93807,-1.05398 2.54434,3.5109 1.75043,1.78263 3.11707,3.24114 3.03699,3.24114 -0.0801,0 -1.42523,-1.02515 -2.9892,-2.2781 z m 61.176416,19.9046 c 0.11161,-0.58791 -0.36343,-0.94483 -1.28054,-0.96211 -0.61736,-0.0116 -0.62954,-0.0367 -0.18261,-0.37553 0.30262,-0.22944 0.37565,-0.42684 0.19844,-0.53636 -0.15423,-0.0953 -0.28042,-0.29993 -0.28042,-0.45468 0,-0.17742 0.14661,-0.15969 0.39688,0.048 0.31932,0.26502 0.39687,0.25984 0.39687,-0.0265 0,-0.20899 0.15917,-0.12861 0.38569,0.19479 0.52028,0.74281 2.81555,1.6974 4.49911,1.87116 1.26567,0.13063 1.44944,0.0749 2.34528,-0.71169 0.5346,-0.46939 0.97201,-1.00387 0.97201,-1.18774 0,-0.18387 0.47689,-0.6499 1.05975,-1.03562 1.09332,-0.72353 10.42341,-4.85289 12.3017,-5.44457 2.76651,-0.87146 9.05214,-5.25265 10.44928,-7.28333 0.43753,-0.63593 0.79552,-1.22981 0.79552,-1.31972 0,-0.0899 -0.50602,0.18314 -1.12448,0.60678 -1.31942,0.90378 -3.22951,1.901 -3.64122,1.901 -0.15887,0 0.40193,-0.57509 1.24623,-1.27797 1.60448,-1.33574 6.74108,-6.6312 7.4109,-7.64009 0.35007,-0.52728 0.31993,-0.75739 -0.31193,-2.38125 -0.3847,-0.98866 -0.82613,-2.12499 -0.98095,-2.52517 -0.15483,-0.40018 -0.37432,-0.7276 -0.48776,-0.7276 -0.11344,0 -0.84198,-0.78355 -1.61898,-1.74122 -1.12297,-1.38409 -1.98305,-2.08271 -4.19341,-3.40621 -1.52938,-0.91574 -3.13788,-1.85384 -3.57445,-2.08465 -0.6906,-0.36512 -0.71945,-0.42103 -0.22201,-0.43025 0.31446,-0.006 1.32649,0.2209 2.24896,0.50383 l 1.67722,0.51442 -1.49424,-1.40374 c -1.21446,-1.14091 -1.81752,-1.49125 -3.22085,-1.87112 -2.1572,-0.58392 -2.85477,-0.42323 -3.4338,0.79099 -0.53311,1.11795 -1.27585,1.45417 -2.55507,1.15661 -1.93734,-0.45065 -4.81011,-0.25788 -6.49396,0.43576 -1.97432,0.8133 -2.03812,0.81202 -1.05833,-0.0214 1.53329,-1.30416 3.98946,-2.28706 6.15804,-2.46429 1.86837,-0.15271 2.03553,-0.21538 2.20491,-0.82669 0.64205,-2.31736 -0.0269,-4.39485 -2.07911,-6.45709 -2.08976,-2.099936 -1.88765,-2.058421 -9.17124,-1.883853 l -6.43061,0.154125 -4.60141,1.15003 c -3.52541,0.881108 -5.32289,1.188118 -7.68673,1.312888 -1.69692,0.0896 -3.36869,0.2706 -3.71504,0.40228 -1.31772,0.50099 -1.33321,0.60405 -1.09359,7.27727 0.24381,6.79007 0.26928,6.89239 2.04459,8.21446 0.66674,0.49652 1.09299,0.54423 4.74615,0.53127 6.87155,-0.0244 9.9821,-1.16084 12.47956,-4.55948 0.50403,-0.68591 1.1116,-1.7481 1.35015,-2.36043 0.4249,-1.09063 0.42006,-1.13645 -0.23768,-2.24896 -0.90425,-1.52946 -2.39599,-2.92868 -4.15445,-3.89677 -1.91888,-1.05642 -1.21386,-1.03791 1.02051,0.0268 1.14817,0.5471 2.34187,1.42103 3.44257,2.52034 l 1.68496,1.68282 -0.15428,1.51455 c -0.0848,0.83299 -0.23003,1.89143 -0.32263,2.35207 -0.1584,0.7879 0.002,1.00921 2.70265,3.73493 3.03655,3.06447 5.02936,4.40052 7.74768,5.19433 2.41785,0.70607 2.93399,0.59315 3.917,-0.85699 0.47089,-0.69467 1.21969,-1.61131 1.66401,-2.03699 l 0.80784,-0.77396 -1.0442,2.26017 c -1.07098,2.31813 -2.76006,6.86334 -2.60731,7.0161 0.047,0.047 1.09146,-0.63507 2.32111,-1.51563 3.33557,-2.38863 4.17818,-2.7087 2.21001,-0.8395 -6.58895,6.25766 -8.97365,8.44693 -10.82221,9.93531 -1.16417,0.93734 -2.93003,2.44303 -3.92414,3.34598 -0.99411,0.90295 -2.10318,1.75416 -2.46462,1.89158 -0.88345,0.33589 -3.50845,0.31571 -5.56718,-0.0428 -1.35516,-0.23599 -1.76469,-0.22319 -2.11519,0.0661 -1.01692,0.83944 -2.54753,6.06946 -1.95158,6.66849 0.93713,0.94197 3.25431,1.17052 3.41263,0.3366 z m 5.20175,-4.06531 c -0.52507,-0.29142 -1.43392,-0.44457 -2.68496,-0.45243 -2.0534,-0.0129 -2.25309,-0.23423 -0.61042,-0.67655 1.29635,-0.34907 2.87691,0.0614 3.72894,0.9683 0.68627,0.7305 0.63042,0.7512 -0.43356,0.16068 z m 21.83155,-17.418 3.83303,-3.85681 -1.78594,0.97067 c -0.98226,0.53388 -1.78593,0.91921 -1.78593,0.85631 0,-0.0629 0.95113,-0.91053 2.11362,-1.88362 1.16249,-0.97308 2.30505,-2.13942 2.53902,-2.59186 0.41424,-0.80107 0.40407,-0.85286 -0.38838,-1.97712 -0.44758,-0.63498 -0.70728,-1.15451 -0.57713,-1.15451 0.39952,0 2.4002,2.42904 2.57529,3.12669 0.24603,0.98025 -0.53551,2.19639 -2.80357,4.36255 -2.20916,2.10991 -6.95839,6.00451 -7.32213,6.00451 -0.127,0 1.49395,-1.73556 3.60212,-3.85681 z m -45.60128,16.75525 c 0.60906,-1.15554 0.8185,-6.88563 0.28771,-7.87136 -0.32181,-0.59762 -0.50996,-0.65925 -1.94954,-0.63862 -1.33289,0.0191 -1.91466,0.19664 -3.559018,1.0861 -2.34369,1.26774 -2.691821,1.80265 -2.463924,3.78586 0.306848,2.67025 0.503789,2.91278 3.023162,3.72295 1.23067,0.39576 2.68101,0.73202 3.22298,0.74726 0.85485,0.024 1.04544,-0.0862 1.43863,-0.83219 z m 7.26957,0.13229 c 2.74655,-0.83334 2.97433,-1.0886 3.24628,-3.63802 0.23635,-2.21565 -0.0793,-2.68592 -2.70851,-4.0349 -1.77812,-0.91231 -2.46041,-1.12448 -3.61619,-1.12448 -0.78351,0 -1.50683,0.13311 -1.60738,0.2958 -0.4489,0.72633 -0.57705,2.31514 -0.40141,4.97672 0.30152,4.56925 0.71071,4.85277 5.08721,3.52488 z m -24.948707,-3.47444 c 0.49506,-0.31376 -1.863811,-3.00489 -6.252724,-7.13346 -3.599154,-3.38565 -4.718934,-4.82183 -5.763561,-7.39207 -0.338221,-0.83218 -0.769894,-1.50884 -0.959274,-1.50369 -0.989122,0.0269 -3.65774,0.79935 -3.58458,1.03759 0.0466,0.15178 0.43755,1.38871 0.86875,2.74872 l 0.784,2.47275 4.804504,4.60802 c 2.642476,2.53441 5.142788,4.78445 5.55625,5.00009 0.816708,0.42596 3.953819,0.53778 4.546635,0.16205 z m 45.965867,-3.33291 c 6.09063,-5.67551 6.6635,-6.31762 7.15973,-8.02505 0.24067,-0.82809 0.64761,-1.99574 0.90432,-2.59478 l 0.46674,-1.08916 -2.09213,-0.51172 c -1.50073,-0.36707 -2.09212,-0.42311 -2.09212,-0.19825 0,0.17241 -0.47369,1.25987 -1.05264,2.41659 -0.94785,1.89374 -1.59843,2.64927 -6.53504,7.58919 -4.32409,4.327 -5.40138,5.54033 -5.09892,5.74284 0.21091,0.14122 1.34456,0.22245 2.51922,0.18051 l 2.13575,-0.0763 z m -32.90227,-2.02691 c 0.71192,-0.45683 1.84647,-0.93374 2.52122,-1.0598 0.67476,-0.12606 1.50384,-0.48943 1.8424,-0.8075 0.83261,-0.78219 1.39977,-2.83202 1.39977,-5.05899 V 124.945 l -1.23531,0.16932 c -1.2541,0.17189 -2.44869,0.68485 -5.776145,2.4803 -1.517283,0.8187 -1.959698,1.2123 -2.447396,2.17731 -0.728067,1.44064 -0.806249,3.5692 -0.15743,4.28614 0.703934,0.77784 2.328163,0.63166 3.852891,-0.34676 z m 15.9582,0.38759 c 0.67564,-0.67564 0.44749,-3.65112 -0.36774,-4.796 -0.78506,-1.10251 -6.44363,-3.94918 -8.34637,-4.19882 l -1.29742,-0.17023 0.15967,2.09206 c 0.28114,3.68342 1.11936,5.22699 3.00175,5.52765 0.9505,0.15182 2.21262,0.68295 3.79905,1.59873 0.90187,0.52061 2.50512,0.49256 3.05106,-0.0534 z m -30.097429,-2.61469 c 0.914342,-0.64043 0.765804,-1.95599 -0.501726,-4.44366 -1.039435,-2.04001 -1.082309,-2.21861 -0.928323,-3.86714 0.08879,-0.9506 0.235313,-2.11394 0.325598,-2.58521 0.126232,-0.6589 0.06153,-0.89623 -0.280088,-1.02732 -0.66238,-0.25418 -0.947692,0.18295 -1.606974,2.46203 l -0.598216,2.06797 -0.194248,-1.28432 c -0.197556,-1.3062 -0.05327,-3.6307 0.277489,-4.47036 0.381074,-0.9674 -0.833284,-0.44338 -2.525724,1.08991 l -1.714125,1.55293 0.0059,1.9528 c 0.0047,1.57024 0.149969,2.26378 0.741432,3.54029 1.071634,2.31283 3.13502,4.32978 5.17541,5.05894 1.216886,0.43486 1.132783,0.43703 1.82362,-0.0469 z M 128.92375,131.204 c 1.65551,-0.76889 3.36647,-2.54023 4.17408,-4.32138 0.80724,-1.78033 1.19206,-4.18085 0.87362,-5.44963 -0.2047,-0.81556 -2.97693,-3.54517 -3.60952,-3.55402 -0.35847,-0.005 -0.3983,0.4017 -0.29744,3.03691 0.0641,1.67349 0.0536,3.04271 -0.0233,3.04271 -0.0769,0 -0.38654,-0.81226 -0.68808,-1.80503 -0.58224,-1.91688 -1.41539,-3.00327 -1.91787,-2.5008 -0.20416,0.20416 -0.16123,0.83138 0.1508,2.20327 0.50729,2.23042 0.40638,2.90958 -0.78517,5.28395 -1.20646,2.40409 -1.32794,4.08163 -0.32448,4.48082 0.6426,0.25563 1.20626,0.15963 2.4474,-0.4168 z m -3.41282,-10.87987 c -0.0981,-0.83478 -0.27114,-1.61054 -0.3845,-1.7239 -0.24792,-0.24792 -3.08619,1.73288 -3.3068,2.30778 -0.11853,0.30889 0.0464,0.41099 0.69628,0.43112 0.46837,0.0145 1.14924,0.1217 1.51305,0.23821 1.5634,0.50069 1.67683,0.40477 1.48197,-1.25321 z m -17.92166,-18.9446 c 0.34678,-0.41785 1.68011,-0.72341 7.0982,-1.626712 5.48553,-0.91454 5.58199,-0.967231 3.85138,-2.103738 -0.5457,-0.358368 -1.28984,-0.892995 -1.65364,-1.188061 -0.36381,-0.295066 -0.88334,-0.539131 -1.15453,-0.542366 -0.43399,-0.0052 -0.47456,0.144669 -0.33864,1.250887 l 0.15442,1.256771 -0.3894,-0.85911 c -0.21417,-0.472511 -0.52953,-2.317979 -0.7008,-4.101042 -0.17128,-1.783062 -0.34298,-3.284852 -0.38158,-3.33731 -0.0386,-0.05246 -0.80637,0.483322 -1.70619,1.190625 l -1.63602,1.286004 -2.71279,0.08932 c -3.07019,0.101086 -3.47665,-0.03259 -5.48812,-1.80501 -0.69122,-0.609073 -1.25883,-0.94846 -1.26135,-0.754191 -0.0142,1.091277 -0.56194,5.563639 -0.81301,6.637885 -0.38102,1.630283 -0.662929,1.787922 -0.544831,0.304659 0.07302,-0.91707 0.0052,-1.165371 -0.318169,-1.165371 -0.469954,0 -4.140244,2.371088 -4.140244,2.674689 0,0.268465 0.202124,0.319107 5.688544,1.425241 2.61937,0.5281 4.93684,1.13134 5.14992,1.34054 0.48407,0.47524 0.91697,0.48402 1.29685,0.0263 z m 4.934,-11.693848 c 1.36408,-0.951044 2.54004,-1.93331 2.61324,-2.182813 0.0732,-0.249503 0.28154,-1.465673 0.46296,-2.7026 0.18142,-1.236927 0.37507,-2.040599 0.43032,-1.785937 0.11802,0.543909 0.55016,0.612297 0.74017,0.117134 0.22897,-0.596692 0.81278,-4.953802 0.68137,-5.085216 -0.0688,-0.06883 -0.31367,-0.12553 -0.54408,-0.125998 -0.33967,-6.9e-4 -0.43208,-0.385148 -0.48847,-2.032259 -0.0734,-2.145284 -0.93625,-6.338223 -1.55364,-7.550193 -0.56222,-1.103639 -1.23158,-1.350242 -2.37183,-0.873814 -0.53042,0.221622 -1.67563,0.40295 -2.54491,0.40295 -1.01897,0 -1.85387,0.16148 -2.34993,0.454507 -0.67426,0.398296 -0.87564,0.410243 -1.62832,0.0966 -2.08338,-0.868149 -4.5529,-0.545086 -5.44471,0.712278 -0.707956,0.998151 -1.173315,3.443498 -1.206783,6.341369 -0.02755,2.385134 -0.04363,2.445429 -0.653,2.447396 -0.579293,0.0019 -0.610865,0.07422 -0.43385,0.994203 0.105,0.545703 0.286477,1.745805 0.403283,2.666892 0.226565,1.786615 0.424171,2.220654 0.762081,1.673904 0.123982,-0.200606 0.345208,0.647144 0.539067,2.065729 l 0.328792,2.405962 2.02012,1.513808 c 2.90826,2.179346 2.84864,2.155544 5.42433,2.165892 l 2.33365,0.0094 z"
       id="path1"
       sodipodi:nodetypes="sssssscssssssssscsscsssssssssssssssssssssssssssssssscsssssscsscsscssssssscssssscssssscsscscccsscsssssssssssssscsscsscccsscssssscsssscssssssssssssssssssssscsssssssssscsssssssssscssssscssssssccsssssssssscsssssscsssssssscssssscscssssssssssscssccssssccsssssscsscsscsscssscssssccsssscsssssssssssssscssssssssssssscssssssssscsccsssscscsscscsssscssscssssssscsscsscsssscsscsssssssssssssscssscscccsssssssssssssscsscsscssccsscsssssssscccsssssssssssscsssssssssssscssssssssssssssscsssssssssscsssssssssscsssssscssssssssssssssccssscsssssscsssssssssssscscscsssccccscssssscssssssccscssscssscsssscsccssscssccsscsscssssssssscsssssssssssssscssscsscssssscccsscscsssssssscssssscssssscsssccsscccssscssssssccsssssssssscscsssscssssssssssscsscscscssssssscsssscsccc" /></g></svg>
