<?xml version="1.0" encoding="UTF-8" standalone="no"?>
<!-- Created with Inkscape (http://www.inkscape.org/) -->

<svg
   width="123.51266mm"
   height="205.78963mm"
   viewBox="0 0 123.51266 205.78963"
   version="1.1"
   id="svg1"
   xml:space="preserve"
   xmlns:inkscape="http://www.inkscape.org/namespaces/inkscape"
   xmlns:sodipodi="http://sodipodi.sourceforge.net/DTD/sodipodi-0.dtd"
   xmlns="http://www.w3.org/2000/svg"
   xmlns:svg="http://www.w3.org/2000/svg"><sodipodi:namedview
     id="namedview1"
     pagecolor="#ffffff"
     bordercolor="#000000"
     borderopacity="0.25"
     inkscape:showpageshadow="2"
     inkscape:pageopacity="0.0"
     inkscape:pagecheckerboard="0"
     inkscape:deskcolor="#d1d1d1"
     inkscape:document-units="mm" /><defs
     id="defs1" /><g
     inkscape:label="Layer 1"
     inkscape:groupmode="layer"
     id="layer1"
     transform="translate(-42.91457,-28.638698)"><g
       id="Layer1000"
       transform="matrix(0.35963448,0,0,0.35963448,-78.982233,0.53576314)"><path
         d="m 513.2347,78.5783 c 35.5714,0.4819 69.7142,20.064 93.1924,45.9117 59.3708,65.3669 75.6561,154.0202 75.5328,239.7271 -0.0641,44.3588 -3.9804,90.0405 -16.78,132.6903 -10.1001,33.6544 -25.3082,63.6478 -46.7898,91.4554 -26.2213,33.9451 -60.4153,61.3689 -105.5151,61.5727 -54.9233,0.2478 -95.7223,-39.4316 -122.7645,-83.5526 -36.8348,-60.0973 -51.5132,-132.4077 -50.7076,-202.2761 0.7106,-61.6289 13.1048,-127.7872 40.6672,-183.2672 21.4801,-43.2366 56.2431,-86.8513 105.2371,-99.034 9.1228,-2.2686 18.5278,-3.3548 27.9275,-3.2273 z m -0.595,58.9732 c -10.3161,-0.4389 -19.6197,6.8088 -26.2641,13.9634 -11.6314,12.5243 -20.3749,30.0399 -26.6239,45.8039 -19.5905,49.4192 -26.2734,109.6373 -25.6623,162.4425 0.4326,37.3856 3.4628,75.4441 10.3726,112.2151 5.1329,27.3161 13.0019,57.5181 25.9401,82.2592 5.3249,10.1838 12.4614,20.5963 21.3157,28.0429 5.2134,4.3846 12.3409,8.7386 19.3929,8.6901 3.3304,-0.0232 6.5968,-0.5402 9.7662,-1.5664 35.5368,-11.5055 52.2371,-83.2785 58.1865,-114.9471 3.8418,-20.4506 6.5251,-41.2226 8.2658,-61.9563 1.3723,-16.3486 2.2587,-33.0489 2.0336,-49.4603 -0.1769,-12.877 -0.7401,-25.7528 -1.6756,-38.5969 -1.7104,-23.4793 -4.6445,-47.012 -9.1321,-70.1263 -3.9591,-20.3933 -9.2012,-41.0814 -16.6563,-60.4941 -7.5796,-19.7374 -24.1974,-55.2036 -49.2591,-56.2697 z"
         style="fill:#090005;fill-rule:evenodd;stroke:#1b1918;stroke-width:0.8504;stroke-linecap:butt;stroke-linejoin:miter;stroke-dasharray:none"
         id="path1-9"
         transform="translate(-2.7226718e-6)" /><path
         d="m 513.1772,82.8297 c 34.3734,0.4658 67.4291,19.5574 90.1026,44.519 58.6108,64.5307 74.5497,152.282 74.4281,236.8624 -0.0635,43.9345 -3.9228,89.2304 -16.6005,131.474 -9.9507,33.1563 -24.9188,62.6823 -46.082,90.0783 -25.3845,32.8615 -58.4697,59.7226 -102.1694,59.9201 -53.3285,0.2404 -92.9081,-38.7555 -119.1203,-81.5224 -36.4099,-59.4042 -50.8774,-130.9499 -50.0811,-200.0052 0.703,-60.9809 12.9492,-126.5247 40.2236,-181.4244 20.886,-42.0412 54.7668,-84.9416 102.4549,-96.7998 8.7692,-2.1804 17.8089,-3.2241 26.8441,-3.102 z m -0.3566,50.4735 c -11.6944,-0.4972 -21.9838,7.1594 -29.5606,15.3184 -12.014,12.9362 -21.0047,30.8435 -27.4612,47.1302 -9.1893,23.1818 -15.2852,48.1471 -19.3317,72.7175 -4.9566,30.0988 -6.9823,60.851 -6.6294,91.3411 0.4354,37.6336 3.4898,75.9367 10.4454,112.9512 2.9401,15.6464 6.6215,31.25 11.4095,46.4389 3.9807,12.6284 8.7993,25.2595 14.9414,37.0052 5.5905,10.6914 13.0549,21.5118 22.3469,29.3269 6.054,5.0916 14.006,9.7441 22.1593,9.6877 3.765,-0.026 7.4636,-0.6128 11.0463,-1.7728 37.7229,-12.2133 54.7212,-84.4888 61.0557,-118.2072 3.8688,-20.5926 6.5713,-41.508 8.324,-62.3858 1.3841,-16.4868 2.2753,-33.3244 2.048,-49.8744 -0.1777,-12.9606 -0.7447,-25.92 -1.6863,-38.8474 -1.7226,-23.6475 -4.6792,-47.3477 -9.1987,-70.6278 -4.0071,-20.639 -9.3161,-41.5613 -16.8611,-61.2082 -8.3466,-21.7341 -25.7198,-57.831 -53.0475,-58.9935 z"
         style="fill:#ffffff;fill-rule:evenodd"
         id="path2"
         transform="translate(-2.7226718e-6)" /><path
         id="path3"
         style="stroke-width:1.37564"
         transform="matrix(0.74999998,0,0,0.74999998,338.94637,78.14305)"
         d="M 232.09375,14.507813 C 210.95473,14.016804 190.15717,19.132827 168.24219,30.292969 92.246199,68.993709 32.573511,182.58379 17.791016,324.05273 c -14.9624088,143.19072 21.569441,280.6971 95.531254,364.3125 32.36268,36.58671 68.28637,56.14185 108.8457,59.90235 2.71314,0.25155 5.30452,0.50729 6.73242,0.70703 -1.9123,-0.2675 -0.49822,-0.0491 0.28906,-0.0898 0.78729,-0.0408 1.93439,-0.11807 3.29883,-0.22461 2.72887,-0.21309 6.34725,-0.54202 10.125,-0.92969 44.506,-4.56717 84.07363,-29.97039 121.01367,-79.08399 46.05581,-61.23342 69.02126,-127.43714 77.60352,-224.97265 2.52059,-28.64572 2.1035,-103.52149 -0.73438,-132.03906 -9.72181,-97.69345 -37.7968,-173.05342 -84.63672,-229.117192 -26.35044,-31.53945 -52.49292,-50.187346 -84.91601,-60.960937 -13.3213,-4.426418 -26.16628,-6.754225 -38.84961,-7.048828 z m -1.69141,51.638671 c 9.52802,-0.02208 15.07188,1.092262 22.33789,4.494141 13.85003,6.484448 29.30737,23.073537 38.88086,39.410155 24.58642,41.95537 41.46254,104.24861 50.66797,184.16797 12.97816,112.67351 -0.54701,245.26383 -34.04101,327.76367 -14.90881,36.72218 -34.2876,62.66934 -57.33789,71.33789 -9.83474,3.69858 -21.41645,5.6031 -30.73438,3.25391 -17.12297,-4.31695 -34.12111,-19.08109 -46.88476,-38.26367 C 142.05404,611.36426 122.04662,530.29746 115,428.33789 c -1.86317,-26.95877 -1.86491,-92.17357 0.0312,-116.71289 7.92968,-102.62316 35.5733,-189.75231 75.89648,-227.472656 13.88379,-12.987602 24.6184,-17.971441 39.47461,-18.00586 z" /></g></g></svg>
