<svg width="324" height="142" viewBox="0 0 324 142" fill="none" xmlns="http://www.w3.org/2000/svg">
<rect x="2" y="2" width="320" height="138" rx="13" stroke="black" stroke-width="4"/>
<path d="M4 15C4 8.92487 8.92487 4 15 4H148V138H15C8.92487 138 4 133.075 4 127V15Z" fill="black"/>
<path d="M44.352 48L36.448 26.016H42.592L46.624 38.432C46.7093 38.688 46.816 39.0293 46.944 39.456C47.072 39.8613 47.2 40.288 47.328 40.736C47.4773 41.1627 47.5947 41.5467 47.68 41.888H47.904C48.0107 41.568 48.1173 41.2053 48.224 40.8C48.352 40.3733 48.48 39.9573 48.608 39.552C48.736 39.1253 48.8427 38.7627 48.928 38.464L52.96 26.016H58.88L51.008 48H44.352ZM61.2965 28.864V24.832H66.5445V28.864H61.2965ZM61.2965 48V31.136H66.5445V48H61.2965ZM70.5153 48V31.136H74.8353L75.2193 33.536H75.4433C75.8699 32.96 76.3606 32.4587 76.9153 32.032C77.4699 31.6053 78.0993 31.2853 78.8033 31.072C79.5073 30.8587 80.2539 30.752 81.0433 30.752C82.2593 30.752 83.2833 30.976 84.1153 31.424C84.9686 31.872 85.6193 32.544 86.0673 33.44C86.5153 34.336 86.7393 35.4773 86.7393 36.864V48H81.4913V37.6C81.4913 37.1307 81.4273 36.736 81.2993 36.416C81.1926 36.0747 81.0326 35.7867 80.8193 35.552C80.6059 35.3173 80.3393 35.1467 80.0193 35.04C79.6993 34.9333 79.3366 34.88 78.9313 34.88C78.3126 34.88 77.7686 35.0293 77.2993 35.328C76.8299 35.6053 76.4566 35.9893 76.1793 36.48C75.9019 36.9493 75.7633 37.504 75.7633 38.144V48H70.5153Z" fill="white"/>
<mask id="path-4-inside-1_25_199" fill="white">
<path d="M4 71H148V138H4V71Z"/>
</mask>
<path d="M4 75H148V67H4V75Z" fill="white" mask="url(#path-4-inside-1_25_199)"/>
<path d="M38.4 115V93.016H44.128V115H38.4ZM48.5153 115V98.136H52.8353L53.2193 100.536H53.4433C53.8273 99.96 54.2859 99.4587 54.8193 99.032C55.3739 98.6053 55.9819 98.2853 56.6433 98.072C57.3046 97.8587 58.0086 97.752 58.7553 97.752C59.9073 97.752 60.8886 97.9867 61.6993 98.456C62.5099 98.904 63.1286 99.5973 63.5553 100.536H63.7793C64.1633 99.96 64.6219 99.4587 65.1553 99.032C65.7099 98.6053 66.3179 98.2853 66.9793 98.072C67.6619 97.8587 68.3659 97.752 69.0913 97.752C70.2646 97.752 71.2566 97.976 72.0673 98.424C72.8779 98.8507 73.4966 99.512 73.9233 100.408C74.3713 101.283 74.5953 102.403 74.5953 103.768V115H69.3473V104.568C69.3473 104.099 69.2939 103.704 69.1873 103.384C69.0806 103.043 68.9313 102.765 68.7393 102.552C68.5473 102.317 68.3019 102.147 68.0033 102.04C67.7046 101.933 67.3846 101.88 67.0433 101.88C66.4886 101.88 65.9873 102.029 65.5393 102.328C65.1126 102.605 64.7819 102.989 64.5473 103.48C64.3126 103.949 64.1953 104.504 64.1953 105.144V115H58.9473V104.568C58.9473 104.099 58.8939 103.704 58.7873 103.384C58.6806 103.043 58.5313 102.765 58.3393 102.552C58.1473 102.317 57.9019 102.147 57.6033 102.04C57.3046 101.933 56.9846 101.88 56.6433 101.88C56.0886 101.88 55.5873 102.029 55.1393 102.328C54.7126 102.605 54.3713 102.989 54.1153 103.48C53.8806 103.949 53.7633 104.504 53.7633 105.144V115H48.5153ZM83.188 115.384C82.484 115.384 81.7907 115.309 81.108 115.16C80.4467 115.032 79.8387 114.797 79.284 114.456C78.7507 114.093 78.324 113.603 78.004 112.984C77.684 112.365 77.524 111.587 77.524 110.648C77.524 109.432 77.78 108.44 78.292 107.672C78.804 106.904 79.54 106.307 80.5 105.88C81.4813 105.432 82.6547 105.123 84.02 104.952C85.4067 104.781 86.9533 104.696 88.66 104.696V103.64C88.66 103.149 88.564 102.744 88.372 102.424C88.18 102.083 87.892 101.827 87.508 101.656C87.1453 101.464 86.6547 101.368 86.036 101.368C85.4813 101.368 84.9907 101.432 84.564 101.56C84.1587 101.688 83.8493 101.88 83.636 102.136C83.4227 102.371 83.316 102.659 83.316 103V103.288H78.196C78.1747 103.181 78.164 103.096 78.164 103.032C78.164 102.947 78.164 102.84 78.164 102.712C78.164 101.709 78.4733 100.835 79.092 100.088C79.732 99.3413 80.6387 98.7653 81.812 98.36C82.9853 97.9547 84.404 97.752 86.068 97.752C87.6253 97.752 88.98 97.944 90.132 98.328C91.3053 98.712 92.2227 99.2987 92.884 100.088C93.5667 100.877 93.908 101.912 93.908 103.192V110.392C93.908 110.755 94.004 111.043 94.196 111.256C94.4093 111.469 94.6653 111.576 94.964 111.576H96.052V114.808C95.8173 114.915 95.444 115.032 94.932 115.16C94.4413 115.309 93.844 115.384 93.14 115.384C92.4147 115.384 91.7747 115.288 91.22 115.096C90.6867 114.925 90.2387 114.68 89.876 114.36C89.5347 114.019 89.3 113.624 89.172 113.176H88.948C88.5427 113.603 88.0627 113.987 87.508 114.328C86.9747 114.669 86.3453 114.925 85.62 115.096C84.916 115.288 84.1053 115.384 83.188 115.384ZM85.14 111.768C85.652 111.768 86.1213 111.693 86.548 111.544C86.9747 111.395 87.3373 111.192 87.636 110.936C87.956 110.659 88.2013 110.328 88.372 109.944C88.564 109.56 88.66 109.144 88.66 108.696V107.576C87.444 107.576 86.3987 107.661 85.524 107.832C84.6493 108.003 83.9773 108.269 83.508 108.632C83.0387 108.995 82.804 109.453 82.804 110.008C82.804 110.413 82.9 110.755 83.092 111.032C83.3053 111.288 83.5827 111.48 83.924 111.608C84.2653 111.715 84.6707 111.768 85.14 111.768ZM96.4428 115L102.715 106.168L96.9868 98.136H103.195L106.171 102.936H106.331L109.339 98.136H115.195L109.403 106.2L115.547 115H109.403L105.947 109.464H105.787L102.299 115H96.4428Z" fill="white"/>
<path d="M148 4H309C315.075 4 320 8.92487 320 15V127C320 133.075 315.075 138 309 138H148V4Z" fill="white"/>
<path d="M183.264 48V43.872H188.512V32.128H183.232V29.024C184.085 28.96 185.013 28.7787 186.016 28.48C187.04 28.1813 188.043 27.8187 189.024 27.392C190.027 26.944 190.923 26.4747 191.712 25.984H193.76V43.872H198.72V48H183.264ZM211.52 48.384C210.133 48.384 208.832 48.256 207.616 48C206.4 47.7653 205.323 47.3707 204.384 46.816C203.467 46.2613 202.741 45.536 202.208 44.64C201.675 43.7227 201.408 42.6027 201.408 41.28C201.408 41.1947 201.408 41.0987 201.408 40.992C201.408 40.8853 201.419 40.8 201.44 40.736H206.976C206.976 40.8 206.965 40.8853 206.944 40.992C206.944 41.0773 206.944 41.152 206.944 41.216C206.944 41.8987 207.115 42.4533 207.456 42.88C207.819 43.2853 208.32 43.584 208.96 43.776C209.6 43.9467 210.347 44.032 211.2 44.032C211.669 44.032 212.107 44.0107 212.512 43.968C212.917 43.9253 213.28 43.8507 213.6 43.744C213.92 43.6373 214.197 43.5093 214.432 43.36C214.688 43.1893 214.869 42.9973 214.976 42.784C215.104 42.5493 215.168 42.2827 215.168 41.984C215.168 41.4933 214.976 41.088 214.592 40.768C214.229 40.448 213.728 40.1813 213.088 39.968C212.469 39.7547 211.765 39.552 210.976 39.36C210.187 39.168 209.365 38.9653 208.512 38.752C207.659 38.5387 206.837 38.272 206.048 37.952C205.259 37.632 204.544 37.2267 203.904 36.736C203.285 36.2453 202.784 35.6373 202.4 34.912C202.037 34.1653 201.856 33.2693 201.856 32.224C201.856 31.072 202.101 30.08 202.592 29.248C203.083 28.3947 203.755 27.7013 204.608 27.168C205.483 26.6347 206.485 26.2507 207.616 26.016C208.747 25.76 209.952 25.632 211.232 25.632C212.491 25.632 213.664 25.76 214.752 26.016C215.861 26.272 216.843 26.6773 217.696 27.232C218.549 27.7653 219.211 28.448 219.68 29.28C220.171 30.0907 220.427 31.072 220.448 32.224V32.608H214.944V32.384C214.944 31.8933 214.805 31.4667 214.528 31.104C214.272 30.72 213.877 30.4213 213.344 30.208C212.811 29.9733 212.149 29.856 211.36 29.856C210.571 29.856 209.899 29.9307 209.344 30.08C208.811 30.2293 208.395 30.4427 208.096 30.72C207.819 30.9973 207.68 31.328 207.68 31.712C207.68 32.1813 207.861 32.5653 208.224 32.864C208.608 33.1627 209.12 33.4187 209.76 33.632C210.4 33.8453 211.115 34.048 211.904 34.24C212.693 34.4107 213.504 34.6027 214.336 34.816C215.189 35.008 216.011 35.264 216.8 35.584C217.589 35.8827 218.304 36.2773 218.944 36.768C219.584 37.2373 220.085 37.824 220.448 38.528C220.832 39.232 221.024 40.0853 221.024 41.088C221.024 42.8373 220.608 44.2453 219.776 45.312C218.965 46.3787 217.835 47.1573 216.384 47.648C214.955 48.1387 213.333 48.384 211.52 48.384ZM229.655 41.472V37.088H237.751V41.472H229.655ZM255.238 48.384C253.382 48.384 251.792 48.0853 250.47 47.488C249.168 46.8693 248.166 46.016 247.462 44.928C246.779 43.8187 246.438 42.5173 246.438 41.024H251.334C251.334 41.7067 251.472 42.3147 251.75 42.848C252.027 43.3813 252.432 43.7973 252.966 44.096C253.499 44.3733 254.139 44.512 254.886 44.512C255.632 44.512 256.262 44.3627 256.774 44.064C257.286 43.7653 257.68 43.3387 257.958 42.784C258.235 42.208 258.374 41.536 258.374 40.768C258.374 40 258.235 39.3493 257.958 38.816C257.68 38.2827 257.286 37.8773 256.774 37.6C256.262 37.3013 255.654 37.152 254.95 37.152C254.331 37.152 253.808 37.248 253.382 37.44C252.976 37.632 252.646 37.856 252.39 38.112C252.134 38.368 251.92 38.6133 251.75 38.848L247.302 38.272L248.23 26.016H262.246V30.592H252.358L252.07 34.88C252.198 34.7733 252.443 34.6133 252.806 34.4C253.19 34.1867 253.691 33.984 254.31 33.792C254.95 33.6 255.686 33.504 256.518 33.504C257.926 33.504 259.163 33.7813 260.23 34.336C261.296 34.8907 262.128 35.712 262.726 36.8C263.344 37.888 263.654 39.2213 263.654 40.8C263.654 42.2933 263.312 43.616 262.63 44.768C261.947 45.8987 260.976 46.784 259.718 47.424C258.459 48.064 256.966 48.384 255.238 48.384ZM276.614 48.384C275.227 48.384 273.926 48.256 272.71 48C271.494 47.7653 270.416 47.3707 269.478 46.816C268.56 46.2613 267.835 45.536 267.302 44.64C266.768 43.7227 266.502 42.6027 266.502 41.28C266.502 41.1947 266.502 41.0987 266.502 40.992C266.502 40.8853 266.512 40.8 266.534 40.736H272.07C272.07 40.8 272.059 40.8853 272.038 40.992C272.038 41.0773 272.038 41.152 272.038 41.216C272.038 41.8987 272.208 42.4533 272.55 42.88C272.912 43.2853 273.414 43.584 274.054 43.776C274.694 43.9467 275.44 44.032 276.294 44.032C276.763 44.032 277.2 44.0107 277.606 43.968C278.011 43.9253 278.374 43.8507 278.694 43.744C279.014 43.6373 279.291 43.5093 279.526 43.36C279.782 43.1893 279.963 42.9973 280.07 42.784C280.198 42.5493 280.262 42.2827 280.262 41.984C280.262 41.4933 280.07 41.088 279.686 40.768C279.323 40.448 278.822 40.1813 278.182 39.968C277.563 39.7547 276.859 39.552 276.07 39.36C275.28 39.168 274.459 38.9653 273.606 38.752C272.752 38.5387 271.931 38.272 271.142 37.952C270.352 37.632 269.638 37.2267 268.998 36.736C268.379 36.2453 267.878 35.6373 267.494 34.912C267.131 34.1653 266.95 33.2693 266.95 32.224C266.95 31.072 267.195 30.08 267.686 29.248C268.176 28.3947 268.848 27.7013 269.702 27.168C270.576 26.6347 271.579 26.2507 272.71 26.016C273.84 25.76 275.046 25.632 276.326 25.632C277.584 25.632 278.758 25.76 279.846 26.016C280.955 26.272 281.936 26.6773 282.79 27.232C283.643 27.7653 284.304 28.448 284.774 29.28C285.264 30.0907 285.52 31.072 285.542 32.224V32.608H280.038V32.384C280.038 31.8933 279.899 31.4667 279.622 31.104C279.366 30.72 278.971 30.4213 278.438 30.208C277.904 29.9733 277.243 29.856 276.454 29.856C275.664 29.856 274.992 29.9307 274.438 30.08C273.904 30.2293 273.488 30.4427 273.19 30.72C272.912 30.9973 272.774 31.328 272.774 31.712C272.774 32.1813 272.955 32.5653 273.318 32.864C273.702 33.1627 274.214 33.4187 274.854 33.632C275.494 33.8453 276.208 34.048 276.998 34.24C277.787 34.4107 278.598 34.6027 279.43 34.816C280.283 35.008 281.104 35.264 281.894 35.584C282.683 35.8827 283.398 36.2773 284.038 36.768C284.678 37.2373 285.179 37.824 285.542 38.528C285.926 39.232 286.118 40.0853 286.118 41.088C286.118 42.8373 285.702 44.2453 284.87 45.312C284.059 46.3787 282.928 47.1573 281.478 47.648C280.048 48.1387 278.427 48.384 276.614 48.384Z" fill="black"/>
<mask id="path-9-inside-2_25_199" fill="white">
<path d="M148 71H320V138H148V71Z"/>
</mask>
<path d="M148 75H320V67H148V75Z" fill="black" mask="url(#path-9-inside-2_25_199)"/>
<path d="M222.144 115.384C220.288 115.384 218.699 115.085 217.376 114.488C216.075 113.869 215.072 113.016 214.368 111.928C213.685 110.819 213.344 109.517 213.344 108.024H218.24C218.24 108.707 218.379 109.315 218.656 109.848C218.933 110.381 219.339 110.797 219.872 111.096C220.405 111.373 221.045 111.512 221.792 111.512C222.539 111.512 223.168 111.363 223.68 111.064C224.192 110.765 224.587 110.339 224.864 109.784C225.141 109.208 225.28 108.536 225.28 107.768C225.28 107 225.141 106.349 224.864 105.816C224.587 105.283 224.192 104.877 223.68 104.6C223.168 104.301 222.56 104.152 221.856 104.152C221.237 104.152 220.715 104.248 220.288 104.44C219.883 104.632 219.552 104.856 219.296 105.112C219.04 105.368 218.827 105.613 218.656 105.848L214.208 105.272L215.136 93.016H229.152V97.592H219.264L218.976 101.88C219.104 101.773 219.349 101.613 219.712 101.4C220.096 101.187 220.597 100.984 221.216 100.792C221.856 100.6 222.592 100.504 223.424 100.504C224.832 100.504 226.069 100.781 227.136 101.336C228.203 101.891 229.035 102.712 229.632 103.8C230.251 104.888 230.56 106.221 230.56 107.8C230.56 109.293 230.219 110.616 229.536 111.768C228.853 112.899 227.883 113.784 226.624 114.424C225.365 115.064 223.872 115.384 222.144 115.384ZM232.256 115L240.512 93.016H247.392L255.648 115H249.536L248.224 111.192H239.456L238.144 115H232.256ZM240.832 106.904H246.816L245.248 102.264C245.163 102.029 245.056 101.741 244.928 101.4C244.821 101.037 244.704 100.664 244.576 100.28C244.469 99.8747 244.363 99.4693 244.256 99.064C244.149 98.6587 244.043 98.3067 243.936 98.008H243.712C243.627 98.4133 243.499 98.872 243.328 99.384C243.179 99.896 243.019 100.408 242.848 100.92C242.699 101.432 242.56 101.88 242.432 102.264L240.832 106.904Z" fill="black"/>
</svg>
