<svg width="93" height="100" viewBox="0 0 93 100" fill="none" xmlns="http://www.w3.org/2000/svg">
<g clip-path="url(#clip0_11_14)">
<path d="M59.9099 65.3153V77.9279H51.8018V99.5495H92.3423V77.9279H84.2342V56.7567C82.1621 59.0991 79.7297 61.0811 77.027 62.6126V85.1351H85.1351V92.3423H59.009V85.1351H67.1171V65.3153H59.9099Z" fill="black" stroke="white"/>
<path d="M8.55855 41.8919V20.2703H0.450443V0.450439H38.2883V20.2703H30.3604L30.1802 34.6847H58.1081C59.1892 34.7748 60.1802 34.3243 60.9009 33.5135C61.4414 32.7928 61.8018 31.982 61.7117 31.0811V20.2703H45.4955V0.450439H84.4144L84.2342 33.7838C84.3243 38.2883 83.0631 42.7027 80.6306 46.4865C73.7838 56.5766 60.991 56.3063 59.9099 56.3063H15.7658V85.1351H7.65765V92.3423H31.0811V85.1351H22.973V65.3153H30.1802V77.9279H38.2883V99.5495H0.450443V77.027H8.55855V49.0991H59.9099C60.4504 49.0991 70.2703 49.3694 74.8649 41.982C76.3964 39.5495 77.1171 36.6667 77.027 33.7838V7.65765H52.7027V14.8649H68.9189V31.0811C69.009 33.7838 68.018 36.3964 66.2162 38.4685C64.1441 40.7207 61.1712 41.982 58.1081 41.8919H22.973V13.0631H31.0811V5.85584H7.65765V13.0631H15.7658V41.8919H8.55855Z" fill="black" stroke="white"/>
</g>
<defs>
<clipPath id="clip0_11_14">
<rect width="92.7928" height="100" fill="white"/>
</clipPath>
</defs>
</svg>
