<?xml version="1.0" encoding="UTF-8" standalone="no"?>
<!-- Created with Inkscape (http://www.inkscape.org/) -->

<svg
   version="1.1"
   id="svg1"
   width="348"
   height="100"
   viewBox="0 0 348 100"
   sodipodi:docname="Version.png"
   xml:space="preserve"
   inkscape:export-filename="Version.png"
   inkscape:export-xdpi="96"
   inkscape:export-ydpi="96"
   xmlns:inkscape="http://www.inkscape.org/namespaces/inkscape"
   xmlns:sodipodi="http://sodipodi.sourceforge.net/DTD/sodipodi-0.dtd"
   xmlns="http://www.w3.org/2000/svg"
   xmlns:svg="http://www.w3.org/2000/svg"><defs
     id="defs1" /><sodipodi:namedview
     id="namedview1"
     pagecolor="#ffffff"
     bordercolor="#000000"
     borderopacity="0.25"
     inkscape:showpageshadow="2"
     inkscape:pageopacity="0.0"
     inkscape:pagecheckerboard="0"
     inkscape:deskcolor="#d1d1d1" /><g
     inkscape:groupmode="layer"
     inkscape:label="Image"
     id="g1"><g
       style="fill:none"
       id="g2"><rect
         x="2"
         y="2"
         width="344"
         height="96"
         rx="13"
         stroke="#000000"
         stroke-width="4"
         id="rect1" /><path
         d="M 348,63 H 0 v 8 h 348 z"
         fill="#000000"
         mask="url(#path-2-inside-1_11_2)"
         id="path2" /><path
         d="M 0,15 C 0,6.71573 6.71573,0 15,0 H 210 V 67 H 0 Z"
         fill="#000000"
         id="path3" /><path
         d="m 43.52,44.384 c -1.3867,0 -2.688,-0.128 -3.904,-0.384 -1.216,-0.2347 -2.2933,-0.6293 -3.232,-1.184 -0.9173,-0.5547 -1.6427,-1.28 -2.176,-2.176 -0.5333,-0.9173 -0.8,-2.0373 -0.8,-3.36 0,-0.0853 0,-0.1813 0,-0.288 0,-0.1067 0.0107,-0.192 0.032,-0.256 h 5.536 c 0,0.064 -0.0107,0.1493 -0.032,0.256 0,0.0853 0,0.16 0,0.224 0,0.6827 0.1707,1.2373 0.512,1.664 0.3627,0.4053 0.864,0.704 1.504,0.896 0.64,0.1707 1.3867,0.256 2.24,0.256 0.4693,0 0.9067,-0.0213 1.312,-0.064 0.4053,-0.0427 0.768,-0.1173 1.088,-0.224 0.32,-0.1067 0.5973,-0.2347 0.832,-0.384 0.256,-0.1707 0.4373,-0.3627 0.544,-0.576 0.128,-0.2347 0.192,-0.5013 0.192,-0.8 0,-0.4907 -0.192,-0.896 -0.576,-1.216 -0.3627,-0.32 -0.864,-0.5867 -1.504,-0.8 -0.6187,-0.2133 -1.3227,-0.416 -2.112,-0.608 -0.7893,-0.192 -1.6107,-0.3947 -2.464,-0.608 -0.8533,-0.2133 -1.6747,-0.48 -2.464,-0.8 -0.7893,-0.32 -1.504,-0.7253 -2.144,-1.216 -0.6187,-0.4907 -1.12,-1.0987 -1.504,-1.824 -0.3627,-0.7467 -0.544,-1.6427 -0.544,-2.688 0,-1.152 0.2453,-2.144 0.736,-2.976 0.4907,-0.8533 1.1627,-1.5467 2.016,-2.08 0.8747,-0.5333 1.8773,-0.9173 3.008,-1.152 1.1307,-0.256 2.336,-0.384 3.616,-0.384 1.2587,0 2.432,0.128 3.52,0.384 1.1093,0.256 2.0907,0.6613 2.944,1.216 0.8533,0.5333 1.5147,1.216 1.984,2.048 0.4907,0.8107 0.7467,1.792 0.768,2.944 v 0.384 h -5.504 v -0.224 c 0,-0.4907 -0.1387,-0.9173 -0.416,-1.28 -0.256,-0.384 -0.6507,-0.6827 -1.184,-0.896 -0.5333,-0.2347 -1.1947,-0.352 -1.984,-0.352 -0.7893,0 -1.4613,0.0747 -2.016,0.224 -0.5333,0.1493 -0.9493,0.3627 -1.248,0.64 -0.2773,0.2773 -0.416,0.608 -0.416,0.992 0,0.4693 0.1813,0.8533 0.544,1.152 0.384,0.2987 0.896,0.5547 1.536,0.768 0.64,0.2133 1.3547,0.416 2.144,0.608 0.7893,0.1707 1.6,0.3627 2.432,0.576 0.8533,0.192 1.6747,0.448 2.464,0.768 0.7893,0.2987 1.504,0.6933 2.144,1.184 0.64,0.4693 1.1413,1.056 1.504,1.76 0.384,0.704 0.576,1.5573 0.576,2.56 0,1.7493 -0.416,3.1573 -1.248,4.224 -0.8107,1.0667 -1.9413,1.8453 -3.392,2.336 -1.4293,0.4907 -3.0507,0.736 -4.864,0.736 z M 56.7765,44 V 22.016 h 18.144 v 4.48 h -12.416 v 4.128 h 10.848 v 4.384 h -10.848 v 4.512 h 12.64 V 44 Z m 22.375,0 V 22.016 h 18.144 v 4.48 h -12.416 v 4.128 h 10.848 v 4.384 h -10.848 v 4.512 h 12.64 V 44 Z m 22.3115,0 V 22.016 h 13.44 c 1.13,0 2.154,0.224 3.072,0.672 0.917,0.448 1.642,1.0773 2.176,1.888 0.554,0.8107 0.832,1.76 0.832,2.848 0,0.96 -0.171,1.7813 -0.512,2.464 -0.32,0.6827 -0.758,1.2373 -1.312,1.664 -0.534,0.4267 -1.142,0.7467 -1.824,0.96 v 0.128 c 0.789,0.1707 1.504,0.48 2.144,0.928 0.64,0.4267 1.141,1.0133 1.504,1.76 0.384,0.7467 0.576,1.6533 0.576,2.72 0,1.2587 -0.299,2.336 -0.896,3.232 -0.598,0.8747 -1.387,1.5467 -2.368,2.016 -0.982,0.4693 -2.08,0.704 -3.296,0.704 z m 5.728,-4.416 h 6.24 c 0.682,0 1.226,-0.2027 1.631,-0.608 0.427,-0.4053 0.641,-1.024 0.641,-1.856 0,-0.448 -0.096,-0.8427 -0.288,-1.184 -0.171,-0.3627 -0.438,-0.64 -0.8,-0.832 -0.342,-0.192 -0.768,-0.288 -1.28,-0.288 h -6.144 z m 0,-8.832 h 5.728 c 0.469,0 0.864,-0.096 1.184,-0.288 0.341,-0.192 0.597,-0.4587 0.768,-0.8 0.192,-0.3413 0.288,-0.7467 0.288,-1.216 0,-0.6827 -0.203,-1.216 -0.608,-1.6 -0.406,-0.384 -0.918,-0.576 -1.536,-0.576 h -5.824 z m 28.227,13.632 c -2.112,0 -3.936,-0.3307 -5.472,-0.992 -1.514,-0.6613 -2.677,-1.6533 -3.488,-2.976 -0.81,-1.3227 -1.216,-2.9653 -1.216,-4.928 V 22.016 h 5.76 V 35.36 c 0,1.408 0.374,2.5173 1.12,3.328 0.747,0.8107 1.846,1.216 3.296,1.216 1.451,0 2.56,-0.4053 3.328,-1.216 0.768,-0.8107 1.152,-1.92 1.152,-3.328 V 22.016 h 5.728 v 13.472 c 0,1.9627 -0.405,3.6053 -1.216,4.928 -0.81,1.3227 -1.973,2.3147 -3.488,2.976 -1.514,0.6613 -3.349,0.992 -5.504,0.992 z M 150.369,44 V 22.016 h 8.352 l 2.656,9.792 c 0.106,0.3413 0.234,0.8107 0.384,1.408 0.149,0.576 0.298,1.184 0.448,1.824 0.149,0.64 0.277,1.216 0.384,1.728 h 0.256 c 0.085,-0.4053 0.192,-0.8853 0.32,-1.44 0.128,-0.576 0.266,-1.1733 0.416,-1.792 0.149,-0.64 0.288,-1.2267 0.416,-1.76 l 2.688,-9.76 h 8.128 V 44 h -5.568 v -9.376 c 0,-0.9173 0,-1.8453 0,-2.784 0.021,-0.9387 0.042,-1.792 0.064,-2.56 0.021,-0.768 0.032,-1.3227 0.032,-1.664 h -0.256 c -0.064,0.32 -0.171,0.7893 -0.32,1.408 -0.128,0.5973 -0.278,1.2267 -0.448,1.888 -0.15,0.64 -0.288,1.1947 -0.416,1.664 L 164.705,44 h -4.608 l -3.232,-11.424 c -0.107,-0.4267 -0.235,-0.9387 -0.384,-1.536 -0.15,-0.5973 -0.299,-1.2053 -0.448,-1.824 -0.128,-0.6187 -0.246,-1.1413 -0.352,-1.568 h -0.256 c 0.021,0.5547 0.042,1.2373 0.064,2.048 0.021,0.7893 0.042,1.6213 0.064,2.496 0.021,0.8533 0.032,1.664 0.032,2.432 V 44 Z"
         fill="#ffffff"
         id="path4" /><path
         d="m 250.352,44 -7.904,-21.984 h 6.144 l 4.032,12.416 c 0.085,0.256 0.192,0.5973 0.32,1.024 0.128,0.4053 0.256,0.832 0.384,1.28 0.149,0.4267 0.267,0.8107 0.352,1.152 h 0.224 c 0.107,-0.32 0.213,-0.6827 0.32,-1.088 0.128,-0.4267 0.256,-0.8427 0.384,-1.248 0.128,-0.4267 0.235,-0.7893 0.32,-1.088 l 4.032,-12.448 h 5.92 L 257.008,44 Z m 18.225,0 v -4.128 h 5.248 V 28.128 h -5.28 v -3.104 c 0.853,-0.064 1.781,-0.2453 2.784,-0.544 1.024,-0.2987 2.026,-0.6613 3.008,-1.088 1.002,-0.448 1.898,-0.9173 2.688,-1.408 h 2.048 v 17.888 h 4.96 V 44 Z m 19.04,0 v -5.344 h 5.568 V 44 Z m 17.899,0.384 c -1.536,0 -2.848,-0.224 -3.936,-0.672 -1.088,-0.4693 -1.973,-1.1627 -2.656,-2.08 -0.683,-0.9387 -1.184,-2.1227 -1.504,-3.552 -0.32,-1.4293 -0.48,-3.1253 -0.48,-5.088 0,-1.9413 0.16,-3.6267 0.48,-5.056 0.32,-1.4293 0.821,-2.6027 1.504,-3.52 0.683,-0.9387 1.568,-1.632 2.656,-2.08 1.088,-0.4693 2.4,-0.704 3.936,-0.704 1.536,0 2.837,0.2347 3.904,0.704 1.088,0.448 1.973,1.1413 2.656,2.08 0.683,0.9173 1.184,2.0907 1.504,3.52 0.32,1.4293 0.48,3.1147 0.48,5.056 0,1.9627 -0.16,3.6587 -0.48,5.088 -0.32,1.4293 -0.821,2.6133 -1.504,3.552 -0.683,0.9173 -1.568,1.6107 -2.656,2.08 -1.067,0.448 -2.368,0.672 -3.904,0.672 z m 0,-3.808 c 0.853,0 1.515,-0.224 1.984,-0.672 0.491,-0.4693 0.821,-1.1627 0.992,-2.08 0.192,-0.9387 0.288,-2.1227 0.288,-3.552 v -2.496 c 0,-1.4507 -0.096,-2.6453 -0.288,-3.584 -0.171,-0.9387 -0.501,-1.632 -0.992,-2.08 -0.469,-0.448 -1.131,-0.672 -1.984,-0.672 -0.853,0 -1.525,0.224 -2.016,0.672 -0.469,0.448 -0.8,1.1413 -0.992,2.08 -0.192,0.9173 -0.288,2.1013 -0.288,3.552 v 2.464 c 0,1.4507 0.096,2.6453 0.288,3.584 0.192,0.9387 0.523,1.6427 0.992,2.112 0.491,0.448 1.163,0.672 2.016,0.672 z"
         fill="#000000"
         id="path5" /><path
         d="m 250,67 v 33 h 8 V 67 Z"
         fill="#000000"
         mask="url(#path-7-inside-2_11_2)"
         id="path7" /><path
         d="M 25.2,89 V 78.008 h 4.592 c 1.1947,0 2.2027,0.1973 3.024,0.592 0.832,0.3947 1.4613,0.9973 1.888,1.808 0.4373,0.8 0.656,1.8293 0.656,3.088 0,1.248 -0.2187,2.2827 -0.656,3.104 -0.4267,0.8107 -1.056,1.4133 -1.888,1.808 C 31.9947,88.8027 30.9867,89 29.792,89 Z m 2.864,-2.24 h 1.696 c 0.448,0 0.8373,-0.064 1.168,-0.192 0.3307,-0.128 0.608,-0.3147 0.832,-0.56 0.224,-0.2453 0.3893,-0.5493 0.496,-0.912 0.1067,-0.3627 0.16,-0.7787 0.16,-1.248 v -0.672 c 0,-0.48 -0.0533,-0.9013 -0.16,-1.264 C 32.1493,81.5493 31.984,81.2453 31.76,81 31.536,80.7547 31.2587,80.568 30.928,80.44 30.5973,80.312 30.208,80.248 29.76,80.248 h -1.696 z m 13.1341,2.432 c -0.96,0 -1.776,-0.1547 -2.448,-0.464 -0.672,-0.32 -1.1893,-0.8053 -1.552,-1.456 -0.352,-0.6507 -0.528,-1.4827 -0.528,-2.496 0,-0.992 0.176,-1.8133 0.528,-2.464 0.352,-0.6507 0.8587,-1.136 1.52,-1.456 0.6614,-0.32 1.456,-0.48 2.384,-0.48 0.9174,0 1.6907,0.1547 2.32,0.464 0.64,0.3093 1.1254,0.784 1.456,1.424 0.3307,0.64 0.496,1.4667 0.496,2.48 v 0.56 h -6.048 c 0,0.448 0.064,0.8267 0.192,1.136 0.128,0.3093 0.3254,0.544 0.592,0.704 0.2667,0.16 0.624,0.24 1.072,0.24 0.2667,0 0.5014,-0.032 0.704,-0.096 0.2027,-0.064 0.3734,-0.1547 0.512,-0.272 0.1387,-0.128 0.2454,-0.2773 0.32,-0.448 0.0747,-0.1707 0.112,-0.3627 0.112,-0.576 h 2.544 c 0,0.512 -0.096,0.9707 -0.288,1.376 -0.1813,0.3947 -0.4533,0.7307 -0.816,1.008 -0.3626,0.2667 -0.8053,0.4693 -1.328,0.608 -0.512,0.1387 -1.0933,0.208 -1.744,0.208 z m -1.856,-5.344 h 3.36 c 0,-0.2773 -0.0373,-0.5173 -0.112,-0.72 -0.064,-0.2133 -0.1653,-0.3893 -0.304,-0.528 -0.128,-0.1387 -0.288,-0.24 -0.48,-0.304 -0.1813,-0.0747 -0.3946,-0.112 -0.64,-0.112 -0.384,0 -0.704,0.064 -0.96,0.192 -0.256,0.128 -0.4533,0.3147 -0.592,0.56 -0.1386,0.2453 -0.2293,0.5493 -0.272,0.912 z m 11.2503,5.344 c -0.5547,0 -1.0774,-0.0587 -1.568,-0.176 -0.48,-0.1173 -0.9067,-0.288 -1.28,-0.512 -0.3627,-0.224 -0.6507,-0.5013 -0.864,-0.832 -0.2027,-0.3307 -0.304,-0.7147 -0.304,-1.152 0,-0.0427 0,-0.08 0,-0.112 0,-0.0427 0.0053,-0.08 0.016,-0.112 h 2.48 c 0,0.0213 0,0.048 0,0.08 0,0.0213 0,0.0427 0,0.064 0.0106,0.2347 0.0853,0.432 0.224,0.592 0.1493,0.1493 0.3413,0.2613 0.576,0.336 0.2346,0.064 0.4906,0.096 0.768,0.096 0.2026,0 0.416,-0.0213 0.64,-0.064 0.2346,-0.0427 0.432,-0.1173 0.592,-0.224 0.16,-0.1067 0.24,-0.2613 0.24,-0.464 0,-0.224 -0.1014,-0.3947 -0.304,-0.512 -0.192,-0.1173 -0.4534,-0.2133 -0.784,-0.288 -0.32,-0.0853 -0.6667,-0.1653 -1.04,-0.24 -0.3734,-0.0853 -0.752,-0.1813 -1.136,-0.288 -0.3734,-0.1067 -0.72,-0.2507 -1.04,-0.432 -0.3094,-0.192 -0.56,-0.4373 -0.752,-0.736 -0.192,-0.2987 -0.288,-0.6773 -0.288,-1.136 0,-0.4907 0.1013,-0.9067 0.304,-1.248 0.2133,-0.352 0.5013,-0.6347 0.864,-0.848 0.3626,-0.2133 0.7786,-0.368 1.248,-0.464 0.48,-0.096 0.9866,-0.144 1.52,-0.144 0.4906,0 0.9546,0.048 1.392,0.144 0.448,0.096 0.848,0.2453 1.2,0.448 0.3626,0.192 0.6453,0.4427 0.848,0.752 0.2026,0.2987 0.304,0.6507 0.304,1.056 0,0.0533 -0.0054,0.112 -0.016,0.176 0,0.0533 0,0.0907 0,0.112 h -2.464 v -0.128 c 0,-0.1813 -0.0587,-0.3307 -0.176,-0.448 -0.1174,-0.1173 -0.2774,-0.208 -0.48,-0.272 -0.2027,-0.0747 -0.4267,-0.112 -0.672,-0.112 -0.16,0 -0.32,0.016 -0.48,0.048 -0.1494,0.0213 -0.288,0.0587 -0.416,0.112 -0.128,0.0427 -0.2347,0.1067 -0.32,0.192 -0.0747,0.0853 -0.112,0.192 -0.112,0.32 0,0.16 0.0693,0.2933 0.208,0.4 0.1386,0.096 0.3253,0.176 0.56,0.24 0.2453,0.064 0.512,0.1333 0.8,0.208 0.3946,0.0853 0.8106,0.176 1.248,0.272 0.4373,0.0853 0.848,0.2133 1.232,0.384 0.3946,0.16 0.7093,0.4053 0.944,0.736 0.2453,0.32 0.368,0.7627 0.368,1.328 0,0.5333 -0.1067,0.9867 -0.32,1.36 -0.2134,0.3627 -0.5067,0.656 -0.88,0.88 -0.3734,0.2133 -0.8054,0.368 -1.296,0.464 -0.4907,0.096 -1.0187,0.144 -1.584,0.144 z m 5.6496,-9.76 v -2.016 h 2.624 v 2.016 z m 0,9.568 v -8.432 h 2.624 V 89 Z m 5.9694,3.152 c -0.3734,0 -0.7254,-0.0853 -1.056,-0.256 -0.3307,-0.16 -0.5974,-0.3947 -0.8,-0.704 -0.192,-0.2987 -0.288,-0.6507 -0.288,-1.056 0,-0.448 0.1333,-0.8267 0.4,-1.136 0.2773,-0.2987 0.5866,-0.5227 0.928,-0.672 -0.2454,-0.16 -0.448,-0.3573 -0.608,-0.592 -0.1494,-0.2453 -0.224,-0.5173 -0.224,-0.816 0,-0.416 0.1546,-0.768 0.464,-1.056 0.3093,-0.288 0.672,-0.48 1.088,-0.576 -0.384,-0.2453 -0.6987,-0.5493 -0.944,-0.912 -0.2347,-0.3627 -0.352,-0.768 -0.352,-1.216 0,-0.6507 0.1706,-1.1787 0.512,-1.584 0.352,-0.4053 0.832,-0.704 1.44,-0.896 0.608,-0.2027 1.3013,-0.304 2.08,-0.304 0.3093,0 0.5866,0.016 0.832,0.048 0.256,0.0213 0.4853,0.0587 0.688,0.112 0.4266,-0.256 0.72,-0.5227 0.88,-0.8 0.16,-0.2773 0.2453,-0.5013 0.256,-0.672 h 2.288 c 0,0.4267 -0.0747,0.7893 -0.224,1.088 -0.1494,0.288 -0.3627,0.5227 -0.64,0.704 -0.2774,0.1813 -0.608,0.32 -0.992,0.416 0.288,0.2347 0.512,0.5173 0.672,0.848 0.16,0.32 0.24,0.6667 0.24,1.04 0,0.608 -0.1547,1.12 -0.464,1.536 -0.2987,0.4053 -0.7147,0.7147 -1.248,0.928 -0.5334,0.2133 -1.1467,0.32 -1.84,0.32 h -1.248 c -0.2987,0 -0.5227,0.048 -0.672,0.144 -0.1387,0.0853 -0.208,0.2027 -0.208,0.352 0,0.1387 0.064,0.2613 0.192,0.368 0.128,0.096 0.3466,0.144 0.656,0.144 h 3.248 c 0.8213,0 1.4506,0.2347 1.888,0.704 0.4373,0.4587 0.656,1.0453 0.656,1.76 0,0.544 -0.1494,1.0187 -0.448,1.424 -0.2987,0.416 -0.6987,0.736 -1.2,0.96 -0.4907,0.2347 -1.04,0.352 -1.648,0.352 z m 1.264,-1.6 h 2.768 c 0.1813,0 0.3413,-0.0373 0.48,-0.112 0.1386,-0.064 0.2453,-0.16 0.32,-0.288 0.0853,-0.1173 0.128,-0.256 0.128,-0.416 0,-0.2667 -0.0854,-0.4693 -0.256,-0.608 -0.1707,-0.1387 -0.3787,-0.208 -0.624,-0.208 h -2.816 c -0.2454,0 -0.4534,0.0693 -0.624,0.208 -0.16,0.1493 -0.24,0.3467 -0.24,0.592 0,0.2453 0.08,0.4427 0.24,0.592 0.1706,0.16 0.3786,0.24 0.624,0.24 z m 1.36,-6.144 c 0.4586,0 0.8106,-0.1067 1.056,-0.32 0.256,-0.2133 0.384,-0.5227 0.384,-0.928 0,-0.416 -0.128,-0.7253 -0.384,-0.928 -0.2454,-0.2133 -0.5974,-0.32 -1.056,-0.32 -0.4374,0 -0.784,0.1067 -1.04,0.32 -0.256,0.2027 -0.384,0.512 -0.384,0.928 0,0.2667 0.0533,0.496 0.16,0.688 0.1066,0.1813 0.2666,0.32 0.48,0.416 0.2133,0.096 0.4746,0.144 0.784,0.144 z M 70.9608,89 v -8.432 h 2.16 l 0.192,1.2 h 0.112 c 0.2133,-0.288 0.4586,-0.5387 0.736,-0.752 0.2773,-0.2133 0.592,-0.3733 0.944,-0.48 0.352,-0.1067 0.7253,-0.16 1.12,-0.16 0.608,0 1.12,0.112 1.536,0.336 0.4266,0.224 0.752,0.56 0.976,1.008 0.224,0.448 0.336,1.0187 0.336,1.712 V 89 h -2.624 v -5.2 c 0,-0.2347 -0.032,-0.432 -0.096,-0.592 -0.0534,-0.1707 -0.1334,-0.3147 -0.24,-0.432 -0.1067,-0.1173 -0.24,-0.2027 -0.4,-0.256 -0.16,-0.0533 -0.3414,-0.08 -0.544,-0.08 -0.3094,0 -0.5814,0.0747 -0.816,0.224 -0.2347,0.1387 -0.4214,0.3307 -0.56,0.576 -0.1387,0.2347 -0.208,0.512 -0.208,0.832 V 89 Z m 18.1657,0.192 c -0.544,0 -1.0453,-0.112 -1.504,-0.336 -0.4587,-0.224 -0.8267,-0.5653 -1.104,-1.024 h -0.112 L 86.2145,89 h -2.144 V 77.416 h 2.624 v 4.016 h 0.096 c 0.1707,-0.224 0.3733,-0.416 0.608,-0.576 0.2453,-0.16 0.5173,-0.2773 0.816,-0.352 0.2987,-0.0853 0.6187,-0.128 0.96,-0.128 0.6933,0 1.296,0.16 1.808,0.48 0.512,0.32 0.9067,0.8053 1.184,1.456 0.2773,0.64 0.416,1.456 0.416,2.448 0,1.0133 -0.1387,1.8453 -0.416,2.496 -0.2773,0.6507 -0.6773,1.136 -1.2,1.456 -0.512,0.32 -1.1253,0.48 -1.84,0.48 z m -0.816,-2.048 c 0.3947,0 0.7093,-0.0747 0.944,-0.224 0.2453,-0.16 0.4213,-0.3947 0.528,-0.704 0.1067,-0.3093 0.16,-0.688 0.16,-1.136 v -0.56 c 0,-0.4587 -0.0533,-0.8427 -0.16,-1.152 -0.1067,-0.3093 -0.2827,-0.544 -0.528,-0.704 -0.2347,-0.16 -0.5493,-0.24 -0.944,-0.24 -0.288,0 -0.5387,0.0533 -0.752,0.16 -0.2027,0.1067 -0.3733,0.256 -0.512,0.448 -0.128,0.192 -0.224,0.4213 -0.288,0.688 -0.0533,0.2667 -0.08,0.56 -0.08,0.88 v 0.384 c 0,0.4373 0.0533,0.8213 0.16,1.152 0.1173,0.32 0.2933,0.5707 0.528,0.752 0.2453,0.1707 0.56,0.256 0.944,0.256 z m 7.213,5.008 c -0.384,0 -0.72,-0.032 -1.008,-0.096 -0.288,-0.0533 -0.4907,-0.1013 -0.608,-0.144 v -1.664 h 1.104 c 0.2987,0 0.5547,-0.0693 0.768,-0.208 0.2133,-0.128 0.3787,-0.288 0.496,-0.48 0.128,-0.1813 0.2187,-0.368 0.272,-0.56 l -3.328,-8.432 h 2.8 l 1.248,3.696 c 0.064,0.1707 0.1333,0.3947 0.208,0.672 0.0853,0.2667 0.1653,0.544 0.24,0.832 0.0853,0.2773 0.1547,0.528 0.208,0.752 h 0.096 c 0.0427,-0.1493 0.0907,-0.32 0.144,-0.512 0.0533,-0.2027 0.1067,-0.4053 0.16,-0.608 0.0533,-0.2133 0.1067,-0.416 0.16,-0.608 0.064,-0.192 0.1173,-0.3627 0.16,-0.512 l 1.072,-3.712 h 2.6085 l -2.9125,8.096 c -0.1813,0.4907 -0.384,0.9493 -0.608,1.376 -0.2133,0.4267 -0.4693,0.7947 -0.768,1.104 -0.2987,0.32 -0.656,0.5653 -1.072,0.736 -0.4053,0.1813 -0.8853,0.272 -1.44,0.272 z M 106.606,89 V 78.008 h 6.048 c 0.747,0 1.382,0.1547 1.904,0.464 0.534,0.2987 0.939,0.72 1.216,1.264 0.288,0.5333 0.432,1.1627 0.432,1.888 0,0.7467 -0.149,1.392 -0.448,1.936 -0.288,0.544 -0.704,0.9707 -1.248,1.28 -0.533,0.2987 -1.173,0.448 -1.92,0.448 h -3.12 V 89 Z m 2.864,-5.92 h 2.448 c 0.448,0 0.79,-0.1227 1.024,-0.368 0.235,-0.256 0.352,-0.608 0.352,-1.056 0,-0.32 -0.053,-0.5813 -0.16,-0.784 -0.096,-0.2027 -0.245,-0.3573 -0.448,-0.464 -0.202,-0.1173 -0.458,-0.176 -0.768,-0.176 h -2.448 z m 11.978,6.112 c -0.96,0 -1.776,-0.1547 -2.448,-0.464 -0.672,-0.32 -1.189,-0.8053 -1.552,-1.456 -0.352,-0.6507 -0.528,-1.4827 -0.528,-2.496 0,-0.992 0.176,-1.8133 0.528,-2.464 0.352,-0.6507 0.859,-1.136 1.52,-1.456 0.661,-0.32 1.456,-0.48 2.384,-0.48 0.917,0 1.691,0.1547 2.32,0.464 0.64,0.3093 1.125,0.784 1.456,1.424 0.331,0.64 0.496,1.4667 0.496,2.48 v 0.56 h -6.048 c 0,0.448 0.064,0.8267 0.192,1.136 0.128,0.3093 0.325,0.544 0.592,0.704 0.267,0.16 0.624,0.24 1.072,0.24 0.267,0 0.501,-0.032 0.704,-0.096 0.203,-0.064 0.373,-0.1547 0.512,-0.272 0.139,-0.128 0.245,-0.2773 0.32,-0.448 0.075,-0.1707 0.112,-0.3627 0.112,-0.576 h 2.544 c 0,0.512 -0.096,0.9707 -0.288,1.376 -0.181,0.3947 -0.453,0.7307 -0.816,1.008 -0.363,0.2667 -0.805,0.4693 -1.328,0.608 -0.512,0.1387 -1.093,0.208 -1.744,0.208 z m -1.856,-5.344 h 3.36 c 0,-0.2773 -0.037,-0.5173 -0.112,-0.72 -0.064,-0.2133 -0.165,-0.3893 -0.304,-0.528 -0.128,-0.1387 -0.288,-0.24 -0.48,-0.304 -0.181,-0.0747 -0.395,-0.112 -0.64,-0.112 -0.384,0 -0.704,0.064 -0.96,0.192 -0.256,0.128 -0.453,0.3147 -0.592,0.56 -0.139,0.2453 -0.229,0.5493 -0.272,0.912 z m 10.706,5.344 c -0.714,0 -1.333,-0.16 -1.856,-0.48 -0.522,-0.32 -0.922,-0.8053 -1.2,-1.456 -0.277,-0.6507 -0.416,-1.4827 -0.416,-2.496 0,-0.992 0.139,-1.808 0.416,-2.448 0.288,-0.6507 0.688,-1.136 1.2,-1.456 0.512,-0.32 1.115,-0.48 1.808,-0.48 0.331,0 0.646,0.0373 0.944,0.112 0.31,0.0747 0.582,0.192 0.816,0.352 0.246,0.16 0.454,0.3573 0.624,0.592 h 0.096 v -4.016 h 2.624 V 89 h -2.144 l -0.192,-1.168 h -0.112 c -0.288,0.4587 -0.656,0.8 -1.104,1.024 -0.448,0.224 -0.949,0.336 -1.504,0.336 z m 0.816,-2.048 c 0.384,0 0.694,-0.0853 0.928,-0.256 0.246,-0.1813 0.422,-0.432 0.528,-0.752 0.118,-0.3307 0.176,-0.7147 0.176,-1.152 V 84.6 c 0,-0.32 -0.032,-0.6133 -0.096,-0.88 -0.064,-0.2667 -0.16,-0.496 -0.288,-0.688 -0.128,-0.192 -0.298,-0.3413 -0.512,-0.448 -0.202,-0.1067 -0.448,-0.16 -0.736,-0.16 -0.394,0 -0.714,0.08 -0.96,0.24 -0.234,0.16 -0.405,0.3947 -0.512,0.704 -0.106,0.3093 -0.16,0.6933 -0.16,1.152 v 0.56 c 0,0.448 0.054,0.8267 0.16,1.136 0.107,0.3093 0.278,0.544 0.512,0.704 0.246,0.1493 0.566,0.224 0.96,0.224 z M 137.351,89 v -8.432 h 2.16 l 0.192,1.296 h 0.112 c 0.128,-0.288 0.283,-0.544 0.464,-0.768 0.192,-0.2347 0.422,-0.416 0.688,-0.544 0.278,-0.128 0.582,-0.192 0.912,-0.192 0.192,0 0.368,0.0213 0.528,0.064 0.16,0.032 0.278,0.0693 0.352,0.112 v 2.288 h -0.832 c -0.33,0 -0.624,0.048 -0.88,0.144 -0.245,0.0853 -0.448,0.224 -0.608,0.416 -0.16,0.1813 -0.277,0.4053 -0.352,0.672 -0.074,0.2667 -0.112,0.576 -0.112,0.928 V 89 Z m 10.44,0.192 c -0.939,0 -1.744,-0.16 -2.416,-0.48 -0.662,-0.32 -1.174,-0.8053 -1.536,-1.456 -0.352,-0.6613 -0.528,-1.488 -0.528,-2.48 0,-0.992 0.176,-1.8133 0.528,-2.464 0.362,-0.6507 0.874,-1.136 1.536,-1.456 0.672,-0.32 1.477,-0.48 2.416,-0.48 0.949,0 1.754,0.16 2.416,0.48 0.672,0.32 1.184,0.8053 1.536,1.456 0.362,0.6507 0.544,1.472 0.544,2.464 0,0.992 -0.182,1.8187 -0.544,2.48 -0.352,0.6507 -0.864,1.136 -1.536,1.456 -0.662,0.32 -1.467,0.48 -2.416,0.48 z m 0,-1.904 c 0.437,0 0.789,-0.0853 1.056,-0.256 0.277,-0.1707 0.474,-0.416 0.592,-0.736 0.128,-0.3307 0.192,-0.736 0.192,-1.216 v -0.592 c 0,-0.48 -0.064,-0.8853 -0.192,-1.216 -0.118,-0.3307 -0.315,-0.576 -0.592,-0.736 -0.267,-0.1707 -0.619,-0.256 -1.056,-0.256 -0.427,0 -0.779,0.0853 -1.056,0.256 -0.267,0.16 -0.464,0.4053 -0.592,0.736 -0.118,0.3307 -0.176,0.736 -0.176,1.216 v 0.592 c 0,0.48 0.058,0.8853 0.176,1.216 0.128,0.32 0.325,0.5653 0.592,0.736 0.277,0.1707 0.629,0.256 1.056,0.256 z M 157.106,89 V 78.008 h 2.864 v 4.224 h 4.464 v -4.224 h 2.864 V 89 h -2.864 V 84.568 H 159.97 V 89 Z m 16.514,0.192 c -0.96,0 -1.776,-0.1547 -2.448,-0.464 -0.672,-0.32 -1.189,-0.8053 -1.552,-1.456 -0.352,-0.6507 -0.528,-1.4827 -0.528,-2.496 0,-0.992 0.176,-1.8133 0.528,-2.464 0.352,-0.6507 0.859,-1.136 1.52,-1.456 0.661,-0.32 1.456,-0.48 2.384,-0.48 0.917,0 1.691,0.1547 2.32,0.464 0.64,0.3093 1.125,0.784 1.456,1.424 0.331,0.64 0.496,1.4667 0.496,2.48 v 0.56 h -6.048 c 0,0.448 0.064,0.8267 0.192,1.136 0.128,0.3093 0.325,0.544 0.592,0.704 0.267,0.16 0.624,0.24 1.072,0.24 0.267,0 0.501,-0.032 0.704,-0.096 0.203,-0.064 0.373,-0.1547 0.512,-0.272 0.139,-0.128 0.245,-0.2773 0.32,-0.448 0.075,-0.1707 0.112,-0.3627 0.112,-0.576 h 2.544 c 0,0.512 -0.096,0.9707 -0.288,1.376 -0.181,0.3947 -0.453,0.7307 -0.816,1.008 -0.363,0.2667 -0.805,0.4693 -1.328,0.608 -0.512,0.1387 -1.093,0.208 -1.744,0.208 z m -1.856,-5.344 h 3.36 c 0,-0.2773 -0.037,-0.5173 -0.112,-0.72 -0.064,-0.2133 -0.165,-0.3893 -0.304,-0.528 -0.128,-0.1387 -0.288,-0.24 -0.48,-0.304 -0.181,-0.0747 -0.395,-0.112 -0.64,-0.112 -0.384,0 -0.704,0.064 -0.96,0.192 -0.256,0.128 -0.453,0.3147 -0.592,0.56 -0.139,0.2453 -0.229,0.5493 -0.272,0.912 z M 179.398,89 v -8.432 h 2.16 l 0.192,1.2 h 0.112 c 0.214,-0.288 0.459,-0.5387 0.736,-0.752 0.278,-0.2133 0.592,-0.3733 0.944,-0.48 0.352,-0.1067 0.726,-0.16 1.12,-0.16 0.608,0 1.12,0.112 1.536,0.336 0.427,0.224 0.752,0.56 0.976,1.008 0.224,0.448 0.336,1.0187 0.336,1.712 V 89 h -2.624 v -5.2 c 0,-0.2347 -0.032,-0.432 -0.096,-0.592 -0.053,-0.1707 -0.133,-0.3147 -0.24,-0.432 -0.106,-0.1173 -0.24,-0.2027 -0.4,-0.256 -0.16,-0.0533 -0.341,-0.08 -0.544,-0.08 -0.309,0 -0.581,0.0747 -0.816,0.224 -0.234,0.1387 -0.421,0.3307 -0.56,0.576 -0.138,0.2347 -0.208,0.512 -0.208,0.832 V 89 Z m 10.063,0 v -8.432 h 2.16 l 0.192,1.296 h 0.112 c 0.128,-0.288 0.282,-0.544 0.464,-0.768 0.192,-0.2347 0.421,-0.416 0.688,-0.544 0.277,-0.128 0.581,-0.192 0.912,-0.192 0.192,0 0.368,0.0213 0.528,0.064 0.16,0.032 0.277,0.0693 0.352,0.112 v 2.288 h -0.832 c -0.331,0 -0.624,0.048 -0.88,0.144 -0.246,0.0853 -0.448,0.224 -0.608,0.416 -0.16,0.1813 -0.278,0.4053 -0.352,0.672 -0.075,0.2667 -0.112,0.576 -0.112,0.928 V 89 Z m 6.515,-9.568 v -2.016 h 2.624 v 2.016 z m 0,9.568 V 80.568 H 198.6 V 89 Z m 10.114,2.976 v -3.84 h -0.096 c -0.192,0.224 -0.406,0.416 -0.64,0.576 -0.235,0.16 -0.502,0.2773 -0.8,0.352 -0.299,0.0853 -0.614,0.128 -0.944,0.128 -0.694,0 -1.296,-0.16 -1.808,-0.48 -0.512,-0.32 -0.912,-0.8053 -1.2,-1.456 -0.278,-0.6507 -0.416,-1.472 -0.416,-2.464 0,-1.0027 0.138,-1.8293 0.416,-2.48 0.277,-0.6507 0.677,-1.136 1.2,-1.456 0.522,-0.32 1.141,-0.48 1.856,-0.48 0.544,0 1.04,0.1173 1.488,0.352 0.458,0.224 0.821,0.56 1.088,1.008 h 0.112 l 0.224,-1.168 h 2.144 v 11.408 z m -1.616,-4.832 c 0.288,0 0.533,-0.0533 0.736,-0.16 0.213,-0.1067 0.384,-0.256 0.512,-0.448 0.128,-0.192 0.224,-0.4213 0.288,-0.688 0.064,-0.2667 0.096,-0.56 0.096,-0.88 v -0.384 c 0,-0.4373 -0.059,-0.816 -0.176,-1.136 -0.107,-0.3307 -0.283,-0.5813 -0.528,-0.752 -0.235,-0.1813 -0.544,-0.272 -0.928,-0.272 -0.395,0 -0.715,0.08 -0.96,0.24 -0.235,0.1493 -0.406,0.384 -0.512,0.704 -0.107,0.3093 -0.16,0.688 -0.16,1.136 v 0.56 c 0,0.448 0.053,0.8267 0.16,1.136 0.106,0.3093 0.277,0.544 0.512,0.704 0.245,0.16 0.565,0.24 0.96,0.24 z m 9.037,2.048 c -0.907,0 -1.611,-0.2507 -2.112,-0.752 -0.491,-0.5013 -0.736,-1.2693 -0.736,-2.304 v -5.568 h 2.624 v 5.2 c 0,0.224 0.026,0.4213 0.08,0.592 0.064,0.1707 0.149,0.3147 0.256,0.432 0.106,0.1173 0.24,0.2027 0.4,0.256 0.17,0.0533 0.352,0.08 0.544,0.08 0.309,0 0.581,-0.0693 0.816,-0.208 0.234,-0.1493 0.421,-0.3467 0.56,-0.592 0.138,-0.256 0.208,-0.5333 0.208,-0.832 v -4.928 h 2.624 V 89 h -2.16 l -0.16,-1.2 h -0.112 c -0.192,0.2773 -0.438,0.5227 -0.736,0.736 -0.288,0.2133 -0.614,0.3733 -0.976,0.48 -0.352,0.1173 -0.726,0.176 -1.12,0.176 z m 11.39,0 c -0.96,0 -1.776,-0.1547 -2.448,-0.464 -0.672,-0.32 -1.189,-0.8053 -1.552,-1.456 -0.352,-0.6507 -0.528,-1.4827 -0.528,-2.496 0,-0.992 0.176,-1.8133 0.528,-2.464 0.352,-0.6507 0.859,-1.136 1.52,-1.456 0.662,-0.32 1.456,-0.48 2.384,-0.48 0.918,0 1.691,0.1547 2.32,0.464 0.64,0.3093 1.126,0.784 1.456,1.424 0.331,0.64 0.496,1.4667 0.496,2.48 v 0.56 h -6.048 c 0,0.448 0.064,0.8267 0.192,1.136 0.128,0.3093 0.326,0.544 0.592,0.704 0.267,0.16 0.624,0.24 1.072,0.24 0.267,0 0.502,-0.032 0.704,-0.096 0.203,-0.064 0.374,-0.1547 0.512,-0.272 0.139,-0.128 0.246,-0.2773 0.32,-0.448 0.075,-0.1707 0.112,-0.3627 0.112,-0.576 h 2.544 c 0,0.512 -0.096,0.9707 -0.288,1.376 -0.181,0.3947 -0.453,0.7307 -0.816,1.008 -0.362,0.2667 -0.805,0.4693 -1.328,0.608 -0.512,0.1387 -1.093,0.208 -1.744,0.208 z m -1.856,-5.344 h 3.36 c 0,-0.2773 -0.037,-0.5173 -0.112,-0.72 -0.064,-0.2133 -0.165,-0.3893 -0.304,-0.528 -0.128,-0.1387 -0.288,-0.24 -0.48,-0.304 -0.181,-0.0747 -0.394,-0.112 -0.64,-0.112 -0.384,0 -0.704,0.064 -0.96,0.192 -0.256,0.128 -0.453,0.3147 -0.592,0.56 -0.138,0.2453 -0.229,0.5493 -0.272,0.912 z"
         fill="#000000"
         id="path8" /><path
         d="m 266.188,89.192 c -0.885,0 -1.648,-0.128 -2.288,-0.384 -0.629,-0.2667 -1.109,-0.6667 -1.44,-1.2 -0.331,-0.544 -0.496,-1.2373 -0.496,-2.08 v -0.352 h 2.736 v 0.352 c 0,0.4907 0.117,0.8533 0.352,1.088 0.245,0.224 0.603,0.336 1.072,0.336 0.459,0 0.805,-0.144 1.04,-0.432 0.245,-0.288 0.368,-0.7307 0.368,-1.328 v -7.184 h 2.864 v 7.2 c 0,0.9067 -0.165,1.6587 -0.496,2.256 -0.331,0.5867 -0.811,1.024 -1.44,1.312 -0.629,0.2773 -1.387,0.416 -2.272,0.416 z m 8.734,0 c -0.352,0 -0.699,-0.0373 -1.04,-0.112 -0.331,-0.064 -0.635,-0.1813 -0.912,-0.352 -0.267,-0.1813 -0.48,-0.4267 -0.64,-0.736 -0.16,-0.3093 -0.24,-0.6987 -0.24,-1.168 0,-0.608 0.128,-1.104 0.384,-1.488 0.256,-0.384 0.624,-0.6827 1.104,-0.896 0.491,-0.224 1.077,-0.3787 1.76,-0.464 0.693,-0.0853 1.467,-0.128 2.32,-0.128 V 83.32 c 0,-0.2453 -0.048,-0.448 -0.144,-0.608 -0.096,-0.1707 -0.24,-0.2987 -0.432,-0.384 -0.181,-0.096 -0.427,-0.144 -0.736,-0.144 -0.277,0 -0.523,0.032 -0.736,0.096 -0.203,0.064 -0.357,0.16 -0.464,0.288 -0.107,0.1173 -0.16,0.2613 -0.16,0.432 v 0.144 h -2.56 c -0.011,-0.0533 -0.016,-0.096 -0.016,-0.128 0,-0.0427 0,-0.096 0,-0.16 0,-0.5013 0.155,-0.9387 0.464,-1.312 0.32,-0.3733 0.773,-0.6613 1.36,-0.864 0.587,-0.2027 1.296,-0.304 2.128,-0.304 0.779,0 1.456,0.096 2.032,0.288 0.587,0.192 1.045,0.4853 1.376,0.88 0.341,0.3947 0.512,0.912 0.512,1.552 v 3.6 c 0,0.1813 0.048,0.3253 0.144,0.432 0.107,0.1067 0.235,0.16 0.384,0.16 h 0.544 v 1.616 c -0.117,0.0533 -0.304,0.112 -0.56,0.176 -0.245,0.0747 -0.544,0.112 -0.896,0.112 -0.363,0 -0.683,-0.048 -0.96,-0.144 -0.267,-0.0853 -0.491,-0.208 -0.672,-0.368 -0.171,-0.1707 -0.288,-0.368 -0.352,-0.592 h -0.112 c -0.203,0.2133 -0.443,0.4053 -0.72,0.576 -0.267,0.1707 -0.581,0.2987 -0.944,0.384 -0.352,0.096 -0.757,0.144 -1.216,0.144 z m 0.976,-1.808 c 0.256,0 0.491,-0.0373 0.704,-0.112 0.213,-0.0747 0.395,-0.176 0.544,-0.304 0.16,-0.1387 0.283,-0.304 0.368,-0.496 0.096,-0.192 0.144,-0.4 0.144,-0.624 v -0.56 c -0.608,0 -1.131,0.0427 -1.568,0.128 -0.437,0.0853 -0.773,0.2187 -1.008,0.4 -0.235,0.1813 -0.352,0.4107 -0.352,0.688 0,0.2027 0.048,0.3733 0.144,0.512 0.107,0.128 0.245,0.224 0.416,0.288 0.171,0.0533 0.373,0.08 0.608,0.08 z M 282.43,89 v -8.432 h 2.16 l 0.192,1.2 h 0.112 c 0.213,-0.288 0.458,-0.5387 0.736,-0.752 0.277,-0.2133 0.592,-0.3733 0.944,-0.48 0.352,-0.1067 0.725,-0.16 1.12,-0.16 0.608,0 1.12,0.112 1.536,0.336 0.426,0.224 0.752,0.56 0.976,1.008 0.224,0.448 0.336,1.0187 0.336,1.712 V 89 h -2.624 v -5.2 c 0,-0.2347 -0.032,-0.432 -0.096,-0.592 -0.054,-0.1707 -0.134,-0.3147 -0.24,-0.432 -0.107,-0.1173 -0.24,-0.2027 -0.4,-0.256 -0.16,-0.0533 -0.342,-0.08 -0.544,-0.08 -0.31,0 -0.582,0.0747 -0.816,0.224 -0.235,0.1387 -0.422,0.3307 -0.56,0.576 -0.139,0.2347 -0.208,0.512 -0.208,0.832 V 89 Z m 10.222,0 v -2.672 h 2.784 V 89 Z m 7.773,0 v -0.656 c 0,-0.4693 0.091,-0.9013 0.272,-1.296 0.181,-0.3947 0.427,-0.7627 0.736,-1.104 0.309,-0.3413 0.651,-0.6667 1.024,-0.976 0.384,-0.32 0.768,-0.624 1.152,-0.912 0.437,-0.32 0.848,-0.6293 1.232,-0.928 0.384,-0.2987 0.693,-0.6133 0.928,-0.944 0.245,-0.3307 0.368,-0.6987 0.368,-1.104 0,-0.2133 -0.053,-0.416 -0.16,-0.608 -0.096,-0.2027 -0.256,-0.368 -0.48,-0.496 -0.213,-0.128 -0.501,-0.192 -0.864,-0.192 -0.363,0 -0.667,0.0693 -0.912,0.208 -0.245,0.128 -0.432,0.3093 -0.56,0.544 -0.128,0.2347 -0.192,0.512 -0.192,0.832 v 0.48 h -2.432 c -0.011,-0.064 -0.021,-0.1333 -0.032,-0.208 0,-0.0853 0,-0.1813 0,-0.288 0,-0.768 0.176,-1.4133 0.528,-1.936 0.352,-0.5227 0.848,-0.9173 1.488,-1.184 0.651,-0.2773 1.424,-0.416 2.32,-0.416 0.683,0 1.269,0.0907 1.76,0.272 0.501,0.1813 0.912,0.4267 1.232,0.736 0.32,0.3093 0.555,0.6613 0.704,1.056 0.16,0.384 0.24,0.784 0.24,1.2 0,0.5013 -0.091,0.9547 -0.272,1.36 -0.181,0.4053 -0.432,0.7893 -0.752,1.152 -0.32,0.352 -0.693,0.6933 -1.12,1.024 -0.427,0.32 -0.885,0.6453 -1.376,0.976 -0.245,0.1707 -0.469,0.3307 -0.672,0.48 -0.192,0.1387 -0.347,0.2613 -0.464,0.368 -0.117,0.1067 -0.203,0.2027 -0.256,0.288 h 5.008 V 89 Z m 14.208,0.192 c -0.768,0 -1.424,-0.112 -1.968,-0.336 -0.544,-0.2347 -0.987,-0.5813 -1.328,-1.04 -0.341,-0.4693 -0.592,-1.0613 -0.752,-1.776 -0.16,-0.7147 -0.24,-1.5627 -0.24,-2.544 0,-0.9707 0.08,-1.8133 0.24,-2.528 0.16,-0.7147 0.411,-1.3013 0.752,-1.76 0.341,-0.4693 0.784,-0.816 1.328,-1.04 0.544,-0.2347 1.2,-0.352 1.968,-0.352 0.768,0 1.419,0.1173 1.952,0.352 0.544,0.224 0.987,0.5707 1.328,1.04 0.341,0.4587 0.592,1.0453 0.752,1.76 0.16,0.7147 0.24,1.5573 0.24,2.528 0,0.9813 -0.08,1.8293 -0.24,2.544 -0.16,0.7147 -0.411,1.3067 -0.752,1.776 -0.341,0.4587 -0.784,0.8053 -1.328,1.04 -0.533,0.224 -1.184,0.336 -1.952,0.336 z m 0,-1.904 c 0.427,0 0.757,-0.112 0.992,-0.336 0.245,-0.2347 0.411,-0.5813 0.496,-1.04 0.096,-0.4693 0.144,-1.0613 0.144,-1.776 v -1.248 c 0,-0.7253 -0.048,-1.3227 -0.144,-1.792 -0.085,-0.4693 -0.251,-0.816 -0.496,-1.04 -0.235,-0.224 -0.565,-0.336 -0.992,-0.336 -0.427,0 -0.763,0.112 -1.008,0.336 -0.235,0.224 -0.4,0.5707 -0.496,1.04 -0.096,0.4587 -0.144,1.0507 -0.144,1.776 v 1.232 c 0,0.7253 0.048,1.3227 0.144,1.792 0.096,0.4693 0.261,0.8213 0.496,1.056 0.245,0.224 0.581,0.336 1.008,0.336 z M 320.425,89 v -0.656 c 0,-0.4693 0.091,-0.9013 0.272,-1.296 0.181,-0.3947 0.427,-0.7627 0.736,-1.104 0.309,-0.3413 0.651,-0.6667 1.024,-0.976 0.384,-0.32 0.768,-0.624 1.152,-0.912 0.437,-0.32 0.848,-0.6293 1.232,-0.928 0.384,-0.2987 0.693,-0.6133 0.928,-0.944 0.245,-0.3307 0.368,-0.6987 0.368,-1.104 0,-0.2133 -0.053,-0.416 -0.16,-0.608 -0.096,-0.2027 -0.256,-0.368 -0.48,-0.496 -0.213,-0.128 -0.501,-0.192 -0.864,-0.192 -0.363,0 -0.667,0.0693 -0.912,0.208 -0.245,0.128 -0.432,0.3093 -0.56,0.544 -0.128,0.2347 -0.192,0.512 -0.192,0.832 v 0.48 h -2.432 c -0.011,-0.064 -0.021,-0.1333 -0.032,-0.208 0,-0.0853 0,-0.1813 0,-0.288 0,-0.768 0.176,-1.4133 0.528,-1.936 0.352,-0.5227 0.848,-0.9173 1.488,-1.184 0.651,-0.2773 1.424,-0.416 2.32,-0.416 0.683,0 1.269,0.0907 1.76,0.272 0.501,0.1813 0.912,0.4267 1.232,0.736 0.32,0.3093 0.555,0.6613 0.704,1.056 0.16,0.384 0.24,0.784 0.24,1.2 0,0.5013 -0.091,0.9547 -0.272,1.36 -0.181,0.4053 -0.432,0.7893 -0.752,1.152 -0.32,0.352 -0.693,0.6933 -1.12,1.024 -0.427,0.32 -0.885,0.6453 -1.376,0.976 -0.245,0.1707 -0.469,0.3307 -0.672,0.48 -0.192,0.1387 -0.347,0.2613 -0.464,0.368 -0.117,0.1067 -0.203,0.2027 -0.256,0.288 h 5.008 V 89 Z m 14.752,0 v -2.336 h -5.12 v -2.032 c 0.384,-0.5973 0.757,-1.2533 1.12,-1.968 0.373,-0.7253 0.725,-1.4987 1.056,-2.32 0.331,-0.8213 0.608,-1.664 0.832,-2.528 h 2.64 c -0.085,0.448 -0.229,0.9333 -0.432,1.456 -0.203,0.512 -0.443,1.0347 -0.72,1.568 -0.267,0.5227 -0.555,1.0293 -0.864,1.52 -0.299,0.48 -0.592,0.9227 -0.88,1.328 -0.277,0.3947 -0.533,0.7147 -0.768,0.96 h 3.136 v -2.512 c 0.117,-0.192 0.24,-0.416 0.368,-0.672 0.139,-0.256 0.272,-0.5227 0.4,-0.8 0.139,-0.2773 0.256,-0.544 0.352,-0.8 0.107,-0.2667 0.192,-0.512 0.256,-0.736 h 1.168 v 5.52 h 1.456 v 2.016 h -1.456 V 89 Z"
         fill="#000000"
         id="path9" /></g></g></svg>
