<svg width="85" height="55" viewBox="0 0 85 55" fill="none" xmlns="http://www.w3.org/2000/svg">
<rect width="85" height="55" rx="27.5" fill="black"/>
<path d="M27.4 38V16.016H36.584C38.9733 16.016 40.9893 16.4107 42.632 17.2C44.296 17.9893 45.5547 19.1947 46.408 20.816C47.2827 22.416 47.72 24.4747 47.72 26.992C47.72 29.488 47.2827 31.5573 46.408 33.2C45.5547 34.8213 44.296 36.0267 42.632 36.816C40.9893 37.6053 38.9733 38 36.584 38H27.4ZM33.128 33.52H36.52C37.416 33.52 38.1947 33.392 38.856 33.136C39.5173 32.88 40.072 32.5067 40.52 32.016C40.968 31.5253 41.2987 30.9173 41.512 30.192C41.7253 29.4667 41.832 28.6347 41.832 27.696V26.352C41.832 25.392 41.7253 24.5493 41.512 23.824C41.2987 23.0987 40.968 22.4907 40.52 22C40.072 21.5093 39.5173 21.136 38.856 20.88C38.1947 20.624 37.416 20.496 36.52 20.496H33.128V33.52ZM50.4363 31.472V27.088H58.5323V31.472H50.4363Z" fill="white"/>
</svg>
