<svg width="117" height="55" viewBox="0 0 117 55" fill="none" xmlns="http://www.w3.org/2000/svg">
<rect width="117" height="55" rx="27.5" fill="black"/>
<path d="M36.52 38.384C35.1333 38.384 33.832 38.256 32.616 38C31.4 37.7653 30.3227 37.3707 29.384 36.816C28.4667 36.2613 27.7413 35.536 27.208 34.64C26.6747 33.7227 26.408 32.6027 26.408 31.28C26.408 31.1947 26.408 31.0987 26.408 30.992C26.408 30.8853 26.4187 30.8 26.44 30.736H31.976C31.976 30.8 31.9653 30.8853 31.944 30.992C31.944 31.0773 31.944 31.152 31.944 31.216C31.944 31.8987 32.1147 32.4533 32.456 32.88C32.8187 33.2853 33.32 33.584 33.96 33.776C34.6 33.9467 35.3467 34.032 36.2 34.032C36.6693 34.032 37.1067 34.0107 37.512 33.968C37.9173 33.9253 38.28 33.8507 38.6 33.744C38.92 33.6373 39.1973 33.5093 39.432 33.36C39.688 33.1893 39.8693 32.9973 39.976 32.784C40.104 32.5493 40.168 32.2827 40.168 31.984C40.168 31.4933 39.976 31.088 39.592 30.768C39.2293 30.448 38.728 30.1813 38.088 29.968C37.4693 29.7547 36.7653 29.552 35.976 29.36C35.1867 29.168 34.3653 28.9653 33.512 28.752C32.6587 28.5387 31.8373 28.272 31.048 27.952C30.2587 27.632 29.544 27.2267 28.904 26.736C28.2853 26.2453 27.784 25.6373 27.4 24.912C27.0373 24.1653 26.856 23.2693 26.856 22.224C26.856 21.072 27.1013 20.08 27.592 19.248C28.0827 18.3947 28.7547 17.7013 29.608 17.168C30.4827 16.6347 31.4853 16.2507 32.616 16.016C33.7467 15.76 34.952 15.632 36.232 15.632C37.4907 15.632 38.664 15.76 39.752 16.016C40.8613 16.272 41.8427 16.6773 42.696 17.232C43.5493 17.7653 44.2107 18.448 44.68 19.28C45.1707 20.0907 45.4267 21.072 45.448 22.224V22.608H39.944V22.384C39.944 21.8933 39.8053 21.4667 39.528 21.104C39.272 20.72 38.8773 20.4213 38.344 20.208C37.8107 19.9733 37.1493 19.856 36.36 19.856C35.5707 19.856 34.8987 19.9307 34.344 20.08C33.8107 20.2293 33.3947 20.4427 33.096 20.72C32.8187 20.9973 32.68 21.328 32.68 21.712C32.68 22.1813 32.8613 22.5653 33.224 22.864C33.608 23.1627 34.12 23.4187 34.76 23.632C35.4 23.8453 36.1147 24.048 36.904 24.24C37.6933 24.4107 38.504 24.6027 39.336 24.816C40.1893 25.008 41.0107 25.264 41.8 25.584C42.5893 25.8827 43.304 26.2773 43.944 26.768C44.584 27.2373 45.0853 27.824 45.448 28.528C45.832 29.232 46.024 30.0853 46.024 31.088C46.024 32.8373 45.608 34.2453 44.776 35.312C43.9653 36.3787 42.8347 37.1573 41.384 37.648C39.9547 38.1387 38.3333 38.384 36.52 38.384ZM59.8245 38.384C57.4565 38.384 55.4405 37.9787 53.7765 37.168C52.1338 36.336 50.8858 35.0773 50.0325 33.392C49.1792 31.7067 48.7525 29.5733 48.7525 26.992C48.7525 23.1947 49.7018 20.3573 51.6005 18.48C53.5205 16.5813 56.2618 15.632 59.8245 15.632C61.8085 15.632 63.5685 15.9733 65.1045 16.656C66.6405 17.3173 67.8352 18.32 68.6885 19.664C69.5632 20.9867 70.0005 22.64 70.0005 24.624H64.4005C64.4005 23.6853 64.2085 22.8853 63.8245 22.224C63.4618 21.5413 62.9392 21.0187 62.2565 20.656C61.5952 20.2933 60.7845 20.112 59.8245 20.112C58.6298 20.112 57.6485 20.3573 56.8805 20.848C56.1125 21.3387 55.5472 22.0427 55.1845 22.96C54.8218 23.8773 54.6405 24.9867 54.6405 26.288V27.728C54.6405 29.0293 54.8218 30.1493 55.1845 31.088C55.5472 32.0053 56.1018 32.7093 56.8485 33.2C57.6165 33.6693 58.5978 33.904 59.7925 33.904C60.8165 33.904 61.6805 33.7333 62.3845 33.392C63.1098 33.0507 63.6538 32.5493 64.0165 31.888C64.4005 31.2053 64.5925 30.3947 64.5925 29.456H70.0005C70.0005 31.44 69.5738 33.0933 68.7205 34.416C67.8885 35.7387 66.7045 36.7307 65.1685 37.392C63.6538 38.0533 61.8725 38.384 59.8245 38.384ZM73.775 38V16.016H79.503V33.296H90.671V38H73.775Z" fill="white"/>
</svg>
