<svg width="120" height="55" viewBox="0 0 120 55" fill="none" xmlns="http://www.w3.org/2000/svg">
<rect width="120" height="55" rx="27.5" fill="black"/>
<path d="M36.52 38.384C35.1333 38.384 33.832 38.256 32.616 38C31.4 37.7653 30.3227 37.3707 29.384 36.816C28.4667 36.2613 27.7413 35.536 27.208 34.64C26.6747 33.7227 26.408 32.6027 26.408 31.28C26.408 31.1947 26.408 31.0987 26.408 30.992C26.408 30.8853 26.4187 30.8 26.44 30.736H31.976C31.976 30.8 31.9653 30.8853 31.944 30.992C31.944 31.0773 31.944 31.152 31.944 31.216C31.944 31.8987 32.1147 32.4533 32.456 32.88C32.8187 33.2853 33.32 33.584 33.96 33.776C34.6 33.9467 35.3467 34.032 36.2 34.032C36.6693 34.032 37.1067 34.0107 37.512 33.968C37.9173 33.9253 38.28 33.8507 38.6 33.744C38.92 33.6373 39.1973 33.5093 39.432 33.36C39.688 33.1893 39.8693 32.9973 39.976 32.784C40.104 32.5493 40.168 32.2827 40.168 31.984C40.168 31.4933 39.976 31.088 39.592 30.768C39.2293 30.448 38.728 30.1813 38.088 29.968C37.4693 29.7547 36.7653 29.552 35.976 29.36C35.1867 29.168 34.3653 28.9653 33.512 28.752C32.6587 28.5387 31.8373 28.272 31.048 27.952C30.2587 27.632 29.544 27.2267 28.904 26.736C28.2853 26.2453 27.784 25.6373 27.4 24.912C27.0373 24.1653 26.856 23.2693 26.856 22.224C26.856 21.072 27.1013 20.08 27.592 19.248C28.0827 18.3947 28.7547 17.7013 29.608 17.168C30.4827 16.6347 31.4853 16.2507 32.616 16.016C33.7467 15.76 34.952 15.632 36.232 15.632C37.4907 15.632 38.664 15.76 39.752 16.016C40.8613 16.272 41.8427 16.6773 42.696 17.232C43.5493 17.7653 44.2107 18.448 44.68 19.28C45.1707 20.0907 45.4267 21.072 45.448 22.224V22.608H39.944V22.384C39.944 21.8933 39.8053 21.4667 39.528 21.104C39.272 20.72 38.8773 20.4213 38.344 20.208C37.8107 19.9733 37.1493 19.856 36.36 19.856C35.5707 19.856 34.8987 19.9307 34.344 20.08C33.8107 20.2293 33.3947 20.4427 33.096 20.72C32.8187 20.9973 32.68 21.328 32.68 21.712C32.68 22.1813 32.8613 22.5653 33.224 22.864C33.608 23.1627 34.12 23.4187 34.76 23.632C35.4 23.8453 36.1147 24.048 36.904 24.24C37.6933 24.4107 38.504 24.6027 39.336 24.816C40.1893 25.008 41.0107 25.264 41.8 25.584C42.5893 25.8827 43.304 26.2773 43.944 26.768C44.584 27.2373 45.0853 27.824 45.448 28.528C45.832 29.232 46.024 30.0853 46.024 31.088C46.024 32.8373 45.608 34.2453 44.776 35.312C43.9653 36.3787 42.8347 37.1573 41.384 37.648C39.9547 38.1387 38.3333 38.384 36.52 38.384ZM49.7125 38V16.016H58.8965C61.2858 16.016 63.3018 16.4107 64.9445 17.2C66.6085 17.9893 67.8672 19.1947 68.7205 20.816C69.5952 22.416 70.0325 24.4747 70.0325 26.992C70.0325 29.488 69.5952 31.5573 68.7205 33.2C67.8672 34.8213 66.6085 36.0267 64.9445 36.816C63.3018 37.6053 61.2858 38 58.8965 38H49.7125ZM55.4405 33.52H58.8325C59.7285 33.52 60.5072 33.392 61.1685 33.136C61.8298 32.88 62.3845 32.5067 62.8325 32.016C63.2805 31.5253 63.6112 30.9173 63.8245 30.192C64.0378 29.4667 64.1445 28.6347 64.1445 27.696V26.352C64.1445 25.392 64.0378 24.5493 63.8245 23.824C63.6112 23.0987 63.2805 22.4907 62.8325 22C62.3845 21.5093 61.8298 21.136 61.1685 20.88C60.5072 20.624 59.7285 20.496 58.8325 20.496H55.4405V33.52ZM71.1623 38L79.4183 16.016H86.2983L94.5543 38H88.4423L87.1303 34.192H78.3623L77.0503 38H71.1623ZM79.7383 29.904H85.7223L84.1543 25.264C84.0689 25.0293 83.9623 24.7413 83.8343 24.4C83.7276 24.0373 83.6103 23.664 83.4823 23.28C83.3756 22.8747 83.2689 22.4693 83.1623 22.064C83.0556 21.6587 82.9489 21.3067 82.8423 21.008H82.6183C82.5329 21.4133 82.4049 21.872 82.2343 22.384C82.0849 22.896 81.9249 23.408 81.7543 23.92C81.6049 24.432 81.4663 24.88 81.3383 25.264L79.7383 29.904Z" fill="white"/>
</svg>
