<svg width="147" height="55" viewBox="0 0 147 55" fill="none" xmlns="http://www.w3.org/2000/svg">
<rect width="147" height="55" rx="27.5" fill="black"/>
<path d="M27.4 38V16.016H40.84C41.9707 16.016 42.9947 16.24 43.912 16.688C44.8293 17.136 45.5547 17.7653 46.088 18.576C46.6427 19.3867 46.92 20.336 46.92 21.424C46.92 22.384 46.7493 23.2053 46.408 23.888C46.088 24.5707 45.6507 25.1253 45.096 25.552C44.5627 25.9787 43.9547 26.2987 43.272 26.512V26.64C44.0613 26.8107 44.776 27.12 45.416 27.568C46.056 27.9947 46.5573 28.5813 46.92 29.328C47.304 30.0747 47.496 30.9813 47.496 32.048C47.496 33.3067 47.1973 34.384 46.6 35.28C46.0027 36.1547 45.2133 36.8267 44.232 37.296C43.2507 37.7653 42.152 38 40.936 38H27.4ZM33.128 33.584H39.368C40.0507 33.584 40.5947 33.3813 41 32.976C41.4267 32.5707 41.64 31.952 41.64 31.12C41.64 30.672 41.544 30.2773 41.352 29.936C41.1813 29.5733 40.9147 29.296 40.552 29.104C40.2107 28.912 39.784 28.816 39.272 28.816H33.128V33.584ZM33.128 24.752H38.856C39.3253 24.752 39.72 24.656 40.04 24.464C40.3813 24.272 40.6373 24.0053 40.808 23.664C41 23.3227 41.096 22.9173 41.096 22.448C41.096 21.7653 40.8933 21.232 40.488 20.848C40.0827 20.464 39.5707 20.272 38.952 20.272H33.128V24.752ZM61.8038 38.384C59.3931 38.384 57.3238 37.968 55.5958 37.136C53.8891 36.2827 52.5771 35.0133 51.6598 33.328C50.7424 31.6427 50.2838 29.5307 50.2838 26.992C50.2838 24.4533 50.7424 22.352 51.6598 20.688C52.5771 19.0027 53.8891 17.744 55.5958 16.912C57.3238 16.0587 59.3931 15.632 61.8038 15.632C64.2144 15.632 66.2731 16.0587 67.9798 16.912C69.7078 17.744 71.0304 19.0027 71.9478 20.688C72.8651 22.352 73.3238 24.4533 73.3238 26.992C73.3238 29.5307 72.8651 31.6427 71.9478 33.328C71.0304 35.0133 69.7078 36.2827 67.9798 37.136C66.2731 37.968 64.2144 38.384 61.8038 38.384ZM61.8038 33.904C62.7211 33.904 63.5318 33.7653 64.2358 33.488C64.9398 33.2107 65.5264 32.8053 65.9958 32.272C66.4864 31.7387 66.8491 31.088 67.0838 30.32C67.3184 29.552 67.4358 28.688 67.4358 27.728V26.32C67.4358 25.3387 67.3184 24.464 67.0838 23.696C66.8491 22.928 66.4864 22.2773 65.9958 21.744C65.5264 21.2107 64.9398 20.8053 64.2358 20.528C63.5318 20.2507 62.7211 20.112 61.8038 20.112C60.8651 20.112 60.0438 20.2507 59.3398 20.528C58.6358 20.8053 58.0491 21.2107 57.5798 21.744C57.1104 22.2773 56.7584 22.928 56.5238 23.696C56.2891 24.464 56.1718 25.3387 56.1718 26.32V27.728C56.1718 28.688 56.2891 29.552 56.5238 30.32C56.7584 31.088 57.1104 31.7387 57.5798 32.272C58.0491 32.8053 58.6358 33.2107 59.3398 33.488C60.0438 33.7653 60.8651 33.904 61.8038 33.904ZM87.71 38.384C85.2993 38.384 83.23 37.968 81.502 37.136C79.7953 36.2827 78.4833 35.0133 77.566 33.328C76.6487 31.6427 76.19 29.5307 76.19 26.992C76.19 24.4533 76.6487 22.352 77.566 20.688C78.4833 19.0027 79.7953 17.744 81.502 16.912C83.23 16.0587 85.2993 15.632 87.71 15.632C90.1207 15.632 92.1793 16.0587 93.886 16.912C95.614 17.744 96.9367 19.0027 97.854 20.688C98.7713 22.352 99.23 24.4533 99.23 26.992C99.23 29.5307 98.7713 31.6427 97.854 33.328C96.9367 35.0133 95.614 36.2827 93.886 37.136C92.1793 37.968 90.1207 38.384 87.71 38.384ZM87.71 33.904C88.6273 33.904 89.438 33.7653 90.142 33.488C90.846 33.2107 91.4327 32.8053 91.902 32.272C92.3927 31.7387 92.7553 31.088 92.99 30.32C93.2247 29.552 93.342 28.688 93.342 27.728V26.32C93.342 25.3387 93.2247 24.464 92.99 23.696C92.7553 22.928 92.3927 22.2773 91.902 21.744C91.4327 21.2107 90.846 20.8053 90.142 20.528C89.438 20.2507 88.6273 20.112 87.71 20.112C86.7713 20.112 85.95 20.2507 85.246 20.528C84.542 20.8053 83.9553 21.2107 83.486 21.744C83.0167 22.2773 82.6647 22.928 82.43 23.696C82.1953 24.464 82.078 25.3387 82.078 26.32V27.728C82.078 28.688 82.1953 29.552 82.43 30.32C82.6647 31.088 83.0167 31.7387 83.486 32.272C83.9553 32.8053 84.542 33.2107 85.246 33.488C85.95 33.7653 86.7713 33.904 87.71 33.904ZM107.654 38V20.72H100.518V16.016H120.518V20.72H113.382V38H107.654Z" fill="white"/>
</svg>
