<svg width="98" height="55" viewBox="0 0 98 55" fill="none" xmlns="http://www.w3.org/2000/svg">
<rect width="98" height="55" rx="27.5" fill="black"/>
<path d="M27.464 38V16.016H45.608V20.496H33.192V24.624H44.04V29.008H33.192V33.52H45.832V38H27.464ZM49.775 38V16.016H54.863L62.863 26.224C63.0123 26.3947 63.2043 26.64 63.439 26.96C63.695 27.28 63.9403 27.6107 64.175 27.952C64.4097 28.272 64.5803 28.528 64.687 28.72L64.847 28.688C64.847 28.2187 64.847 27.7707 64.847 27.344C64.847 26.896 64.847 26.5227 64.847 26.224V16.016H70.159V38H65.103L56.623 27.248C56.3457 26.9067 56.079 26.5547 55.823 26.192C55.5883 25.8293 55.3963 25.5307 55.247 25.296L55.087 25.328C55.087 25.6693 55.087 26.0213 55.087 26.384C55.087 26.7253 55.087 27.0133 55.087 27.248V38H49.775Z" fill="white"/>
</svg>
