<svg width="398" height="268" viewBox="0 0 398 268" fill="none" xmlns="http://www.w3.org/2000/svg">
<g clip-path="url(#clip0_23_138)">
<rect x="203" y="189" width="171" height="55" rx="27.5" transform="rotate(-90 203 189)" fill="black"/>
<path d="M241.384 153.856C241.384 155.712 241.085 157.301 240.488 158.624C239.869 159.925 239.016 160.928 237.928 161.632C236.819 162.315 235.517 162.656 234.024 162.656V157.76C234.707 157.76 235.315 157.621 235.848 157.344C236.381 157.067 236.797 156.661 237.096 156.128C237.373 155.595 237.512 154.955 237.512 154.208C237.512 153.461 237.363 152.832 237.064 152.32C236.765 151.808 236.339 151.413 235.784 151.136C235.208 150.859 234.536 150.72 233.768 150.72C233 150.72 232.349 150.859 231.816 151.136C231.283 151.413 230.877 151.808 230.6 152.32C230.301 152.832 230.152 153.44 230.152 154.144C230.152 154.763 230.248 155.285 230.44 155.712C230.632 156.117 230.856 156.448 231.112 156.704C231.368 156.96 231.613 157.173 231.848 157.344L231.272 161.792L219.016 160.864V146.848H223.592V156.736L227.88 157.024C227.773 156.896 227.613 156.651 227.4 156.288C227.187 155.904 226.984 155.403 226.792 154.784C226.6 154.144 226.504 153.408 226.504 152.576C226.504 151.168 226.781 149.931 227.336 148.864C227.891 147.797 228.712 146.965 229.8 146.368C230.888 145.749 232.221 145.44 233.8 145.44C235.293 145.44 236.616 145.781 237.768 146.464C238.899 147.147 239.784 148.117 240.424 149.376C241.064 150.635 241.384 152.128 241.384 153.856ZM241 135.648L219.016 143.552V137.408L231.432 133.376C231.688 133.291 232.029 133.184 232.456 133.056C232.861 132.928 233.288 132.8 233.736 132.672C234.163 132.523 234.547 132.405 234.888 132.32V132.096C234.568 131.989 234.205 131.883 233.8 131.776C233.373 131.648 232.957 131.52 232.552 131.392C232.125 131.264 231.763 131.157 231.464 131.072L219.016 127.04V121.12L241 128.992V135.648ZM241.384 102.113C241.384 104.225 241.053 106.049 240.392 107.585C239.731 109.1 238.739 110.262 237.416 111.073C236.093 111.884 234.451 112.289 232.488 112.289H219.016V106.529H232.36C233.768 106.529 234.877 106.156 235.688 105.409C236.499 104.662 236.904 103.564 236.904 102.113C236.904 100.662 236.499 99.553 235.688 98.785C234.877 98.017 233.768 97.633 232.36 97.633H219.016V91.905H232.488C234.451 91.905 236.093 92.3103 237.416 93.121C238.739 93.9317 239.731 95.0943 240.392 96.609C241.053 98.1237 241.384 99.9583 241.384 102.113ZM241.384 78.0425C241.384 79.4292 241.256 80.7305 241 81.9465C240.765 83.1625 240.371 84.2398 239.816 85.1785C239.261 86.0958 238.536 86.8212 237.64 87.3545C236.723 87.8878 235.603 88.1545 234.28 88.1545C234.195 88.1545 234.099 88.1545 233.992 88.1545C233.885 88.1545 233.8 88.1438 233.736 88.1225V82.5865C233.8 82.5865 233.885 82.5972 233.992 82.6185C234.077 82.6185 234.152 82.6185 234.216 82.6185C234.899 82.6185 235.453 82.4478 235.88 82.1065C236.285 81.7438 236.584 81.2425 236.776 80.6025C236.947 79.9625 237.032 79.2158 237.032 78.3625C237.032 77.8932 237.011 77.4558 236.968 77.0505C236.925 76.6452 236.851 76.2825 236.744 75.9625C236.637 75.6425 236.509 75.3652 236.36 75.1305C236.189 74.8745 235.997 74.6932 235.784 74.5865C235.549 74.4585 235.283 74.3945 234.984 74.3945C234.493 74.3945 234.088 74.5865 233.768 74.9705C233.448 75.3332 233.181 75.8345 232.968 76.4745C232.755 77.0932 232.552 77.7972 232.36 78.5865C232.168 79.3758 231.965 80.1972 231.752 81.0505C231.539 81.9038 231.272 82.7252 230.952 83.5145C230.632 84.3038 230.227 85.0185 229.736 85.6585C229.245 86.2772 228.637 86.7785 227.912 87.1625C227.165 87.5252 226.269 87.7065 225.224 87.7065C224.072 87.7065 223.08 87.4612 222.248 86.9705C221.395 86.4798 220.701 85.8078 220.168 84.9545C219.635 84.0798 219.251 83.0772 219.016 81.9465C218.76 80.8158 218.632 79.6105 218.632 78.3305C218.632 77.0718 218.76 75.8985 219.016 74.8105C219.272 73.7012 219.677 72.7198 220.232 71.8665C220.765 71.0132 221.448 70.3518 222.28 69.8825C223.091 69.3918 224.072 69.1358 225.224 69.1145H225.608V74.6185H225.384C224.893 74.6185 224.467 74.7572 224.104 75.0345C223.72 75.2905 223.421 75.6852 223.208 76.2185C222.973 76.7518 222.856 77.4132 222.856 78.2025C222.856 78.9918 222.931 79.6638 223.08 80.2185C223.229 80.7518 223.443 81.1678 223.72 81.4665C223.997 81.7438 224.328 81.8825 224.712 81.8825C225.181 81.8825 225.565 81.7012 225.864 81.3385C226.163 80.9545 226.419 80.4425 226.632 79.8025C226.845 79.1625 227.048 78.4478 227.24 77.6585C227.411 76.8692 227.603 76.0585 227.816 75.2265C228.008 74.3732 228.264 73.5518 228.584 72.7625C228.883 71.9732 229.277 71.2585 229.768 70.6185C230.237 69.9785 230.824 69.4772 231.528 69.1145C232.232 68.7305 233.085 68.5385 234.088 68.5385C235.837 68.5385 237.245 68.9545 238.312 69.7865C239.379 70.5972 240.157 71.7278 240.648 73.1785C241.139 74.6078 241.384 76.2292 241.384 78.0425ZM241 64.85H219.016V51.41C219.016 50.2793 219.24 49.2553 219.688 48.338C220.136 47.4207 220.765 46.6953 221.576 46.162C222.387 45.6073 223.336 45.33 224.424 45.33C225.384 45.33 226.205 45.5007 226.888 45.842C227.571 46.162 228.125 46.5993 228.552 47.154C228.979 47.6873 229.299 48.2953 229.512 48.978H229.64C229.811 48.1887 230.12 47.474 230.568 46.834C230.995 46.194 231.581 45.6927 232.328 45.33C233.075 44.946 233.981 44.754 235.048 44.754C236.307 44.754 237.384 45.0527 238.28 45.65C239.155 46.2473 239.827 47.0367 240.296 48.018C240.765 48.9993 241 50.098 241 51.314V64.85ZM236.584 59.122V52.882C236.584 52.1993 236.381 51.6553 235.976 51.25C235.571 50.8233 234.952 50.61 234.12 50.61C233.672 50.61 233.277 50.706 232.936 50.898C232.573 51.0687 232.296 51.3353 232.104 51.698C231.912 52.0393 231.816 52.466 231.816 52.978V59.122H236.584ZM227.752 59.122V53.394C227.752 52.9247 227.656 52.53 227.464 52.21C227.272 51.8687 227.005 51.6127 226.664 51.442C226.323 51.25 225.917 51.154 225.448 51.154C224.765 51.154 224.232 51.3567 223.848 51.762C223.464 52.1673 223.272 52.6793 223.272 53.298V59.122H227.752Z" fill="white"/>
</g>
<rect x="10" y="213" width="170" height="55" rx="27.5" fill="black"/>
<path d="M45.144 251.384C43.288 251.384 41.6987 251.085 40.376 250.488C39.0747 249.869 38.072 249.016 37.368 247.928C36.6853 246.819 36.344 245.517 36.344 244.024H41.24C41.24 244.707 41.3787 245.315 41.656 245.848C41.9333 246.381 42.3387 246.797 42.872 247.096C43.4053 247.373 44.0453 247.512 44.792 247.512C45.5387 247.512 46.168 247.363 46.68 247.064C47.192 246.765 47.5867 246.339 47.864 245.784C48.1413 245.208 48.28 244.536 48.28 243.768C48.28 243 48.1413 242.349 47.864 241.816C47.5867 241.283 47.192 240.877 46.68 240.6C46.168 240.301 45.56 240.152 44.856 240.152C44.2373 240.152 43.7147 240.248 43.288 240.44C42.8827 240.632 42.552 240.856 42.296 241.112C42.04 241.368 41.8267 241.613 41.656 241.848L37.208 241.272L38.136 229.016H52.152V233.592H42.264L41.976 237.88C42.104 237.773 42.3493 237.613 42.712 237.4C43.096 237.187 43.5973 236.984 44.216 236.792C44.856 236.6 45.592 236.504 46.424 236.504C47.832 236.504 49.0693 236.781 50.136 237.336C51.2027 237.891 52.0347 238.712 52.632 239.8C53.2507 240.888 53.56 242.221 53.56 243.8C53.56 245.293 53.2187 246.616 52.536 247.768C51.8533 248.899 50.8827 249.784 49.624 250.424C48.3653 251.064 46.872 251.384 45.144 251.384ZM63.352 251L55.448 229.016H61.592L65.624 241.432C65.7093 241.688 65.816 242.029 65.944 242.456C66.072 242.861 66.2 243.288 66.328 243.736C66.4773 244.163 66.5947 244.547 66.68 244.888H66.904C67.0107 244.568 67.1173 244.205 67.224 243.8C67.352 243.373 67.48 242.957 67.608 242.552C67.736 242.125 67.8427 241.763 67.928 241.464L71.96 229.016H77.88L70.008 251H63.352ZM86.775 251V229.016H98.871C100.364 229.016 101.634 229.325 102.679 229.944C103.746 230.541 104.556 231.384 105.111 232.472C105.687 233.539 105.975 234.797 105.975 236.248C105.975 237.741 105.676 239.032 105.079 240.12C104.503 241.208 103.671 242.061 102.583 242.68C101.516 243.277 100.236 243.576 98.743 243.576H92.503V251H86.775ZM92.503 239.16H97.399C98.295 239.16 98.9777 238.915 99.447 238.424C99.9163 237.912 100.151 237.208 100.151 236.312C100.151 235.672 100.044 235.149 99.831 234.744C99.639 234.339 99.3403 234.029 98.935 233.816C98.5297 233.581 98.0177 233.464 97.399 233.464H92.503V239.16ZM118.239 251.384C116.852 251.384 115.551 251.256 114.335 251C113.119 250.765 112.041 250.371 111.103 249.816C110.185 249.261 109.46 248.536 108.927 247.64C108.393 246.723 108.127 245.603 108.127 244.28C108.127 244.195 108.127 244.099 108.127 243.992C108.127 243.885 108.137 243.8 108.159 243.736H113.695C113.695 243.8 113.684 243.885 113.663 243.992C113.663 244.077 113.663 244.152 113.663 244.216C113.663 244.899 113.833 245.453 114.175 245.88C114.537 246.285 115.039 246.584 115.679 246.776C116.319 246.947 117.065 247.032 117.919 247.032C118.388 247.032 118.825 247.011 119.231 246.968C119.636 246.925 119.999 246.851 120.319 246.744C120.639 246.637 120.916 246.509 121.151 246.36C121.407 246.189 121.588 245.997 121.695 245.784C121.823 245.549 121.887 245.283 121.887 244.984C121.887 244.493 121.695 244.088 121.311 243.768C120.948 243.448 120.447 243.181 119.807 242.968C119.188 242.755 118.484 242.552 117.695 242.36C116.905 242.168 116.084 241.965 115.231 241.752C114.377 241.539 113.556 241.272 112.767 240.952C111.977 240.632 111.263 240.227 110.623 239.736C110.004 239.245 109.503 238.637 109.119 237.912C108.756 237.165 108.575 236.269 108.575 235.224C108.575 234.072 108.82 233.08 109.311 232.248C109.801 231.395 110.473 230.701 111.327 230.168C112.201 229.635 113.204 229.251 114.335 229.016C115.465 228.76 116.671 228.632 117.951 228.632C119.209 228.632 120.383 228.76 121.471 229.016C122.58 229.272 123.561 229.677 124.415 230.232C125.268 230.765 125.929 231.448 126.399 232.28C126.889 233.091 127.145 234.072 127.167 235.224V235.608H121.663V235.384C121.663 234.893 121.524 234.467 121.247 234.104C120.991 233.72 120.596 233.421 120.063 233.208C119.529 232.973 118.868 232.856 118.079 232.856C117.289 232.856 116.617 232.931 116.063 233.08C115.529 233.229 115.113 233.443 114.815 233.72C114.537 233.997 114.399 234.328 114.399 234.712C114.399 235.181 114.58 235.565 114.943 235.864C115.327 236.163 115.839 236.419 116.479 236.632C117.119 236.845 117.833 237.048 118.623 237.24C119.412 237.411 120.223 237.603 121.055 237.816C121.908 238.008 122.729 238.264 123.519 238.584C124.308 238.883 125.023 239.277 125.663 239.768C126.303 240.237 126.804 240.824 127.167 241.528C127.551 242.232 127.743 243.085 127.743 244.088C127.743 245.837 127.327 247.245 126.495 248.312C125.684 249.379 124.553 250.157 123.103 250.648C121.673 251.139 120.052 251.384 118.239 251.384ZM141.543 251.384C139.431 251.384 137.607 251.053 136.071 250.392C134.557 249.731 133.394 248.739 132.583 247.416C131.773 246.093 131.367 244.451 131.367 242.488V229.016H137.127V242.36C137.127 243.768 137.501 244.877 138.247 245.688C138.994 246.499 140.093 246.904 141.543 246.904C142.994 246.904 144.103 246.499 144.871 245.688C145.639 244.877 146.023 243.768 146.023 242.36V229.016H151.751V242.488C151.751 244.451 151.346 246.093 150.535 247.416C149.725 248.739 148.562 249.731 147.047 250.392C145.533 251.053 143.698 251.384 141.543 251.384Z" fill="white"/>
<path d="M174.104 199V194.328H163.864V190.264C164.632 189.069 165.379 187.757 166.104 186.328C166.851 184.877 167.555 183.331 168.216 181.688C168.877 180.045 169.432 178.36 169.88 176.632H175.16C174.989 177.528 174.701 178.499 174.296 179.544C173.891 180.568 173.411 181.613 172.856 182.68C172.323 183.725 171.747 184.739 171.128 185.72C170.531 186.68 169.944 187.565 169.368 188.376C168.813 189.165 168.301 189.805 167.832 190.296H174.104V185.272C174.339 184.888 174.584 184.44 174.84 183.928C175.117 183.416 175.384 182.883 175.64 182.328C175.917 181.773 176.152 181.24 176.344 180.728C176.557 180.195 176.728 179.704 176.856 179.256H179.192V190.296H182.104V194.328H179.192V199H174.104Z" fill="black"/>
<path d="M169.048 30.384C167.128 30.384 165.517 30.1067 164.216 29.552C162.936 28.976 161.976 28.208 161.336 27.248C160.696 26.2667 160.376 25.1573 160.376 23.92V23.344H165.24V23.952C165.24 24.7413 165.539 25.3707 166.136 25.84C166.733 26.3093 167.619 26.544 168.792 26.544C169.965 26.544 170.84 26.2773 171.416 25.744C171.992 25.1893 172.28 24.4107 172.28 23.408C172.28 22.704 172.141 22.1493 171.864 21.744C171.587 21.3387 171.213 21.0507 170.744 20.88C170.296 20.688 169.795 20.592 169.24 20.592H167.16V17.008H169.016C169.549 17.008 170.019 16.912 170.424 16.72C170.851 16.5067 171.181 16.1973 171.416 15.792C171.672 15.3867 171.8 14.8747 171.8 14.256C171.8 13.68 171.683 13.1893 171.448 12.784C171.213 12.3573 170.861 12.0373 170.392 11.824C169.944 11.5893 169.411 11.472 168.792 11.472C168.216 11.472 167.683 11.5787 167.192 11.792C166.723 12.0053 166.349 12.304 166.072 12.688C165.816 13.072 165.688 13.52 165.688 14.032V14.448H160.984V13.648C160.984 12.496 161.304 11.472 161.944 10.576C162.605 9.65867 163.544 8.944 164.76 8.432C165.976 7.89867 167.416 7.632 169.08 7.632C170.723 7.632 172.141 7.888 173.336 8.4C174.531 8.89067 175.448 9.59467 176.088 10.512C176.728 11.408 177.048 12.4427 177.048 13.616C177.048 14.4053 176.899 15.1307 176.6 15.792C176.323 16.432 175.928 16.976 175.416 17.424C174.925 17.872 174.349 18.2347 173.688 18.512V18.64C174.883 19.0027 175.832 19.6533 176.536 20.592C177.24 21.5093 177.592 22.6613 177.592 24.048C177.571 25.2853 177.229 26.384 176.568 27.344C175.907 28.2827 174.947 29.0293 173.688 29.584C172.429 30.1173 170.883 30.384 169.048 30.384Z" fill="black"/>
<path d="M3.264 28V23.872H8.512V12.128H3.232V9.024C4.08533 8.96 5.01333 8.77867 6.016 8.48C7.04 8.18133 8.04267 7.81867 9.024 7.392C10.0267 6.944 10.9227 6.47467 11.712 5.984H13.76V23.872H18.72V28H3.264Z" fill="black"/>
<path d="M1.6 199V197.688C1.6 196.749 1.78133 195.885 2.144 195.096C2.50667 194.307 2.99733 193.571 3.616 192.888C4.23467 192.205 4.91733 191.555 5.664 190.936C6.432 190.296 7.2 189.688 7.968 189.112C8.84267 188.472 9.664 187.853 10.432 187.256C11.2 186.659 11.8187 186.029 12.288 185.368C12.7787 184.707 13.024 183.971 13.024 183.16C13.024 182.733 12.9173 182.328 12.704 181.944C12.512 181.539 12.192 181.208 11.744 180.952C11.3173 180.696 10.7413 180.568 10.016 180.568C9.29067 180.568 8.68267 180.707 8.192 180.984C7.70133 181.24 7.328 181.603 7.072 182.072C6.816 182.541 6.688 183.096 6.688 183.736V184.696H1.824C1.80267 184.568 1.78133 184.429 1.76 184.28C1.76 184.109 1.76 183.917 1.76 183.704C1.76 182.168 2.112 180.877 2.816 179.832C3.52 178.787 4.512 177.997 5.792 177.464C7.09333 176.909 8.64 176.632 10.432 176.632C11.7973 176.632 12.9707 176.813 13.952 177.176C14.9547 177.539 15.776 178.029 16.416 178.648C17.056 179.267 17.5253 179.971 17.824 180.76C18.144 181.528 18.304 182.328 18.304 183.16C18.304 184.163 18.1227 185.069 17.76 185.88C17.3973 186.691 16.896 187.459 16.256 188.184C15.616 188.888 14.8693 189.571 14.016 190.232C13.1627 190.872 12.2453 191.523 11.264 192.184C10.7733 192.525 10.3253 192.845 9.92 193.144C9.536 193.421 9.22667 193.667 8.992 193.88C8.75733 194.093 8.58667 194.285 8.48 194.456H18.496V199H1.6Z" fill="black"/>
<path d="M159 164C159 166.209 160.791 168 163 168C165.209 168 167 166.209 167 164H159ZM165.828 41.1716C164.266 39.6095 161.734 39.6095 160.172 41.1716L134.716 66.6274C133.154 68.1895 133.154 70.7222 134.716 72.2843C136.278 73.8464 138.81 73.8464 140.373 72.2843L163 49.6568L185.627 72.2843C187.19 73.8464 189.722 73.8464 191.284 72.2843C192.846 70.7222 192.846 68.1895 191.284 66.6274L165.828 41.1716ZM167 164L167 44H159L159 164H167Z" fill="black"/>
<path d="M155 176C157.209 176 159 174.209 159 172C159 169.791 157.209 168 155 168V176ZM32.1716 169.172C30.6095 170.734 30.6095 173.266 32.1716 174.828L57.6274 200.284C59.1895 201.846 61.7222 201.846 63.2843 200.284C64.8464 198.722 64.8464 196.19 63.2843 194.627L40.6568 172L63.2843 149.373C64.8464 147.81 64.8464 145.278 63.2843 143.716C61.7222 142.154 59.1895 142.154 57.6274 143.716L32.1716 169.172ZM155 168L35 168V176L155 176V168Z" fill="black"/>
<g clip-path="url(#clip1_23_138)">
<rect x="343" y="200" width="192" height="55" rx="27.5" transform="rotate(-90 343 200)" fill="black"/>
<path d="M381.384 164.856C381.384 166.712 381.085 168.301 380.488 169.624C379.869 170.925 379.016 171.928 377.928 172.632C376.819 173.315 375.517 173.656 374.024 173.656V168.76C374.707 168.76 375.315 168.621 375.848 168.344C376.381 168.067 376.797 167.661 377.096 167.128C377.373 166.595 377.512 165.955 377.512 165.208C377.512 164.461 377.363 163.832 377.064 163.32C376.765 162.808 376.339 162.413 375.784 162.136C375.208 161.859 374.536 161.72 373.768 161.72C373 161.72 372.349 161.859 371.816 162.136C371.283 162.413 370.877 162.808 370.6 163.32C370.301 163.832 370.152 164.44 370.152 165.144C370.152 165.763 370.248 166.285 370.44 166.712C370.632 167.117 370.856 167.448 371.112 167.704C371.368 167.96 371.613 168.173 371.848 168.344L371.272 172.792L359.016 171.864V157.848H363.592V167.736L367.88 168.024C367.773 167.896 367.613 167.651 367.4 167.288C367.187 166.904 366.984 166.403 366.792 165.784C366.6 165.144 366.504 164.408 366.504 163.576C366.504 162.168 366.781 160.931 367.336 159.864C367.891 158.797 368.712 157.965 369.8 157.368C370.888 156.749 372.221 156.44 373.8 156.44C375.293 156.44 376.616 156.781 377.768 157.464C378.899 158.147 379.784 159.117 380.424 160.376C381.064 161.635 381.384 163.128 381.384 164.856ZM381 146.648L359.016 154.552V148.408L371.432 144.376C371.688 144.291 372.029 144.184 372.456 144.056C372.861 143.928 373.288 143.8 373.736 143.672C374.163 143.523 374.547 143.405 374.888 143.32V143.096C374.568 142.989 374.205 142.883 373.8 142.776C373.373 142.648 372.957 142.52 372.552 142.392C372.125 142.264 371.763 142.157 371.464 142.072L359.016 138.04V132.12L381 139.992V146.648ZM381 123.225H359.016V110.457C359.016 108.836 359.325 107.481 359.944 106.393C360.541 105.305 361.373 104.494 362.44 103.961C363.485 103.406 364.659 103.129 365.96 103.129C367.368 103.129 368.627 103.46 369.736 104.121C370.824 104.761 371.677 105.668 372.296 106.841L381 102.425V108.825L373.256 112.473V117.497H381V123.225ZM369 117.497V111.577C369 110.788 368.744 110.158 368.232 109.689C367.699 109.198 366.995 108.953 366.12 108.953C365.544 108.953 365.053 109.06 364.648 109.273C364.243 109.486 363.933 109.785 363.72 110.169C363.485 110.553 363.368 111.022 363.368 111.577V117.497H369ZM381 101.369L359.016 93.113V86.233L381 77.977V84.089L377.192 85.401V94.169L381 95.481V101.369ZM372.904 92.793V86.809L368.264 88.377C368.029 88.4623 367.741 88.569 367.4 88.697C367.037 88.8037 366.664 88.921 366.28 89.049C365.875 89.1557 365.469 89.2623 365.064 89.369C364.659 89.4757 364.307 89.5823 364.008 89.689V89.913C364.413 89.9983 364.872 90.1263 365.384 90.297C365.896 90.4463 366.408 90.6063 366.92 90.777C367.432 90.9263 367.88 91.065 368.264 91.193L372.904 92.793ZM381.384 66.23C381.384 67.6167 381.256 68.918 381 70.134C380.765 71.35 380.371 72.4273 379.816 73.366C379.261 74.2833 378.536 75.0087 377.64 75.542C376.723 76.0753 375.603 76.342 374.28 76.342C374.195 76.342 374.099 76.342 373.992 76.342C373.885 76.342 373.8 76.3313 373.736 76.31V70.774C373.8 70.774 373.885 70.7847 373.992 70.806C374.077 70.806 374.152 70.806 374.216 70.806C374.899 70.806 375.453 70.6353 375.88 70.294C376.285 69.9313 376.584 69.43 376.776 68.79C376.947 68.15 377.032 67.4033 377.032 66.55C377.032 66.0807 377.011 65.6433 376.968 65.238C376.925 64.8327 376.851 64.47 376.744 64.15C376.637 63.83 376.509 63.5527 376.36 63.318C376.189 63.062 375.997 62.8807 375.784 62.774C375.549 62.646 375.283 62.582 374.984 62.582C374.493 62.582 374.088 62.774 373.768 63.158C373.448 63.5207 373.181 64.022 372.968 64.662C372.755 65.2807 372.552 65.9847 372.36 66.774C372.168 67.5633 371.965 68.3847 371.752 69.238C371.539 70.0913 371.272 70.9127 370.952 71.702C370.632 72.4913 370.227 73.206 369.736 73.846C369.245 74.4647 368.637 74.966 367.912 75.35C367.165 75.7127 366.269 75.894 365.224 75.894C364.072 75.894 363.08 75.6487 362.248 75.158C361.395 74.6673 360.701 73.9953 360.168 73.142C359.635 72.2673 359.251 71.2647 359.016 70.134C358.76 69.0033 358.632 67.798 358.632 66.518C358.632 65.2593 358.76 64.086 359.016 62.998C359.272 61.8887 359.677 60.9073 360.232 60.054C360.765 59.2007 361.448 58.5393 362.28 58.07C363.091 57.5793 364.072 57.3233 365.224 57.302H365.608V62.806H365.384C364.893 62.806 364.467 62.9447 364.104 63.222C363.72 63.478 363.421 63.8727 363.208 64.406C362.973 64.9393 362.856 65.6007 362.856 66.39C362.856 67.1793 362.931 67.8513 363.08 68.406C363.229 68.9393 363.443 69.3553 363.72 69.654C363.997 69.9313 364.328 70.07 364.712 70.07C365.181 70.07 365.565 69.8887 365.864 69.526C366.163 69.142 366.419 68.63 366.632 67.99C366.845 67.35 367.048 66.6353 367.24 65.846C367.411 65.0567 367.603 64.246 367.816 63.414C368.008 62.5607 368.264 61.7393 368.584 60.95C368.883 60.1607 369.277 59.446 369.768 58.806C370.237 58.166 370.824 57.6647 371.528 57.302C372.232 56.918 373.085 56.726 374.088 56.726C375.837 56.726 377.245 57.142 378.312 57.974C379.379 58.7847 380.157 59.9153 380.648 61.366C381.139 62.7953 381.384 64.4167 381.384 66.23ZM381 53.0375H359.016V40.9415C359.016 39.4482 359.325 38.1788 359.944 37.1335C360.541 36.0668 361.384 35.2562 362.472 34.7015C363.539 34.1255 364.797 33.8375 366.248 33.8375C367.741 33.8375 369.032 34.1362 370.12 34.7335C371.208 35.3095 372.061 36.1415 372.68 37.2295C373.277 38.2962 373.576 39.5762 373.576 41.0695V47.3095H381V53.0375ZM369.16 47.3095V42.4135C369.16 41.5175 368.915 40.8348 368.424 40.3655C367.912 39.8962 367.208 39.6615 366.312 39.6615C365.672 39.6615 365.149 39.7682 364.744 39.9815C364.339 40.1735 364.029 40.4722 363.816 40.8775C363.581 41.2828 363.464 41.7948 363.464 42.4135V47.3095H369.16Z" fill="white"/>
</g>
<path d="M310.336 199.384C308.885 199.384 307.605 199.181 306.496 198.776C305.408 198.371 304.48 197.741 303.712 196.888C302.965 196.035 302.4 194.925 302.016 193.56C301.653 192.173 301.472 190.52 301.472 188.6C301.472 186.403 301.653 184.547 302.016 183.032C302.4 181.496 302.955 180.259 303.68 179.32C304.427 178.381 305.344 177.699 306.432 177.272C307.541 176.845 308.811 176.632 310.24 176.632C311.925 176.632 313.355 176.931 314.528 177.528C315.701 178.104 316.597 178.925 317.216 179.992C317.835 181.059 318.144 182.328 318.144 183.8H313.248C313.248 183.053 313.131 182.435 312.896 181.944C312.661 181.453 312.32 181.08 311.872 180.824C311.424 180.568 310.88 180.44 310.24 180.44C309.301 180.44 308.576 180.675 308.064 181.144C307.573 181.613 307.232 182.317 307.04 183.256C306.869 184.173 306.784 185.336 306.784 186.744C307.083 186.445 307.477 186.157 307.968 185.88C308.459 185.603 309.003 185.379 309.6 185.208C310.219 185.037 310.848 184.952 311.488 184.952C312.981 184.952 314.272 185.24 315.36 185.816C316.448 186.371 317.291 187.171 317.888 188.216C318.485 189.24 318.784 190.467 318.784 191.896C318.784 193.475 318.421 194.819 317.696 195.928C316.992 197.037 316.011 197.891 314.752 198.488C313.493 199.085 312.021 199.384 310.336 199.384ZM310.24 195.576C310.987 195.576 311.605 195.437 312.096 195.16C312.587 194.861 312.949 194.445 313.184 193.912C313.44 193.379 313.568 192.76 313.568 192.056C313.568 191.331 313.44 190.701 313.184 190.168C312.949 189.635 312.587 189.219 312.096 188.92C311.605 188.6 310.987 188.44 310.24 188.44C309.515 188.44 308.896 188.589 308.384 188.888C307.893 189.187 307.52 189.603 307.264 190.136C307.029 190.648 306.912 191.277 306.912 192.024C306.912 192.728 307.029 193.347 307.264 193.88C307.52 194.413 307.893 194.829 308.384 195.128C308.896 195.427 309.515 195.576 310.24 195.576Z" fill="black"/>
<path d="M306.144 30.384C304.288 30.384 302.699 30.0853 301.376 29.488C300.075 28.8693 299.072 28.016 298.368 26.928C297.685 25.8187 297.344 24.5173 297.344 23.024H302.24C302.24 23.7067 302.379 24.3147 302.656 24.848C302.933 25.3813 303.339 25.7973 303.872 26.096C304.405 26.3733 305.045 26.512 305.792 26.512C306.539 26.512 307.168 26.3627 307.68 26.064C308.192 25.7653 308.587 25.3387 308.864 24.784C309.141 24.208 309.28 23.536 309.28 22.768C309.28 22 309.141 21.3493 308.864 20.816C308.587 20.2827 308.192 19.8773 307.68 19.6C307.168 19.3013 306.56 19.152 305.856 19.152C305.237 19.152 304.715 19.248 304.288 19.44C303.883 19.632 303.552 19.856 303.296 20.112C303.04 20.368 302.827 20.6133 302.656 20.848L298.208 20.272L299.136 8.016H313.152V12.592H303.264L302.976 16.88C303.104 16.7733 303.349 16.6133 303.712 16.4C304.096 16.1867 304.597 15.984 305.216 15.792C305.856 15.6 306.592 15.504 307.424 15.504C308.832 15.504 310.069 15.7813 311.136 16.336C312.203 16.8907 313.035 17.712 313.632 18.8C314.251 19.888 314.56 21.2213 314.56 22.8C314.56 24.2933 314.219 25.616 313.536 26.768C312.853 27.8987 311.883 28.784 310.624 29.424C309.365 30.064 307.872 30.384 306.144 30.384Z" fill="black"/>
<path d="M296 164C296 166.209 297.791 168 300 168C302.209 168 304 166.209 304 164H296ZM302.828 41.1716C301.266 39.6095 298.734 39.6095 297.172 41.1716L271.716 66.6274C270.154 68.1895 270.154 70.7222 271.716 72.2843C273.278 73.8464 275.81 73.8464 277.373 72.2843L300 49.6568L322.627 72.2843C324.19 73.8464 326.722 73.8464 328.284 72.2843C329.846 70.7222 329.846 68.1895 328.284 66.6274L302.828 41.1716ZM304 164V44H296V164H304Z" fill="black"/>
<defs>
<clipPath id="clip0_23_138">
<rect x="203" y="189" width="171" height="55" rx="27.5" transform="rotate(-90 203 189)" fill="white"/>
</clipPath>
<clipPath id="clip1_23_138">
<rect x="343" y="200" width="192" height="55" rx="27.5" transform="rotate(-90 343 200)" fill="white"/>
</clipPath>
</defs>
</svg>
