<svg width="423" height="329" viewBox="0 0 423 329" fill="none" xmlns="http://www.w3.org/2000/svg">
<g clip-path="url(#clip0_23_139)">
<rect x="210" y="43" width="171" height="55" rx="27.5" transform="rotate(90 210 43)" fill="black"/>
<path d="M171.616 78.144C171.616 76.288 171.915 74.6987 172.512 73.376C173.131 72.0747 173.984 71.072 175.072 70.368C176.181 69.6853 177.483 69.344 178.976 69.344V74.24C178.293 74.24 177.685 74.3787 177.152 74.656C176.619 74.9333 176.203 75.3387 175.904 75.872C175.627 76.4053 175.488 77.0453 175.488 77.792C175.488 78.5387 175.637 79.168 175.936 79.68C176.235 80.192 176.661 80.5867 177.216 80.864C177.792 81.1413 178.464 81.28 179.232 81.28C180 81.28 180.651 81.1413 181.184 80.864C181.717 80.5867 182.123 80.192 182.4 79.68C182.699 79.168 182.848 78.56 182.848 77.856C182.848 77.2373 182.752 76.7147 182.56 76.288C182.368 75.8827 182.144 75.552 181.888 75.296C181.632 75.04 181.387 74.8267 181.152 74.656L181.728 70.208L193.984 71.136V85.152H189.408V75.264L185.12 74.976C185.227 75.104 185.387 75.3493 185.6 75.712C185.813 76.096 186.016 76.5973 186.208 77.216C186.4 77.856 186.496 78.592 186.496 79.424C186.496 80.832 186.219 82.0693 185.664 83.136C185.109 84.2027 184.288 85.0347 183.2 85.632C182.112 86.2507 180.779 86.56 179.2 86.56C177.707 86.56 176.384 86.2187 175.232 85.536C174.101 84.8533 173.216 83.8827 172.576 82.624C171.936 81.3653 171.616 79.872 171.616 78.144ZM172 96.352L193.984 88.448V94.592L181.568 98.624C181.312 98.7093 180.971 98.816 180.544 98.944C180.139 99.072 179.712 99.2 179.264 99.328C178.837 99.4773 178.453 99.5947 178.112 99.68V99.904C178.432 100.011 178.795 100.117 179.2 100.224C179.627 100.352 180.043 100.48 180.448 100.608C180.875 100.736 181.237 100.843 181.536 100.928L193.984 104.96V110.88L172 103.008V96.352ZM171.616 129.887C171.616 127.775 171.947 125.951 172.608 124.415C173.269 122.9 174.261 121.738 175.584 120.927C176.907 120.116 178.549 119.711 180.512 119.711H193.984V125.471H180.64C179.232 125.471 178.123 125.844 177.312 126.591C176.501 127.338 176.096 128.436 176.096 129.887C176.096 131.338 176.501 132.447 177.312 133.215C178.123 133.983 179.232 134.367 180.64 134.367H193.984V140.095H180.512C178.549 140.095 176.907 139.69 175.584 138.879C174.261 138.068 173.269 136.906 172.608 135.391C171.947 133.876 171.616 132.042 171.616 129.887ZM171.616 153.958C171.616 152.571 171.744 151.27 172 150.054C172.235 148.838 172.629 147.76 173.184 146.822C173.739 145.904 174.464 145.179 175.36 144.646C176.277 144.112 177.397 143.846 178.72 143.846C178.805 143.846 178.901 143.846 179.008 143.846C179.115 143.846 179.2 143.856 179.264 143.878V149.414C179.2 149.414 179.115 149.403 179.008 149.382C178.923 149.382 178.848 149.382 178.784 149.382C178.101 149.382 177.547 149.552 177.12 149.894C176.715 150.256 176.416 150.758 176.224 151.398C176.053 152.038 175.968 152.784 175.968 153.638C175.968 154.107 175.989 154.544 176.032 154.95C176.075 155.355 176.149 155.718 176.256 156.038C176.363 156.358 176.491 156.635 176.64 156.87C176.811 157.126 177.003 157.307 177.216 157.414C177.451 157.542 177.717 157.606 178.016 157.606C178.507 157.606 178.912 157.414 179.232 157.03C179.552 156.667 179.819 156.166 180.032 155.526C180.245 154.907 180.448 154.203 180.64 153.414C180.832 152.624 181.035 151.803 181.248 150.95C181.461 150.096 181.728 149.275 182.048 148.486C182.368 147.696 182.773 146.982 183.264 146.342C183.755 145.723 184.363 145.222 185.088 144.838C185.835 144.475 186.731 144.294 187.776 144.294C188.928 144.294 189.92 144.539 190.752 145.03C191.605 145.52 192.299 146.192 192.832 147.046C193.365 147.92 193.749 148.923 193.984 150.054C194.24 151.184 194.368 152.39 194.368 153.67C194.368 154.928 194.24 156.102 193.984 157.19C193.728 158.299 193.323 159.28 192.768 160.134C192.235 160.987 191.552 161.648 190.72 162.118C189.909 162.608 188.928 162.864 187.776 162.886H187.392V157.382H187.616C188.107 157.382 188.533 157.243 188.896 156.966C189.28 156.71 189.579 156.315 189.792 155.782C190.027 155.248 190.144 154.587 190.144 153.798C190.144 153.008 190.069 152.336 189.92 151.782C189.771 151.248 189.557 150.832 189.28 150.534C189.003 150.256 188.672 150.118 188.288 150.118C187.819 150.118 187.435 150.299 187.136 150.661C186.837 151.046 186.581 151.558 186.368 152.198C186.155 152.838 185.952 153.552 185.76 154.342C185.589 155.131 185.397 155.942 185.184 156.774C184.992 157.627 184.736 158.448 184.416 159.238C184.117 160.027 183.723 160.742 183.232 161.382C182.763 162.022 182.176 162.523 181.472 162.886C180.768 163.27 179.915 163.462 178.912 163.462C177.163 163.462 175.755 163.046 174.688 162.214C173.621 161.403 172.843 160.272 172.352 158.822C171.861 157.392 171.616 155.771 171.616 153.958ZM172 167.15H193.984V180.59C193.984 181.721 193.76 182.745 193.312 183.662C192.864 184.579 192.235 185.305 191.424 185.838C190.613 186.393 189.664 186.67 188.576 186.67C187.616 186.67 186.795 186.499 186.112 186.158C185.429 185.838 184.875 185.401 184.448 184.846C184.021 184.313 183.701 183.705 183.488 183.022H183.36C183.189 183.811 182.88 184.526 182.432 185.166C182.005 185.806 181.419 186.307 180.672 186.67C179.925 187.054 179.019 187.246 177.952 187.246C176.693 187.246 175.616 186.947 174.72 186.35C173.845 185.753 173.173 184.963 172.704 183.982C172.235 183.001 172 181.902 172 180.686V167.15ZM176.416 172.878V179.118C176.416 179.801 176.619 180.345 177.024 180.75C177.429 181.177 178.048 181.39 178.88 181.39C179.328 181.39 179.723 181.294 180.064 181.102C180.427 180.931 180.704 180.665 180.896 180.302C181.088 179.961 181.184 179.534 181.184 179.022V172.878H176.416ZM185.248 172.878V178.606C185.248 179.075 185.344 179.47 185.536 179.79C185.728 180.131 185.995 180.387 186.336 180.558C186.677 180.75 187.083 180.846 187.552 180.846C188.235 180.846 188.768 180.643 189.152 180.238C189.536 179.833 189.728 179.321 189.728 178.702V172.878H185.248Z" fill="white"/>
</g>
<rect x="10" y="214" width="170" height="55" rx="27.5" fill="black"/>
<path d="M45.144 252.384C43.288 252.384 41.6987 252.085 40.376 251.488C39.0747 250.869 38.072 250.016 37.368 248.928C36.6853 247.819 36.344 246.517 36.344 245.024H41.24C41.24 245.707 41.3787 246.315 41.656 246.848C41.9333 247.381 42.3387 247.797 42.872 248.096C43.4053 248.373 44.0453 248.512 44.792 248.512C45.5387 248.512 46.168 248.363 46.68 248.064C47.192 247.765 47.5867 247.339 47.864 246.784C48.1413 246.208 48.28 245.536 48.28 244.768C48.28 244 48.1413 243.349 47.864 242.816C47.5867 242.283 47.192 241.877 46.68 241.6C46.168 241.301 45.56 241.152 44.856 241.152C44.2373 241.152 43.7147 241.248 43.288 241.44C42.8827 241.632 42.552 241.856 42.296 242.112C42.04 242.368 41.8267 242.613 41.656 242.848L37.208 242.272L38.136 230.016H52.152V234.592H42.264L41.976 238.88C42.104 238.773 42.3493 238.613 42.712 238.4C43.096 238.187 43.5973 237.984 44.216 237.792C44.856 237.6 45.592 237.504 46.424 237.504C47.832 237.504 49.0693 237.781 50.136 238.336C51.2027 238.891 52.0347 239.712 52.632 240.8C53.2507 241.888 53.56 243.221 53.56 244.8C53.56 246.293 53.2187 247.616 52.536 248.768C51.8533 249.899 50.8827 250.784 49.624 251.424C48.3653 252.064 46.872 252.384 45.144 252.384ZM63.352 252L55.448 230.016H61.592L65.624 242.432C65.7093 242.688 65.816 243.029 65.944 243.456C66.072 243.861 66.2 244.288 66.328 244.736C66.4773 245.163 66.5947 245.547 66.68 245.888H66.904C67.0107 245.568 67.1173 245.205 67.224 244.8C67.352 244.373 67.48 243.957 67.608 243.552C67.736 243.125 67.8427 242.763 67.928 242.464L71.96 230.016H77.88L70.008 252H63.352ZM86.775 252V230.016H98.871C100.364 230.016 101.634 230.325 102.679 230.944C103.746 231.541 104.556 232.384 105.111 233.472C105.687 234.539 105.975 235.797 105.975 237.248C105.975 238.741 105.676 240.032 105.079 241.12C104.503 242.208 103.671 243.061 102.583 243.68C101.516 244.277 100.236 244.576 98.743 244.576H92.503V252H86.775ZM92.503 240.16H97.399C98.295 240.16 98.9777 239.915 99.447 239.424C99.9163 238.912 100.151 238.208 100.151 237.312C100.151 236.672 100.044 236.149 99.831 235.744C99.639 235.339 99.3403 235.029 98.935 234.816C98.5297 234.581 98.0177 234.464 97.399 234.464H92.503V240.16ZM118.239 252.384C116.852 252.384 115.551 252.256 114.335 252C113.119 251.765 112.041 251.371 111.103 250.816C110.185 250.261 109.46 249.536 108.927 248.64C108.393 247.723 108.127 246.603 108.127 245.28C108.127 245.195 108.127 245.099 108.127 244.992C108.127 244.885 108.137 244.8 108.159 244.736H113.695C113.695 244.8 113.684 244.885 113.663 244.992C113.663 245.077 113.663 245.152 113.663 245.216C113.663 245.899 113.833 246.453 114.175 246.88C114.537 247.285 115.039 247.584 115.679 247.776C116.319 247.947 117.065 248.032 117.919 248.032C118.388 248.032 118.825 248.011 119.231 247.968C119.636 247.925 119.999 247.851 120.319 247.744C120.639 247.637 120.916 247.509 121.151 247.36C121.407 247.189 121.588 246.997 121.695 246.784C121.823 246.549 121.887 246.283 121.887 245.984C121.887 245.493 121.695 245.088 121.311 244.768C120.948 244.448 120.447 244.181 119.807 243.968C119.188 243.755 118.484 243.552 117.695 243.36C116.905 243.168 116.084 242.965 115.231 242.752C114.377 242.539 113.556 242.272 112.767 241.952C111.977 241.632 111.263 241.227 110.623 240.736C110.004 240.245 109.503 239.637 109.119 238.912C108.756 238.165 108.575 237.269 108.575 236.224C108.575 235.072 108.82 234.08 109.311 233.248C109.801 232.395 110.473 231.701 111.327 231.168C112.201 230.635 113.204 230.251 114.335 230.016C115.465 229.76 116.671 229.632 117.951 229.632C119.209 229.632 120.383 229.76 121.471 230.016C122.58 230.272 123.561 230.677 124.415 231.232C125.268 231.765 125.929 232.448 126.399 233.28C126.889 234.091 127.145 235.072 127.167 236.224V236.608H121.663V236.384C121.663 235.893 121.524 235.467 121.247 235.104C120.991 234.72 120.596 234.421 120.063 234.208C119.529 233.973 118.868 233.856 118.079 233.856C117.289 233.856 116.617 233.931 116.063 234.08C115.529 234.229 115.113 234.443 114.815 234.72C114.537 234.997 114.399 235.328 114.399 235.712C114.399 236.181 114.58 236.565 114.943 236.864C115.327 237.163 115.839 237.419 116.479 237.632C117.119 237.845 117.833 238.048 118.623 238.24C119.412 238.411 120.223 238.603 121.055 238.816C121.908 239.008 122.729 239.264 123.519 239.584C124.308 239.883 125.023 240.277 125.663 240.768C126.303 241.237 126.804 241.824 127.167 242.528C127.551 243.232 127.743 244.085 127.743 245.088C127.743 246.837 127.327 248.245 126.495 249.312C125.684 250.379 124.553 251.157 123.103 251.648C121.673 252.139 120.052 252.384 118.239 252.384ZM141.543 252.384C139.431 252.384 137.607 252.053 136.071 251.392C134.557 250.731 133.394 249.739 132.583 248.416C131.773 247.093 131.367 245.451 131.367 243.488V230.016H137.127V243.36C137.127 244.768 137.501 245.877 138.247 246.688C138.994 247.499 140.093 247.904 141.543 247.904C142.994 247.904 144.103 247.499 144.871 246.688C145.639 245.877 146.023 244.768 146.023 243.36V230.016H151.751V243.488C151.751 245.451 151.346 247.093 150.535 248.416C149.725 249.739 148.562 250.731 147.047 251.392C145.533 252.053 143.698 252.384 141.543 252.384Z" fill="white"/>
<path d="M185.104 296V291.328H174.864V287.264C175.632 286.069 176.379 284.757 177.104 283.328C177.851 281.877 178.555 280.331 179.216 278.688C179.877 277.045 180.432 275.36 180.88 273.632H186.16C185.989 274.528 185.701 275.499 185.296 276.544C184.891 277.568 184.411 278.613 183.856 279.68C183.323 280.725 182.747 281.739 182.128 282.72C181.531 283.68 180.944 284.565 180.368 285.376C179.813 286.165 179.301 286.805 178.832 287.296H185.104V282.272C185.339 281.888 185.584 281.44 185.84 280.928C186.117 280.416 186.384 279.883 186.64 279.328C186.917 278.773 187.152 278.24 187.344 277.728C187.557 277.195 187.728 276.704 187.856 276.256H190.192V287.296H193.104V291.328H190.192V296H185.104Z" fill="black"/>
<path d="M181.048 34.384C179.128 34.384 177.517 34.1067 176.216 33.552C174.936 32.976 173.976 32.208 173.336 31.248C172.696 30.2667 172.376 29.1573 172.376 27.92V27.344H177.24V27.952C177.24 28.7413 177.539 29.3707 178.136 29.84C178.733 30.3093 179.619 30.544 180.792 30.544C181.965 30.544 182.84 30.2773 183.416 29.744C183.992 29.1893 184.28 28.4107 184.28 27.408C184.28 26.704 184.141 26.1493 183.864 25.744C183.587 25.3387 183.213 25.0507 182.744 24.88C182.296 24.688 181.795 24.592 181.24 24.592H179.16V21.008H181.016C181.549 21.008 182.019 20.912 182.424 20.72C182.851 20.5067 183.181 20.1973 183.416 19.792C183.672 19.3867 183.8 18.8747 183.8 18.256C183.8 17.68 183.683 17.1893 183.448 16.784C183.213 16.3573 182.861 16.0373 182.392 15.824C181.944 15.5893 181.411 15.472 180.792 15.472C180.216 15.472 179.683 15.5787 179.192 15.792C178.723 16.0053 178.349 16.304 178.072 16.688C177.816 17.072 177.688 17.52 177.688 18.032V18.448H172.984V17.648C172.984 16.496 173.304 15.472 173.944 14.576C174.605 13.6587 175.544 12.944 176.76 12.432C177.976 11.8987 179.416 11.632 181.08 11.632C182.723 11.632 184.141 11.888 185.336 12.4C186.531 12.8907 187.448 13.5947 188.088 14.512C188.728 15.408 189.048 16.4427 189.048 17.616C189.048 18.4053 188.899 19.1307 188.6 19.792C188.323 20.432 187.928 20.976 187.416 21.424C186.925 21.872 186.349 22.2347 185.688 22.512V22.64C186.883 23.0027 187.832 23.6533 188.536 24.592C189.24 25.5093 189.592 26.6613 189.592 28.048C189.571 29.2853 189.229 30.384 188.568 31.344C187.907 32.2827 186.947 33.0293 185.688 33.584C184.429 34.1173 182.883 34.384 181.048 34.384Z" fill="black"/>
<path d="M18.264 32V27.872H23.512V16.128H18.232V13.024C19.0853 12.96 20.0133 12.7787 21.016 12.48C22.04 12.1813 23.0427 11.8187 24.024 11.392C25.0267 10.944 25.9227 10.4747 26.712 9.984H28.76V27.872H33.72V32H18.264Z" fill="black"/>
<path d="M15.6 296V294.688C15.6 293.749 15.7813 292.885 16.144 292.096C16.5067 291.307 16.9973 290.571 17.616 289.888C18.2347 289.205 18.9173 288.555 19.664 287.936C20.432 287.296 21.2 286.688 21.968 286.112C22.8427 285.472 23.664 284.853 24.432 284.256C25.2 283.659 25.8187 283.029 26.288 282.368C26.7787 281.707 27.024 280.971 27.024 280.16C27.024 279.733 26.9173 279.328 26.704 278.944C26.512 278.539 26.192 278.208 25.744 277.952C25.3173 277.696 24.7413 277.568 24.016 277.568C23.2907 277.568 22.6827 277.707 22.192 277.984C21.7013 278.24 21.328 278.603 21.072 279.072C20.816 279.541 20.688 280.096 20.688 280.736V281.696H15.824C15.8027 281.568 15.7813 281.429 15.76 281.28C15.76 281.109 15.76 280.917 15.76 280.704C15.76 279.168 16.112 277.877 16.816 276.832C17.52 275.787 18.512 274.997 19.792 274.464C21.0933 273.909 22.64 273.632 24.432 273.632C25.7973 273.632 26.9707 273.813 27.952 274.176C28.9547 274.539 29.776 275.029 30.416 275.648C31.056 276.267 31.5253 276.971 31.824 277.76C32.144 278.528 32.304 279.328 32.304 280.16C32.304 281.163 32.1227 282.069 31.76 282.88C31.3973 283.691 30.896 284.459 30.256 285.184C29.616 285.888 28.8693 286.571 28.016 287.232C27.1627 287.872 26.2453 288.523 25.264 289.184C24.7733 289.525 24.3253 289.845 23.92 290.144C23.536 290.421 23.2267 290.667 22.992 290.88C22.7573 291.093 22.5867 291.285 22.48 291.456H32.496V296H15.6Z" fill="black"/>
<g clip-path="url(#clip1_23_139)">
<rect x="281" y="43" width="192" height="55" rx="27.5" transform="rotate(90 281 43)" fill="black"/>
<path d="M242.616 78.144C242.616 76.288 242.915 74.6987 243.512 73.376C244.131 72.0747 244.984 71.072 246.072 70.368C247.181 69.6853 248.483 69.344 249.976 69.344V74.24C249.293 74.24 248.685 74.3787 248.152 74.656C247.619 74.9333 247.203 75.3387 246.904 75.872C246.627 76.4053 246.488 77.0453 246.488 77.792C246.488 78.5387 246.637 79.168 246.936 79.68C247.235 80.192 247.661 80.5867 248.216 80.864C248.792 81.1413 249.464 81.28 250.232 81.28C251 81.28 251.651 81.1413 252.184 80.864C252.717 80.5867 253.123 80.192 253.4 79.68C253.699 79.168 253.848 78.56 253.848 77.856C253.848 77.2373 253.752 76.7147 253.56 76.288C253.368 75.8827 253.144 75.552 252.888 75.296C252.632 75.04 252.387 74.8267 252.152 74.656L252.728 70.208L264.984 71.136V85.152H260.408V75.264L256.12 74.976C256.227 75.104 256.387 75.3493 256.6 75.712C256.813 76.096 257.016 76.5973 257.208 77.216C257.4 77.856 257.496 78.592 257.496 79.424C257.496 80.832 257.219 82.0693 256.664 83.136C256.109 84.2027 255.288 85.0347 254.2 85.632C253.112 86.2507 251.779 86.56 250.2 86.56C248.707 86.56 247.384 86.2187 246.232 85.536C245.101 84.8533 244.216 83.8827 243.576 82.624C242.936 81.3653 242.616 79.872 242.616 78.144ZM243 96.352L264.984 88.448V94.592L252.568 98.624C252.312 98.7093 251.971 98.816 251.544 98.944C251.139 99.072 250.712 99.2 250.264 99.328C249.837 99.4773 249.453 99.5947 249.112 99.68V99.904C249.432 100.011 249.795 100.117 250.2 100.224C250.627 100.352 251.043 100.48 251.448 100.608C251.875 100.736 252.237 100.843 252.536 100.928L264.984 104.96V110.88L243 103.008V96.352ZM243 119.775H264.984V132.543C264.984 134.164 264.675 135.519 264.056 136.607C263.459 137.695 262.627 138.506 261.56 139.039C260.515 139.594 259.341 139.871 258.04 139.871C256.632 139.871 255.373 139.54 254.264 138.879C253.176 138.239 252.323 137.332 251.704 136.159L243 140.575V134.175L250.744 130.527V125.503H243V119.775ZM255 125.503V131.423C255 132.212 255.256 132.842 255.768 133.311C256.301 133.802 257.005 134.047 257.88 134.047C258.456 134.047 258.947 133.94 259.352 133.727C259.757 133.514 260.067 133.215 260.28 132.831C260.515 132.447 260.632 131.978 260.632 131.423V125.503H255ZM243 141.631L264.984 149.887V156.767L243 165.023V158.911L246.808 157.599V148.831L243 147.519V141.631ZM251.096 150.207V156.191L255.736 154.623C255.971 154.538 256.259 154.431 256.6 154.303C256.963 154.196 257.336 154.079 257.72 153.951C258.125 153.844 258.531 153.738 258.936 153.631C259.341 153.524 259.693 153.418 259.992 153.311V153.087C259.587 153.002 259.128 152.874 258.616 152.703C258.104 152.554 257.592 152.394 257.08 152.223C256.568 152.074 256.12 151.935 255.736 151.807L251.096 150.207ZM242.616 176.77C242.616 175.383 242.744 174.082 243 172.866C243.235 171.65 243.629 170.573 244.184 169.634C244.739 168.717 245.464 167.991 246.36 167.458C247.277 166.925 248.397 166.658 249.72 166.658C249.805 166.658 249.901 166.658 250.008 166.658C250.115 166.658 250.2 166.669 250.264 166.69V172.226C250.2 172.226 250.115 172.215 250.008 172.194C249.923 172.194 249.848 172.194 249.784 172.194C249.101 172.194 248.547 172.365 248.12 172.706C247.715 173.069 247.416 173.57 247.224 174.21C247.053 174.85 246.968 175.597 246.968 176.45C246.968 176.919 246.989 177.357 247.032 177.762C247.075 178.167 247.149 178.53 247.256 178.85C247.363 179.17 247.491 179.447 247.64 179.682C247.811 179.938 248.003 180.119 248.216 180.226C248.451 180.354 248.717 180.418 249.016 180.418C249.507 180.418 249.912 180.226 250.232 179.842C250.552 179.479 250.819 178.978 251.032 178.338C251.245 177.719 251.448 177.015 251.64 176.226C251.832 175.437 252.035 174.615 252.248 173.762C252.461 172.909 252.728 172.087 253.048 171.298C253.368 170.509 253.773 169.794 254.264 169.154C254.755 168.535 255.363 168.034 256.088 167.65C256.835 167.287 257.731 167.106 258.776 167.106C259.928 167.106 260.92 167.351 261.752 167.842C262.605 168.333 263.299 169.005 263.832 169.858C264.365 170.733 264.749 171.735 264.984 172.866C265.24 173.997 265.368 175.202 265.368 176.482C265.368 177.741 265.24 178.914 264.984 180.002C264.728 181.111 264.323 182.093 263.768 182.946C263.235 183.799 262.552 184.461 261.72 184.93C260.909 185.421 259.928 185.677 258.776 185.698H258.392V180.194H258.616C259.107 180.194 259.533 180.055 259.896 179.778C260.28 179.522 260.579 179.127 260.792 178.594C261.027 178.061 261.144 177.399 261.144 176.61C261.144 175.821 261.069 175.149 260.92 174.594C260.771 174.061 260.557 173.645 260.28 173.346C260.003 173.069 259.672 172.93 259.288 172.93C258.819 172.93 258.435 173.111 258.136 173.474C257.837 173.858 257.581 174.37 257.368 175.01C257.155 175.65 256.952 176.365 256.76 177.154C256.589 177.943 256.397 178.754 256.184 179.586C255.992 180.439 255.736 181.261 255.416 182.05C255.117 182.839 254.723 183.554 254.232 184.194C253.763 184.834 253.176 185.335 252.472 185.698C251.768 186.082 250.915 186.274 249.912 186.274C248.163 186.274 246.755 185.858 245.688 185.026C244.621 184.215 243.843 183.085 243.352 181.634C242.861 180.205 242.616 178.583 242.616 176.77ZM243 189.963H264.984V202.059C264.984 203.552 264.675 204.821 264.056 205.867C263.459 206.933 262.616 207.744 261.528 208.299C260.461 208.875 259.203 209.163 257.752 209.163C256.259 209.163 254.968 208.864 253.88 208.267C252.792 207.691 251.939 206.859 251.32 205.771C250.723 204.704 250.424 203.424 250.424 201.931V195.691H243V189.963ZM254.84 195.691V200.587C254.84 201.483 255.085 202.165 255.576 202.635C256.088 203.104 256.792 203.339 257.688 203.339C258.328 203.339 258.851 203.232 259.256 203.019C259.661 202.827 259.971 202.528 260.184 202.123C260.419 201.717 260.536 201.205 260.536 200.587V195.691H254.84Z" fill="white"/>
</g>
<path d="M257.336 296.384C255.885 296.384 254.605 296.181 253.496 295.776C252.408 295.371 251.48 294.741 250.712 293.888C249.965 293.035 249.4 291.925 249.016 290.56C248.653 289.173 248.472 287.52 248.472 285.6C248.472 283.403 248.653 281.547 249.016 280.032C249.4 278.496 249.955 277.259 250.68 276.32C251.427 275.381 252.344 274.699 253.432 274.272C254.541 273.845 255.811 273.632 257.24 273.632C258.925 273.632 260.355 273.931 261.528 274.528C262.701 275.104 263.597 275.925 264.216 276.992C264.835 278.059 265.144 279.328 265.144 280.8H260.248C260.248 280.053 260.131 279.435 259.896 278.944C259.661 278.453 259.32 278.08 258.872 277.824C258.424 277.568 257.88 277.44 257.24 277.44C256.301 277.44 255.576 277.675 255.064 278.144C254.573 278.613 254.232 279.317 254.04 280.256C253.869 281.173 253.784 282.336 253.784 283.744C254.083 283.445 254.477 283.157 254.968 282.88C255.459 282.603 256.003 282.379 256.6 282.208C257.219 282.037 257.848 281.952 258.488 281.952C259.981 281.952 261.272 282.24 262.36 282.816C263.448 283.371 264.291 284.171 264.888 285.216C265.485 286.24 265.784 287.467 265.784 288.896C265.784 290.475 265.421 291.819 264.696 292.928C263.992 294.037 263.011 294.891 261.752 295.488C260.493 296.085 259.021 296.384 257.336 296.384ZM257.24 292.576C257.987 292.576 258.605 292.437 259.096 292.16C259.587 291.861 259.949 291.445 260.184 290.912C260.44 290.379 260.568 289.76 260.568 289.056C260.568 288.331 260.44 287.701 260.184 287.168C259.949 286.635 259.587 286.219 259.096 285.92C258.605 285.6 257.987 285.44 257.24 285.44C256.515 285.44 255.896 285.589 255.384 285.888C254.893 286.187 254.52 286.603 254.264 287.136C254.029 287.648 253.912 288.277 253.912 289.024C253.912 289.728 254.029 290.347 254.264 290.88C254.52 291.413 254.893 291.829 255.384 292.128C255.896 292.427 256.515 292.576 257.24 292.576Z" fill="black"/>
<path d="M254.144 34.384C252.288 34.384 250.699 34.0853 249.376 33.488C248.075 32.8693 247.072 32.016 246.368 30.928C245.685 29.8187 245.344 28.5173 245.344 27.024H250.24C250.24 27.7067 250.379 28.3147 250.656 28.848C250.933 29.3813 251.339 29.7973 251.872 30.096C252.405 30.3733 253.045 30.512 253.792 30.512C254.539 30.512 255.168 30.3627 255.68 30.064C256.192 29.7653 256.587 29.3387 256.864 28.784C257.141 28.208 257.28 27.536 257.28 26.768C257.28 26 257.141 25.3493 256.864 24.816C256.587 24.2827 256.192 23.8773 255.68 23.6C255.168 23.3013 254.56 23.152 253.856 23.152C253.237 23.152 252.715 23.248 252.288 23.44C251.883 23.632 251.552 23.856 251.296 24.112C251.04 24.368 250.827 24.6133 250.656 24.848L246.208 24.272L247.136 12.016H261.152V16.592H251.264L250.976 20.88C251.104 20.7733 251.349 20.6133 251.712 20.4C252.096 20.1867 252.597 19.984 253.216 19.792C253.856 19.6 254.592 19.504 255.424 19.504C256.832 19.504 258.069 19.7813 259.136 20.336C260.203 20.8907 261.035 21.712 261.632 22.8C262.251 23.888 262.56 25.2213 262.56 26.8C262.56 28.2933 262.219 29.616 261.536 30.768C260.853 31.8987 259.883 32.784 258.624 33.424C257.365 34.064 255.872 34.384 254.144 34.384Z" fill="black"/>
<defs>
<clipPath id="clip0_23_139">
<rect x="210" y="43" width="171" height="55" rx="27.5" transform="rotate(90 210 43)" fill="white"/>
</clipPath>
<clipPath id="clip1_23_139">
<rect x="281" y="43" width="192" height="55" rx="27.5" transform="rotate(90 281 43)" fill="white"/>
</clipPath>
</defs>
</svg>
