<svg width="170" height="55" viewBox="0 0 170 55" fill="none" xmlns="http://www.w3.org/2000/svg">
<rect width="170" height="55" rx="27.5" fill="black"/>
<path d="M35.144 38.384C33.288 38.384 31.6987 38.0853 30.376 37.488C29.0747 36.8693 28.072 36.016 27.368 34.928C26.6853 33.8187 26.344 32.5173 26.344 31.024H31.24C31.24 31.7067 31.3787 32.3147 31.656 32.848C31.9333 33.3813 32.3387 33.7973 32.872 34.096C33.4053 34.3733 34.0453 34.512 34.792 34.512C35.5387 34.512 36.168 34.3627 36.68 34.064C37.192 33.7653 37.5867 33.3387 37.864 32.784C38.1413 32.208 38.28 31.536 38.28 30.768C38.28 30 38.1413 29.3493 37.864 28.816C37.5867 28.2827 37.192 27.8773 36.68 27.6C36.168 27.3013 35.56 27.152 34.856 27.152C34.2373 27.152 33.7147 27.248 33.288 27.44C32.8827 27.632 32.552 27.856 32.296 28.112C32.04 28.368 31.8267 28.6133 31.656 28.848L27.208 28.272L28.136 16.016H42.152V20.592H32.264L31.976 24.88C32.104 24.7733 32.3493 24.6133 32.712 24.4C33.096 24.1867 33.5973 23.984 34.216 23.792C34.856 23.6 35.592 23.504 36.424 23.504C37.832 23.504 39.0693 23.7813 40.136 24.336C41.2027 24.8907 42.0347 25.712 42.632 26.8C43.2507 27.888 43.56 29.2213 43.56 30.8C43.56 32.2933 43.2187 33.616 42.536 34.768C41.8533 35.8987 40.8827 36.784 39.624 37.424C38.3653 38.064 36.872 38.384 35.144 38.384ZM53.352 38L45.448 16.016H51.592L55.624 28.432C55.7093 28.688 55.816 29.0293 55.944 29.456C56.072 29.8613 56.2 30.288 56.328 30.736C56.4773 31.1627 56.5947 31.5467 56.68 31.888H56.904C57.0107 31.568 57.1173 31.2053 57.224 30.8C57.352 30.3733 57.48 29.9573 57.608 29.552C57.736 29.1253 57.8427 28.7627 57.928 28.464L61.96 16.016H67.88L60.008 38H53.352ZM76.775 38V16.016H88.871C90.3643 16.016 91.6337 16.3253 92.679 16.944C93.7457 17.5413 94.5563 18.384 95.111 19.472C95.687 20.5387 95.975 21.7973 95.975 23.248C95.975 24.7413 95.6763 26.032 95.079 27.12C94.503 28.208 93.671 29.0613 92.583 29.68C91.5163 30.2773 90.2363 30.576 88.743 30.576H82.503V38H76.775ZM82.503 26.16H87.399C88.295 26.16 88.9777 25.9147 89.447 25.424C89.9163 24.912 90.151 24.208 90.151 23.312C90.151 22.672 90.0443 22.1493 89.831 21.744C89.639 21.3387 89.3403 21.0293 88.935 20.816C88.5297 20.5813 88.0177 20.464 87.399 20.464H82.503V26.16ZM108.239 38.384C106.852 38.384 105.551 38.256 104.335 38C103.119 37.7653 102.041 37.3707 101.103 36.816C100.185 36.2613 99.4601 35.536 98.9268 34.64C98.3934 33.7227 98.1268 32.6027 98.1268 31.28C98.1268 31.1947 98.1268 31.0987 98.1268 30.992C98.1268 30.8853 98.1374 30.8 98.1588 30.736H103.695C103.695 30.8 103.684 30.8853 103.663 30.992C103.663 31.0773 103.663 31.152 103.663 31.216C103.663 31.8987 103.833 32.4533 104.175 32.88C104.537 33.2853 105.039 33.584 105.679 33.776C106.319 33.9467 107.065 34.032 107.919 34.032C108.388 34.032 108.825 34.0107 109.231 33.968C109.636 33.9253 109.999 33.8507 110.319 33.744C110.639 33.6373 110.916 33.5093 111.151 33.36C111.407 33.1893 111.588 32.9973 111.695 32.784C111.823 32.5493 111.887 32.2827 111.887 31.984C111.887 31.4933 111.695 31.088 111.311 30.768C110.948 30.448 110.447 30.1813 109.807 29.968C109.188 29.7547 108.484 29.552 107.695 29.36C106.905 29.168 106.084 28.9653 105.231 28.752C104.377 28.5387 103.556 28.272 102.767 27.952C101.977 27.632 101.263 27.2267 100.623 26.736C100.004 26.2453 99.5028 25.6373 99.1188 24.912C98.7561 24.1653 98.5748 23.2693 98.5748 22.224C98.5748 21.072 98.8201 20.08 99.3108 19.248C99.8014 18.3947 100.473 17.7013 101.327 17.168C102.201 16.6347 103.204 16.2507 104.335 16.016C105.465 15.76 106.671 15.632 107.951 15.632C109.209 15.632 110.383 15.76 111.471 16.016C112.58 16.272 113.561 16.6773 114.415 17.232C115.268 17.7653 115.929 18.448 116.399 19.28C116.889 20.0907 117.145 21.072 117.167 22.224V22.608H111.663V22.384C111.663 21.8933 111.524 21.4667 111.247 21.104C110.991 20.72 110.596 20.4213 110.063 20.208C109.529 19.9733 108.868 19.856 108.079 19.856C107.289 19.856 106.617 19.9307 106.063 20.08C105.529 20.2293 105.113 20.4427 104.815 20.72C104.537 20.9973 104.399 21.328 104.399 21.712C104.399 22.1813 104.58 22.5653 104.943 22.864C105.327 23.1627 105.839 23.4187 106.479 23.632C107.119 23.8453 107.833 24.048 108.623 24.24C109.412 24.4107 110.223 24.6027 111.055 24.816C111.908 25.008 112.729 25.264 113.519 25.584C114.308 25.8827 115.023 26.2773 115.663 26.768C116.303 27.2373 116.804 27.824 117.167 28.528C117.551 29.232 117.743 30.0853 117.743 31.088C117.743 32.8373 117.327 34.2453 116.495 35.312C115.684 36.3787 114.553 37.1573 113.103 37.648C111.673 38.1387 110.052 38.384 108.239 38.384ZM131.543 38.384C129.431 38.384 127.607 38.0533 126.071 37.392C124.557 36.7307 123.394 35.7387 122.583 34.416C121.773 33.0933 121.367 31.4507 121.367 29.488V16.016H127.127V29.36C127.127 30.768 127.501 31.8773 128.247 32.688C128.994 33.4987 130.093 33.904 131.543 33.904C132.994 33.904 134.103 33.4987 134.871 32.688C135.639 31.8773 136.023 30.768 136.023 29.36V16.016H141.751V29.488C141.751 31.4507 141.346 33.0933 140.535 34.416C139.725 35.7387 138.562 36.7307 137.047 37.392C135.533 38.0533 133.698 38.384 131.543 38.384Z" fill="white"/>
</svg>
