<svg width="192" height="55" viewBox="0 0 192 55" fill="none" xmlns="http://www.w3.org/2000/svg">
<rect width="192" height="55" rx="27.5" fill="black"/>
<path d="M35.144 38.384C33.288 38.384 31.6987 38.0853 30.376 37.488C29.0747 36.8693 28.072 36.016 27.368 34.928C26.6853 33.8187 26.344 32.5173 26.344 31.024H31.24C31.24 31.7067 31.3787 32.3147 31.656 32.848C31.9333 33.3813 32.3387 33.7973 32.872 34.096C33.4053 34.3733 34.0453 34.512 34.792 34.512C35.5387 34.512 36.168 34.3627 36.68 34.064C37.192 33.7653 37.5867 33.3387 37.864 32.784C38.1413 32.208 38.28 31.536 38.28 30.768C38.28 30 38.1413 29.3493 37.864 28.816C37.5867 28.2827 37.192 27.8773 36.68 27.6C36.168 27.3013 35.56 27.152 34.856 27.152C34.2373 27.152 33.7147 27.248 33.288 27.44C32.8827 27.632 32.552 27.856 32.296 28.112C32.04 28.368 31.8267 28.6133 31.656 28.848L27.208 28.272L28.136 16.016H42.152V20.592H32.264L31.976 24.88C32.104 24.7733 32.3493 24.6133 32.712 24.4C33.096 24.1867 33.5973 23.984 34.216 23.792C34.856 23.6 35.592 23.504 36.424 23.504C37.832 23.504 39.0693 23.7813 40.136 24.336C41.2027 24.8907 42.0347 25.712 42.632 26.8C43.2507 27.888 43.56 29.2213 43.56 30.8C43.56 32.2933 43.2187 33.616 42.536 34.768C41.8533 35.8987 40.8827 36.784 39.624 37.424C38.3653 38.064 36.872 38.384 35.144 38.384ZM53.352 38L45.448 16.016H51.592L55.624 28.432C55.7093 28.688 55.816 29.0293 55.944 29.456C56.072 29.8613 56.2 30.288 56.328 30.736C56.4773 31.1627 56.5947 31.5467 56.68 31.888H56.904C57.0107 31.568 57.1173 31.2053 57.224 30.8C57.352 30.3733 57.48 29.9573 57.608 29.552C57.736 29.1253 57.8427 28.7627 57.928 28.464L61.96 16.016H67.88L60.008 38H53.352ZM76.775 38V16.016H89.543C91.1643 16.016 92.519 16.3253 93.607 16.944C94.695 17.5413 95.5057 18.3733 96.039 19.44C96.5937 20.4853 96.871 21.6587 96.871 22.96C96.871 24.368 96.5403 25.6267 95.879 26.736C95.239 27.824 94.3323 28.6773 93.159 29.296L97.575 38H91.175L87.527 30.256H82.503V38H76.775ZM82.503 26H88.423C89.2123 26 89.8417 25.744 90.311 25.232C90.8017 24.6987 91.047 23.9947 91.047 23.12C91.047 22.544 90.9403 22.0533 90.727 21.648C90.5137 21.2427 90.215 20.9333 89.831 20.72C89.447 20.4853 88.9777 20.368 88.423 20.368H82.503V26ZM98.631 38L106.887 16.016H113.767L122.023 38H115.911L114.599 34.192H105.831L104.519 38H98.631ZM107.207 29.904H113.191L111.623 25.264C111.538 25.0293 111.431 24.7413 111.303 24.4C111.196 24.0373 111.079 23.664 110.951 23.28C110.844 22.8747 110.738 22.4693 110.631 22.064C110.524 21.6587 110.418 21.3067 110.311 21.008H110.087C110.002 21.4133 109.874 21.872 109.703 22.384C109.554 22.896 109.394 23.408 109.223 23.92C109.074 24.432 108.935 24.88 108.807 25.264L107.207 29.904ZM133.77 38.384C132.383 38.384 131.082 38.256 129.866 38C128.65 37.7653 127.573 37.3707 126.634 36.816C125.717 36.2613 124.991 35.536 124.458 34.64C123.925 33.7227 123.658 32.6027 123.658 31.28C123.658 31.1947 123.658 31.0987 123.658 30.992C123.658 30.8853 123.669 30.8 123.69 30.736H129.226C129.226 30.8 129.215 30.8853 129.194 30.992C129.194 31.0773 129.194 31.152 129.194 31.216C129.194 31.8987 129.365 32.4533 129.706 32.88C130.069 33.2853 130.57 33.584 131.21 33.776C131.85 33.9467 132.597 34.032 133.45 34.032C133.919 34.032 134.357 34.0107 134.762 33.968C135.167 33.9253 135.53 33.8507 135.85 33.744C136.17 33.6373 136.447 33.5093 136.682 33.36C136.938 33.1893 137.119 32.9973 137.226 32.784C137.354 32.5493 137.418 32.2827 137.418 31.984C137.418 31.4933 137.226 31.088 136.842 30.768C136.479 30.448 135.978 30.1813 135.338 29.968C134.719 29.7547 134.015 29.552 133.226 29.36C132.437 29.168 131.615 28.9653 130.762 28.752C129.909 28.5387 129.087 28.272 128.298 27.952C127.509 27.632 126.794 27.2267 126.154 26.736C125.535 26.2453 125.034 25.6373 124.65 24.912C124.287 24.1653 124.106 23.2693 124.106 22.224C124.106 21.072 124.351 20.08 124.842 19.248C125.333 18.3947 126.005 17.7013 126.858 17.168C127.733 16.6347 128.735 16.2507 129.866 16.016C130.997 15.76 132.202 15.632 133.482 15.632C134.741 15.632 135.914 15.76 137.002 16.016C138.111 16.272 139.093 16.6773 139.946 17.232C140.799 17.7653 141.461 18.448 141.93 19.28C142.421 20.0907 142.677 21.072 142.698 22.224V22.608H137.194V22.384C137.194 21.8933 137.055 21.4667 136.778 21.104C136.522 20.72 136.127 20.4213 135.594 20.208C135.061 19.9733 134.399 19.856 133.61 19.856C132.821 19.856 132.149 19.9307 131.594 20.08C131.061 20.2293 130.645 20.4427 130.346 20.72C130.069 20.9973 129.93 21.328 129.93 21.712C129.93 22.1813 130.111 22.5653 130.474 22.864C130.858 23.1627 131.37 23.4187 132.01 23.632C132.65 23.8453 133.365 24.048 134.154 24.24C134.943 24.4107 135.754 24.6027 136.586 24.816C137.439 25.008 138.261 25.264 139.05 25.584C139.839 25.8827 140.554 26.2773 141.194 26.768C141.834 27.2373 142.335 27.824 142.698 28.528C143.082 29.232 143.274 30.0853 143.274 31.088C143.274 32.8373 142.858 34.2453 142.026 35.312C141.215 36.3787 140.085 37.1573 138.634 37.648C137.205 38.1387 135.583 38.384 133.77 38.384ZM146.963 38V16.016H159.059C160.552 16.016 161.821 16.3253 162.867 16.944C163.933 17.5413 164.744 18.384 165.299 19.472C165.875 20.5387 166.163 21.7973 166.163 23.248C166.163 24.7413 165.864 26.032 165.267 27.12C164.691 28.208 163.859 29.0613 162.771 29.68C161.704 30.2773 160.424 30.576 158.931 30.576H152.691V38H146.963ZM152.691 26.16H157.587C158.483 26.16 159.165 25.9147 159.635 25.424C160.104 24.912 160.339 24.208 160.339 23.312C160.339 22.672 160.232 22.1493 160.019 21.744C159.827 21.3387 159.528 21.0293 159.123 20.816C158.717 20.5813 158.205 20.464 157.587 20.464H152.691V26.16Z" fill="white"/>
</svg>
