<svg width="171" height="55" viewBox="0 0 171 55" fill="none" xmlns="http://www.w3.org/2000/svg">
<rect width="171" height="55" rx="27.5" fill="black"/>
<path d="M35.144 38.384C33.288 38.384 31.6987 38.0853 30.376 37.488C29.0747 36.8693 28.072 36.016 27.368 34.928C26.6853 33.8187 26.344 32.5173 26.344 31.024H31.24C31.24 31.7067 31.3787 32.3147 31.656 32.848C31.9333 33.3813 32.3387 33.7973 32.872 34.096C33.4053 34.3733 34.0453 34.512 34.792 34.512C35.5387 34.512 36.168 34.3627 36.68 34.064C37.192 33.7653 37.5867 33.3387 37.864 32.784C38.1413 32.208 38.28 31.536 38.28 30.768C38.28 30 38.1413 29.3493 37.864 28.816C37.5867 28.2827 37.192 27.8773 36.68 27.6C36.168 27.3013 35.56 27.152 34.856 27.152C34.2373 27.152 33.7147 27.248 33.288 27.44C32.8827 27.632 32.552 27.856 32.296 28.112C32.04 28.368 31.8267 28.6133 31.656 28.848L27.208 28.272L28.136 16.016H42.152V20.592H32.264L31.976 24.88C32.104 24.7733 32.3493 24.6133 32.712 24.4C33.096 24.1867 33.5973 23.984 34.216 23.792C34.856 23.6 35.592 23.504 36.424 23.504C37.832 23.504 39.0693 23.7813 40.136 24.336C41.2027 24.8907 42.0347 25.712 42.632 26.8C43.2507 27.888 43.56 29.2213 43.56 30.8C43.56 32.2933 43.2187 33.616 42.536 34.768C41.8533 35.8987 40.8827 36.784 39.624 37.424C38.3653 38.064 36.872 38.384 35.144 38.384ZM53.352 38L45.448 16.016H51.592L55.624 28.432C55.7093 28.688 55.816 29.0293 55.944 29.456C56.072 29.8613 56.2 30.288 56.328 30.736C56.4773 31.1627 56.5947 31.5467 56.68 31.888H56.904C57.0107 31.568 57.1173 31.2053 57.224 30.8C57.352 30.3733 57.48 29.9573 57.608 29.552C57.736 29.1253 57.8427 28.7627 57.928 28.464L61.96 16.016H67.88L60.008 38H53.352ZM86.887 38.384C84.775 38.384 82.951 38.0533 81.415 37.392C79.9003 36.7307 78.7377 35.7387 77.927 34.416C77.1163 33.0933 76.711 31.4507 76.711 29.488V16.016H82.471V29.36C82.471 30.768 82.8443 31.8773 83.591 32.688C84.3377 33.4987 85.4363 33.904 86.887 33.904C88.3377 33.904 89.447 33.4987 90.215 32.688C90.983 31.8773 91.367 30.768 91.367 29.36V16.016H97.095V29.488C97.095 31.4507 96.6897 33.0933 95.879 34.416C95.0683 35.7387 93.9057 36.7307 92.391 37.392C90.8763 38.0533 89.0417 38.384 86.887 38.384ZM110.958 38.384C109.571 38.384 108.27 38.256 107.054 38C105.838 37.7653 104.76 37.3707 103.822 36.816C102.904 36.2613 102.179 35.536 101.646 34.64C101.112 33.7227 100.846 32.6027 100.846 31.28C100.846 31.1947 100.846 31.0987 100.846 30.992C100.846 30.8853 100.856 30.8 100.878 30.736H106.414C106.414 30.8 106.403 30.8853 106.382 30.992C106.382 31.0773 106.382 31.152 106.382 31.216C106.382 31.8987 106.552 32.4533 106.894 32.88C107.256 33.2853 107.758 33.584 108.398 33.776C109.038 33.9467 109.784 34.032 110.638 34.032C111.107 34.032 111.544 34.0107 111.95 33.968C112.355 33.9253 112.718 33.8507 113.038 33.744C113.358 33.6373 113.635 33.5093 113.87 33.36C114.126 33.1893 114.307 32.9973 114.414 32.784C114.542 32.5493 114.606 32.2827 114.606 31.984C114.606 31.4933 114.414 31.088 114.03 30.768C113.667 30.448 113.166 30.1813 112.526 29.968C111.907 29.7547 111.203 29.552 110.414 29.36C109.624 29.168 108.803 28.9653 107.95 28.752C107.096 28.5387 106.275 28.272 105.486 27.952C104.696 27.632 103.982 27.2267 103.342 26.736C102.723 26.2453 102.222 25.6373 101.838 24.912C101.475 24.1653 101.294 23.2693 101.294 22.224C101.294 21.072 101.539 20.08 102.03 19.248C102.52 18.3947 103.192 17.7013 104.046 17.168C104.92 16.6347 105.923 16.2507 107.054 16.016C108.184 15.76 109.39 15.632 110.67 15.632C111.928 15.632 113.102 15.76 114.19 16.016C115.299 16.272 116.28 16.6773 117.134 17.232C117.987 17.7653 118.648 18.448 119.118 19.28C119.608 20.0907 119.864 21.072 119.886 22.224V22.608H114.382V22.384C114.382 21.8933 114.243 21.4667 113.966 21.104C113.71 20.72 113.315 20.4213 112.782 20.208C112.248 19.9733 111.587 19.856 110.798 19.856C110.008 19.856 109.336 19.9307 108.782 20.08C108.248 20.2293 107.832 20.4427 107.534 20.72C107.256 20.9973 107.118 21.328 107.118 21.712C107.118 22.1813 107.299 22.5653 107.661 22.864C108.046 23.1627 108.558 23.4187 109.198 23.632C109.838 23.8453 110.552 24.048 111.342 24.24C112.131 24.4107 112.942 24.6027 113.774 24.816C114.627 25.008 115.448 25.264 116.238 25.584C117.027 25.8827 117.742 26.2773 118.382 26.768C119.022 27.2373 119.523 27.824 119.886 28.528C120.27 29.232 120.462 30.0853 120.462 31.088C120.462 32.8373 120.046 34.2453 119.214 35.312C118.403 36.3787 117.272 37.1573 115.822 37.648C114.392 38.1387 112.771 38.384 110.958 38.384ZM124.15 38V16.016H137.59C138.721 16.016 139.745 16.24 140.662 16.688C141.579 17.136 142.305 17.7653 142.838 18.576C143.393 19.3867 143.67 20.336 143.67 21.424C143.67 22.384 143.499 23.2053 143.158 23.888C142.838 24.5707 142.401 25.1253 141.846 25.552C141.313 25.9787 140.705 26.2987 140.022 26.512V26.64C140.811 26.8107 141.526 27.12 142.166 27.568C142.806 27.9947 143.307 28.5813 143.67 29.328C144.054 30.0747 144.246 30.9813 144.246 32.048C144.246 33.3067 143.947 34.384 143.35 35.28C142.753 36.1547 141.963 36.8267 140.982 37.296C140.001 37.7653 138.902 38 137.686 38H124.15ZM129.878 33.584H136.118C136.801 33.584 137.345 33.3813 137.75 32.976C138.177 32.5707 138.39 31.952 138.39 31.12C138.39 30.672 138.294 30.2773 138.102 29.936C137.931 29.5733 137.665 29.296 137.302 29.104C136.961 28.912 136.534 28.816 136.022 28.816H129.878V33.584ZM129.878 24.752H135.606C136.075 24.752 136.47 24.656 136.79 24.464C137.131 24.272 137.387 24.0053 137.558 23.664C137.75 23.3227 137.846 22.9173 137.846 22.448C137.846 21.7653 137.643 21.232 137.238 20.848C136.833 20.464 136.321 20.272 135.702 20.272H129.878V24.752Z" fill="white"/>
</svg>
